M48
;Layer_Color=9474304
;FILE_FORMAT=2:4
INCH,LZ
;TYPE=PLATED
T1F00S00C0.0276
T2F00S00C0.0280
T3F00S00C0.0335
T4F00S00C0.0354
T5F00S00C0.0394
T6F00S00C0.0472
T7F00S00C0.0500
T8F00S00C0.0984
%
T01
X04515Y0467
X06285Y04555
Y05255
X06185Y04905
X04515Y0497
X04535Y05335
Y05635
X059681Y07735
X060902
X0689Y07345
X0699Y06995
X0689Y06645
T02
X0563Y06138
X05589Y06291
X06324Y06648
X06366Y06709
T03
X051541Y046
X055541
Y0477
X051541
X0468Y0647
X0438
X0513Y06855
X0538Y0698
X0553Y06855
X0578Y0698
X0667Y0717
Y0767
T04
X0526Y04085
X0531
X0536
X058541Y040882
X059041
X059541
X0584Y05435
Y05535
Y05635
Y05735
X0554
Y05635
Y05535
Y05435
X05425Y05375
Y05275
Y05175
Y05075
X05125
Y05175
Y05275
Y05375
X05195Y05715
X05245
X05295
Y0614
X05245
X05195
X0537Y07215
Y07315
Y07415
Y07515
X0541Y07745
X0531
X0567Y07515
Y07415
Y07315
Y07215
X060291Y071481
Y070482
Y069482
Y068481
X063291
Y069482
Y070482
Y071481
T05
X0733Y04715
Y04815
Y04915
Y05015
Y05115
Y05215
Y05315
Y05415
Y05515
Y05615
Y05715
Y05815
Y05915
Y06015
Y06115
Y06215
X045447Y067456
Y068244
X04466Y069819
X043872
X043006Y068342
Y067358
T06
X043491Y0714
X047609
T07
X0442Y061
Y062
T08
X0733Y045221
X085505
X0733Y074748
X085505
M30
