G04 Layer_Color=128*
%FSLAX24Y24*%
%MOIN*%
G70*
G01*
G75*
%ADD57C,0.0020*%
D57*
X66533Y71700D02*
X66867D01*
X66700Y71533D02*
Y71867D01*
X66533Y76700D02*
X66867D01*
X66700Y76533D02*
Y76867D01*
X69762Y69950D02*
X70038D01*
X69900Y69812D02*
Y70088D01*
X68762Y73450D02*
X69038D01*
X68900Y73312D02*
Y73588D01*
X68762Y66450D02*
X69038D01*
X68900Y66312D02*
Y66588D01*
X72808Y74748D02*
X73792D01*
X73300Y74256D02*
Y75241D01*
X85013Y74748D02*
X85997D01*
X85505Y74256D02*
Y75241D01*
X85013Y45221D02*
X85997D01*
X85505Y44729D02*
Y45713D01*
X72808Y45221D02*
X73792D01*
X73300Y44729D02*
Y45713D01*
X73103Y62150D02*
X73497D01*
X73300Y61953D02*
Y62347D01*
X73103Y61150D02*
X73497D01*
X73300Y60953D02*
Y61347D01*
X73103Y60150D02*
X73497D01*
X73300Y59953D02*
Y60347D01*
X73103Y59150D02*
X73497D01*
X73300Y58953D02*
Y59347D01*
X73103Y58150D02*
X73497D01*
X73300Y57953D02*
Y58347D01*
X73103Y57150D02*
X73497D01*
X73300Y56953D02*
Y57347D01*
X73103Y56150D02*
X73497D01*
X73300Y55953D02*
Y56347D01*
X73103Y55150D02*
X73497D01*
X73300Y54953D02*
Y55347D01*
X73103Y54150D02*
X73497D01*
X73300Y53953D02*
Y54347D01*
X73103Y53150D02*
X73497D01*
X73300Y52953D02*
Y53347D01*
X73103Y52150D02*
X73497D01*
X73300Y51953D02*
Y52347D01*
X73103Y51150D02*
X73497D01*
X73300Y50953D02*
Y51347D01*
X73103Y50150D02*
X73497D01*
X73300Y49953D02*
Y50347D01*
X73103Y49150D02*
X73497D01*
X73300Y48953D02*
Y49347D01*
X73103Y48150D02*
X73497D01*
X73300Y47953D02*
Y48347D01*
X73103Y47150D02*
X73497D01*
X73300Y46953D02*
Y47347D01*
X59364Y40882D02*
X59718D01*
X59541Y40704D02*
Y41059D01*
X58864Y40882D02*
X59219D01*
X59041Y40704D02*
Y41059D01*
X58364Y40882D02*
X58719D01*
X58541Y40704D02*
Y41059D01*
X53423Y40850D02*
X53777D01*
X53600Y40673D02*
Y41027D01*
X52923Y40850D02*
X53277D01*
X53100Y40673D02*
Y41027D01*
X52423Y40850D02*
X52777D01*
X52600Y40673D02*
Y41027D01*
X51374Y46000D02*
X51709D01*
X51541Y45833D02*
Y46167D01*
X55374Y46000D02*
X55709D01*
X55541Y45833D02*
Y46167D01*
X51374Y47700D02*
X51709D01*
X51541Y47533D02*
Y47867D01*
X55374Y47700D02*
X55709D01*
X55541Y47533D02*
Y47867D01*
X54073Y50750D02*
X54427D01*
X54250Y50573D02*
Y50927D01*
X54073Y51750D02*
X54427D01*
X54250Y51573D02*
Y51927D01*
X54073Y52750D02*
X54427D01*
X54250Y52573D02*
Y52927D01*
X54073Y53750D02*
X54427D01*
X54250Y53573D02*
Y53927D01*
X51073Y50750D02*
X51427D01*
X51250Y50573D02*
Y50927D01*
X51073Y51750D02*
X51427D01*
X51250Y51573D02*
Y51927D01*
X51073Y52750D02*
X51427D01*
X51250Y52573D02*
Y52927D01*
X51073Y53750D02*
X51427D01*
X51250Y53573D02*
Y53927D01*
X58223Y54350D02*
X58577D01*
X58400Y54173D02*
Y54527D01*
X58223Y55350D02*
X58577D01*
X58400Y55173D02*
Y55527D01*
X58223Y56350D02*
X58577D01*
X58400Y56173D02*
Y56527D01*
X58223Y57350D02*
X58577D01*
X58400Y57173D02*
Y57527D01*
X55223Y54350D02*
X55577D01*
X55400Y54173D02*
Y54527D01*
X55223Y55350D02*
X55577D01*
X55400Y55173D02*
Y55527D01*
X55223Y56350D02*
X55577D01*
X55400Y56173D02*
Y56527D01*
X55223Y57350D02*
X55577D01*
X55400Y57173D02*
Y57527D01*
X52773Y57150D02*
X53127D01*
X52950Y56973D02*
Y57327D01*
X52273Y57150D02*
X52627D01*
X52450Y56973D02*
Y57327D01*
X51773Y57150D02*
X52127D01*
X51950Y56973D02*
Y57327D01*
X52773Y61400D02*
X53127D01*
X52950Y61223D02*
Y61577D01*
X52273Y61400D02*
X52627D01*
X52450Y61223D02*
Y61577D01*
X51773Y61400D02*
X52127D01*
X51950Y61223D02*
Y61577D01*
X51133Y68550D02*
X51467D01*
X51300Y68383D02*
Y68717D01*
X55133Y68550D02*
X55467D01*
X55300Y68383D02*
Y68717D01*
X53633Y69800D02*
X53967D01*
X53800Y69633D02*
Y69967D01*
X57633Y69800D02*
X57967D01*
X57800Y69633D02*
Y69967D01*
X56523Y72150D02*
X56877D01*
X56700Y71973D02*
Y72327D01*
X56523Y73150D02*
X56877D01*
X56700Y72973D02*
Y73327D01*
X56523Y74150D02*
X56877D01*
X56700Y73973D02*
Y74327D01*
X56523Y75150D02*
X56877D01*
X56700Y74973D02*
Y75327D01*
X53523Y72150D02*
X53877D01*
X53700Y71973D02*
Y72327D01*
X53523Y73150D02*
X53877D01*
X53700Y72973D02*
Y73327D01*
X53523Y74150D02*
X53877D01*
X53700Y73973D02*
Y74327D01*
X53523Y75150D02*
X53877D01*
X53700Y74973D02*
Y75327D01*
X63114Y68481D02*
X63468D01*
X63291Y68304D02*
Y68659D01*
X63114Y69482D02*
X63468D01*
X63291Y69304D02*
Y69659D01*
X63114Y70482D02*
X63468D01*
X63291Y70304D02*
Y70659D01*
X63114Y71481D02*
X63468D01*
X63291Y71304D02*
Y71659D01*
X60114Y68481D02*
X60469D01*
X60291Y68304D02*
Y68659D01*
X60114Y69482D02*
X60469D01*
X60291Y69304D02*
Y69659D01*
X60114Y70482D02*
X60469D01*
X60291Y70304D02*
Y70659D01*
X60114Y71481D02*
X60469D01*
X60291Y71304D02*
Y71659D01*
X52923Y77450D02*
X53277D01*
X53100Y77273D02*
Y77627D01*
X53923Y77450D02*
X54277D01*
X54100Y77273D02*
Y77627D01*
X60764Y77350D02*
X61039D01*
X60902Y77212D02*
Y77488D01*
X59543Y77350D02*
X59819D01*
X59681Y77212D02*
Y77488D01*
X61712Y49050D02*
X61988D01*
X61850Y48912D02*
Y49188D01*
X62712Y45550D02*
X62988D01*
X62850Y45412D02*
Y45688D01*
X62712Y52550D02*
X62988D01*
X62850Y52412D02*
Y52688D01*
X45012Y46700D02*
X45288D01*
X45150Y46562D02*
Y46838D01*
X45012Y49700D02*
X45288D01*
X45150Y49562D02*
Y49838D01*
X45212Y53350D02*
X45488D01*
X45350Y53212D02*
Y53488D01*
X45212Y56350D02*
X45488D01*
X45350Y56212D02*
Y56488D01*
X43950Y61000D02*
X44450D01*
X44200Y60750D02*
Y61250D01*
X43950Y62000D02*
X44450D01*
X44200Y61750D02*
Y62250D01*
X46633Y64700D02*
X46967D01*
X46800Y64533D02*
Y64867D01*
X43633Y64700D02*
X43967D01*
X43800Y64533D02*
Y64867D01*
X42809Y68342D02*
X43203D01*
X43006Y68145D02*
Y68539D01*
X44463Y69819D02*
X44857D01*
X44660Y69622D02*
Y70015D01*
X43676Y69819D02*
X44069D01*
X43872Y69622D02*
Y70015D01*
X45250Y67456D02*
X45644D01*
X45447Y67259D02*
Y67653D01*
X45250Y68244D02*
X45644D01*
X45447Y68047D02*
Y68441D01*
X42809Y67358D02*
X43203D01*
X43006Y67161D02*
Y67555D01*
X43255Y71400D02*
X43727D01*
X43491Y71164D02*
Y71636D01*
X47373Y71400D02*
X47845D01*
X47609Y71164D02*
Y71636D01*
X63100Y66480D02*
X63380D01*
X63240Y66340D02*
Y66620D01*
X63520Y67090D02*
X63800D01*
X63660Y66950D02*
Y67230D01*
X56160Y61380D02*
X56440D01*
X56300Y61240D02*
Y61520D01*
X55750Y62910D02*
X56030D01*
X55890Y62770D02*
Y63050D01*
M02*
