G04 Layer_Color=2752767*
%FSLAX24Y24*%
%MOIN*%
G70*
G01*
G75*
%ADD57C,0.0020*%
%ADD58C,0.0027*%
D57*
X66620Y71620D02*
Y71780D01*
X66780D01*
Y71620D01*
X66620D01*
Y76620D02*
Y76780D01*
X66780D01*
Y76620D01*
X66620D01*
X73300Y74668D02*
X73220Y74828D01*
X73380D01*
X73300Y74668D01*
X85505D02*
X85425Y74828D01*
X85585D01*
X85505Y74668D01*
Y45141D02*
X85425Y45301D01*
X85585D01*
X85505Y45141D01*
X73300D02*
X73220Y45301D01*
X73380D01*
X73300Y45141D01*
Y62070D02*
X73340Y62110D01*
X73380D01*
X73340Y62150D01*
X73380Y62190D01*
X73340D01*
X73300Y62230D01*
X73260Y62190D01*
X73220D01*
X73260Y62150D01*
X73220Y62110D01*
X73260D01*
X73300Y62070D01*
Y61070D02*
X73340Y61110D01*
X73380D01*
X73340Y61150D01*
X73380Y61190D01*
X73340D01*
X73300Y61230D01*
X73260Y61190D01*
X73220D01*
X73260Y61150D01*
X73220Y61110D01*
X73260D01*
X73300Y61070D01*
Y60070D02*
X73340Y60110D01*
X73380D01*
X73340Y60150D01*
X73380Y60190D01*
X73340D01*
X73300Y60230D01*
X73260Y60190D01*
X73220D01*
X73260Y60150D01*
X73220Y60110D01*
X73260D01*
X73300Y60070D01*
Y59070D02*
X73340Y59110D01*
X73380D01*
X73340Y59150D01*
X73380Y59190D01*
X73340D01*
X73300Y59230D01*
X73260Y59190D01*
X73220D01*
X73260Y59150D01*
X73220Y59110D01*
X73260D01*
X73300Y59070D01*
Y58070D02*
X73340Y58110D01*
X73380D01*
X73340Y58150D01*
X73380Y58190D01*
X73340D01*
X73300Y58230D01*
X73260Y58190D01*
X73220D01*
X73260Y58150D01*
X73220Y58110D01*
X73260D01*
X73300Y58070D01*
Y57070D02*
X73340Y57110D01*
X73380D01*
X73340Y57150D01*
X73380Y57190D01*
X73340D01*
X73300Y57230D01*
X73260Y57190D01*
X73220D01*
X73260Y57150D01*
X73220Y57110D01*
X73260D01*
X73300Y57070D01*
Y56070D02*
X73340Y56110D01*
X73380D01*
X73340Y56150D01*
X73380Y56190D01*
X73340D01*
X73300Y56230D01*
X73260Y56190D01*
X73220D01*
X73260Y56150D01*
X73220Y56110D01*
X73260D01*
X73300Y56070D01*
Y55070D02*
X73340Y55110D01*
X73380D01*
X73340Y55150D01*
X73380Y55190D01*
X73340D01*
X73300Y55230D01*
X73260Y55190D01*
X73220D01*
X73260Y55150D01*
X73220Y55110D01*
X73260D01*
X73300Y55070D01*
Y54070D02*
X73340Y54110D01*
X73380D01*
X73340Y54150D01*
X73380Y54190D01*
X73340D01*
X73300Y54230D01*
X73260Y54190D01*
X73220D01*
X73260Y54150D01*
X73220Y54110D01*
X73260D01*
X73300Y54070D01*
Y53070D02*
X73340Y53110D01*
X73380D01*
X73340Y53150D01*
X73380Y53190D01*
X73340D01*
X73300Y53230D01*
X73260Y53190D01*
X73220D01*
X73260Y53150D01*
X73220Y53110D01*
X73260D01*
X73300Y53070D01*
Y52070D02*
X73340Y52110D01*
X73380D01*
X73340Y52150D01*
X73380Y52190D01*
X73340D01*
X73300Y52230D01*
X73260Y52190D01*
X73220D01*
X73260Y52150D01*
X73220Y52110D01*
X73260D01*
X73300Y52070D01*
Y51070D02*
X73340Y51110D01*
X73380D01*
X73340Y51150D01*
X73380Y51190D01*
X73340D01*
X73300Y51230D01*
X73260Y51190D01*
X73220D01*
X73260Y51150D01*
X73220Y51110D01*
X73260D01*
X73300Y51070D01*
Y50070D02*
X73340Y50110D01*
X73380D01*
X73340Y50150D01*
X73380Y50190D01*
X73340D01*
X73300Y50230D01*
X73260Y50190D01*
X73220D01*
X73260Y50150D01*
X73220Y50110D01*
X73260D01*
X73300Y50070D01*
Y49070D02*
X73340Y49110D01*
X73380D01*
X73340Y49150D01*
X73380Y49190D01*
X73340D01*
X73300Y49230D01*
X73260Y49190D01*
X73220D01*
X73260Y49150D01*
X73220Y49110D01*
X73260D01*
X73300Y49070D01*
Y48070D02*
X73340Y48110D01*
X73380D01*
X73340Y48150D01*
X73380Y48190D01*
X73340D01*
X73300Y48230D01*
X73260Y48190D01*
X73220D01*
X73260Y48150D01*
X73220Y48110D01*
X73260D01*
X73300Y48070D01*
Y47070D02*
X73340Y47110D01*
X73380D01*
X73340Y47150D01*
X73380Y47190D01*
X73340D01*
X73300Y47230D01*
X73260Y47190D01*
X73220D01*
X73260Y47150D01*
X73220Y47110D01*
X73260D01*
X73300Y47070D01*
X59461Y40802D02*
X59501Y40882D01*
X59461Y40961D01*
X59541Y40922D01*
X59621Y40961D01*
X59581Y40882D01*
X59621Y40802D01*
X59541Y40841D01*
X59461Y40802D01*
X58961D02*
X59001Y40882D01*
X58961Y40961D01*
X59041Y40922D01*
X59121Y40961D01*
X59081Y40882D01*
X59121Y40802D01*
X59041Y40841D01*
X58961Y40802D01*
X58461D02*
X58501Y40882D01*
X58461Y40961D01*
X58541Y40922D01*
X58621Y40961D01*
X58581Y40882D01*
X58621Y40802D01*
X58541Y40841D01*
X58461Y40802D01*
X53520Y40770D02*
X53560Y40850D01*
X53520Y40930D01*
X53600Y40890D01*
X53680Y40930D01*
X53640Y40850D01*
X53680Y40770D01*
X53600Y40810D01*
X53520Y40770D01*
X53020D02*
X53060Y40850D01*
X53020Y40930D01*
X53100Y40890D01*
X53180Y40930D01*
X53140Y40850D01*
X53180Y40770D01*
X53100Y40810D01*
X53020Y40770D01*
X52520D02*
X52560Y40850D01*
X52520Y40930D01*
X52600Y40890D01*
X52680Y40930D01*
X52640Y40850D01*
X52680Y40770D01*
X52600Y40810D01*
X52520Y40770D01*
X51461Y45920D02*
Y46080D01*
X51621D01*
Y45920D01*
X51461D01*
X55461D02*
Y46080D01*
X55621D01*
Y45920D01*
X55461D01*
X51461Y47620D02*
Y47780D01*
X51621D01*
Y47620D01*
X51461D01*
X55461D02*
Y47780D01*
X55621D01*
Y47620D01*
X55461D01*
X54170Y50670D02*
X54210Y50750D01*
X54170Y50830D01*
X54250Y50790D01*
X54330Y50830D01*
X54290Y50750D01*
X54330Y50670D01*
X54250Y50710D01*
X54170Y50670D01*
Y51670D02*
X54210Y51750D01*
X54170Y51830D01*
X54250Y51790D01*
X54330Y51830D01*
X54290Y51750D01*
X54330Y51670D01*
X54250Y51710D01*
X54170Y51670D01*
Y52670D02*
X54210Y52750D01*
X54170Y52830D01*
X54250Y52790D01*
X54330Y52830D01*
X54290Y52750D01*
X54330Y52670D01*
X54250Y52710D01*
X54170Y52670D01*
Y53670D02*
X54210Y53750D01*
X54170Y53830D01*
X54250Y53790D01*
X54330Y53830D01*
X54290Y53750D01*
X54330Y53670D01*
X54250Y53710D01*
X54170Y53670D01*
X51170Y50670D02*
X51210Y50750D01*
X51170Y50830D01*
X51250Y50790D01*
X51330Y50830D01*
X51290Y50750D01*
X51330Y50670D01*
X51250Y50710D01*
X51170Y50670D01*
Y51670D02*
X51210Y51750D01*
X51170Y51830D01*
X51250Y51790D01*
X51330Y51830D01*
X51290Y51750D01*
X51330Y51670D01*
X51250Y51710D01*
X51170Y51670D01*
Y52670D02*
X51210Y52750D01*
X51170Y52830D01*
X51250Y52790D01*
X51330Y52830D01*
X51290Y52750D01*
X51330Y52670D01*
X51250Y52710D01*
X51170Y52670D01*
Y53670D02*
X51210Y53750D01*
X51170Y53830D01*
X51250Y53790D01*
X51330Y53830D01*
X51290Y53750D01*
X51330Y53670D01*
X51250Y53710D01*
X51170Y53670D01*
X58320Y54270D02*
X58360Y54350D01*
X58320Y54430D01*
X58400Y54390D01*
X58480Y54430D01*
X58440Y54350D01*
X58480Y54270D01*
X58400Y54310D01*
X58320Y54270D01*
Y55270D02*
X58360Y55350D01*
X58320Y55430D01*
X58400Y55390D01*
X58480Y55430D01*
X58440Y55350D01*
X58480Y55270D01*
X58400Y55310D01*
X58320Y55270D01*
Y56270D02*
X58360Y56350D01*
X58320Y56430D01*
X58400Y56390D01*
X58480Y56430D01*
X58440Y56350D01*
X58480Y56270D01*
X58400Y56310D01*
X58320Y56270D01*
Y57270D02*
X58360Y57350D01*
X58320Y57430D01*
X58400Y57390D01*
X58480Y57430D01*
X58440Y57350D01*
X58480Y57270D01*
X58400Y57310D01*
X58320Y57270D01*
X55320Y54270D02*
X55360Y54350D01*
X55320Y54430D01*
X55400Y54390D01*
X55480Y54430D01*
X55440Y54350D01*
X55480Y54270D01*
X55400Y54310D01*
X55320Y54270D01*
Y55270D02*
X55360Y55350D01*
X55320Y55430D01*
X55400Y55390D01*
X55480Y55430D01*
X55440Y55350D01*
X55480Y55270D01*
X55400Y55310D01*
X55320Y55270D01*
Y56270D02*
X55360Y56350D01*
X55320Y56430D01*
X55400Y56390D01*
X55480Y56430D01*
X55440Y56350D01*
X55480Y56270D01*
X55400Y56310D01*
X55320Y56270D01*
Y57270D02*
X55360Y57350D01*
X55320Y57430D01*
X55400Y57390D01*
X55480Y57430D01*
X55440Y57350D01*
X55480Y57270D01*
X55400Y57310D01*
X55320Y57270D01*
X52870Y57070D02*
X52910Y57150D01*
X52870Y57230D01*
X52950Y57190D01*
X53030Y57230D01*
X52990Y57150D01*
X53030Y57070D01*
X52950Y57110D01*
X52870Y57070D01*
X52370D02*
X52410Y57150D01*
X52370Y57230D01*
X52450Y57190D01*
X52530Y57230D01*
X52490Y57150D01*
X52530Y57070D01*
X52450Y57110D01*
X52370Y57070D01*
X51870D02*
X51910Y57150D01*
X51870Y57230D01*
X51950Y57190D01*
X52030Y57230D01*
X51990Y57150D01*
X52030Y57070D01*
X51950Y57110D01*
X51870Y57070D01*
X52870Y61320D02*
X52910Y61400D01*
X52870Y61480D01*
X52950Y61440D01*
X53030Y61480D01*
X52990Y61400D01*
X53030Y61320D01*
X52950Y61360D01*
X52870Y61320D01*
X52370D02*
X52410Y61400D01*
X52370Y61480D01*
X52450Y61440D01*
X52530Y61480D01*
X52490Y61400D01*
X52530Y61320D01*
X52450Y61360D01*
X52370Y61320D01*
X51870D02*
X51910Y61400D01*
X51870Y61480D01*
X51950Y61440D01*
X52030Y61480D01*
X51990Y61400D01*
X52030Y61320D01*
X51950Y61360D01*
X51870Y61320D01*
X51220Y68470D02*
Y68630D01*
X51380D01*
Y68470D01*
X51220D01*
X55220D02*
Y68630D01*
X55380D01*
Y68470D01*
X55220D01*
X53720Y69720D02*
Y69880D01*
X53880D01*
Y69720D01*
X53720D01*
X57720D02*
Y69880D01*
X57880D01*
Y69720D01*
X57720D01*
X56620Y72070D02*
X56660Y72150D01*
X56620Y72230D01*
X56700Y72190D01*
X56780Y72230D01*
X56740Y72150D01*
X56780Y72070D01*
X56700Y72110D01*
X56620Y72070D01*
Y73070D02*
X56660Y73150D01*
X56620Y73230D01*
X56700Y73190D01*
X56780Y73230D01*
X56740Y73150D01*
X56780Y73070D01*
X56700Y73110D01*
X56620Y73070D01*
Y74070D02*
X56660Y74150D01*
X56620Y74230D01*
X56700Y74190D01*
X56780Y74230D01*
X56740Y74150D01*
X56780Y74070D01*
X56700Y74110D01*
X56620Y74070D01*
Y75070D02*
X56660Y75150D01*
X56620Y75230D01*
X56700Y75190D01*
X56780Y75230D01*
X56740Y75150D01*
X56780Y75070D01*
X56700Y75110D01*
X56620Y75070D01*
X53620Y72070D02*
X53660Y72150D01*
X53620Y72230D01*
X53700Y72190D01*
X53780Y72230D01*
X53740Y72150D01*
X53780Y72070D01*
X53700Y72110D01*
X53620Y72070D01*
Y73070D02*
X53660Y73150D01*
X53620Y73230D01*
X53700Y73190D01*
X53780Y73230D01*
X53740Y73150D01*
X53780Y73070D01*
X53700Y73110D01*
X53620Y73070D01*
Y74070D02*
X53660Y74150D01*
X53620Y74230D01*
X53700Y74190D01*
X53780Y74230D01*
X53740Y74150D01*
X53780Y74070D01*
X53700Y74110D01*
X53620Y74070D01*
Y75070D02*
X53660Y75150D01*
X53620Y75230D01*
X53700Y75190D01*
X53780Y75230D01*
X53740Y75150D01*
X53780Y75070D01*
X53700Y75110D01*
X53620Y75070D01*
X63211Y68401D02*
X63251Y68481D01*
X63211Y68562D01*
X63291Y68521D01*
X63371Y68562D01*
X63331Y68481D01*
X63371Y68401D01*
X63291Y68442D01*
X63211Y68401D01*
Y69401D02*
X63251Y69482D01*
X63211Y69562D01*
X63291Y69521D01*
X63371Y69562D01*
X63331Y69482D01*
X63371Y69401D01*
X63291Y69441D01*
X63211Y69401D01*
Y70402D02*
X63251Y70482D01*
X63211Y70561D01*
X63291Y70521D01*
X63371Y70561D01*
X63331Y70482D01*
X63371Y70402D01*
X63291Y70441D01*
X63211Y70402D01*
Y71402D02*
X63251Y71481D01*
X63211Y71561D01*
X63291Y71522D01*
X63371Y71561D01*
X63331Y71481D01*
X63371Y71402D01*
X63291Y71441D01*
X63211Y71402D01*
X60211Y68401D02*
X60251Y68481D01*
X60211Y68562D01*
X60291Y68521D01*
X60371Y68562D01*
X60331Y68481D01*
X60371Y68401D01*
X60291Y68442D01*
X60211Y68401D01*
Y69401D02*
X60251Y69482D01*
X60211Y69562D01*
X60291Y69521D01*
X60371Y69562D01*
X60331Y69482D01*
X60371Y69401D01*
X60291Y69441D01*
X60211Y69401D01*
Y70402D02*
X60251Y70482D01*
X60211Y70561D01*
X60291Y70521D01*
X60371Y70561D01*
X60331Y70482D01*
X60371Y70402D01*
X60291Y70441D01*
X60211Y70402D01*
Y71402D02*
X60251Y71481D01*
X60211Y71561D01*
X60291Y71522D01*
X60371Y71561D01*
X60331Y71481D01*
X60371Y71402D01*
X60291Y71441D01*
X60211Y71402D01*
X53020Y77370D02*
X53060Y77450D01*
X53020Y77530D01*
X53100Y77490D01*
X53180Y77530D01*
X53140Y77450D01*
X53180Y77370D01*
X53100Y77410D01*
X53020Y77370D01*
X54020D02*
X54060Y77450D01*
X54020Y77530D01*
X54100Y77490D01*
X54180Y77530D01*
X54140Y77450D01*
X54180Y77370D01*
X54100Y77410D01*
X54020Y77370D01*
X44160Y60960D02*
Y60920D01*
X44240D01*
Y60960D01*
X44280D01*
Y61040D01*
X44240D01*
Y61080D01*
X44160D01*
Y61040D01*
X44120D01*
Y60960D01*
X44160D01*
Y61960D02*
Y61920D01*
X44240D01*
Y61960D01*
X44280D01*
Y62040D01*
X44240D01*
Y62080D01*
X44160D01*
Y62040D01*
X44120D01*
Y61960D01*
X44160D01*
X46720Y64620D02*
Y64780D01*
X46880D01*
Y64620D01*
X46720D01*
X43720D02*
Y64780D01*
X43880D01*
Y64620D01*
X43720D01*
X43006Y68262D02*
X43046Y68302D01*
X43086D01*
X43046Y68342D01*
X43086Y68382D01*
X43046D01*
X43006Y68422D01*
X42966Y68382D01*
X42926D01*
X42966Y68342D01*
X42926Y68302D01*
X42966D01*
X43006Y68262D01*
X44660Y69738D02*
X44700Y69778D01*
X44740D01*
X44700Y69819D01*
X44740Y69858D01*
X44700D01*
X44660Y69899D01*
X44620Y69858D01*
X44580D01*
X44620Y69819D01*
X44580Y69778D01*
X44620D01*
X44660Y69738D01*
X43872D02*
X43912Y69778D01*
X43952D01*
X43912Y69819D01*
X43952Y69858D01*
X43912D01*
X43872Y69899D01*
X43832Y69858D01*
X43792D01*
X43832Y69819D01*
X43792Y69778D01*
X43832D01*
X43872Y69738D01*
X45447Y67376D02*
X45487Y67416D01*
X45527D01*
X45487Y67456D01*
X45527Y67496D01*
X45487D01*
X45447Y67536D01*
X45407Y67496D01*
X45367D01*
X45407Y67456D01*
X45367Y67416D01*
X45407D01*
X45447Y67376D01*
Y68164D02*
X45487Y68204D01*
X45527D01*
X45487Y68244D01*
X45527Y68284D01*
X45487D01*
X45447Y68324D01*
X45407Y68284D01*
X45367D01*
X45407Y68244D01*
X45367Y68204D01*
X45407D01*
X45447Y68164D01*
X43006Y67278D02*
X43046Y67318D01*
X43086D01*
X43046Y67358D01*
X43086Y67398D01*
X43046D01*
X43006Y67438D01*
X42966Y67398D01*
X42926D01*
X42966Y67358D01*
X42926Y67318D01*
X42966D01*
X43006Y67278D01*
X43411Y71320D02*
X43451D01*
X43491Y71360D01*
X43531Y71320D01*
X43571D01*
Y71360D01*
X43531Y71400D01*
X43571Y71440D01*
Y71480D01*
X43531D01*
X43491Y71440D01*
X43451Y71480D01*
X43411D01*
Y71440D01*
X43451Y71400D01*
X43411Y71360D01*
Y71320D01*
X47529D02*
X47569D01*
X47609Y71360D01*
X47649Y71320D01*
X47689D01*
Y71360D01*
X47649Y71400D01*
X47689Y71440D01*
Y71480D01*
X47649D01*
X47609Y71440D01*
X47569Y71480D01*
X47529D01*
Y71440D01*
X47569Y71400D01*
X47529Y71360D01*
Y71320D01*
X63160Y66480D02*
X63240Y66560D01*
X63320Y66480D01*
X63240Y66400D01*
X63160Y66480D01*
X63580Y67090D02*
X63660Y67170D01*
X63740Y67090D01*
X63660Y67010D01*
X63580Y67090D01*
X56220Y61380D02*
X56300Y61460D01*
X56380Y61380D01*
X56300Y61300D01*
X56220Y61380D01*
X55810Y62910D02*
X55890Y62990D01*
X55970Y62910D01*
X55890Y62830D01*
X55810Y62910D01*
D58*
X69980Y69950D02*
G03*
X69980Y69950I-80J0D01*
G01*
X68980Y73450D02*
G03*
X68980Y73450I-80J0D01*
G01*
Y66450D02*
G03*
X68980Y66450I-80J0D01*
G01*
X60982Y77350D02*
G03*
X60982Y77350I-80J0D01*
G01*
X59761D02*
G03*
X59761Y77350I-80J0D01*
G01*
X61930Y49050D02*
G03*
X61930Y49050I-80J0D01*
G01*
X62930Y45550D02*
G03*
X62930Y45550I-80J0D01*
G01*
Y52550D02*
G03*
X62930Y52550I-80J0D01*
G01*
X45230Y46700D02*
G03*
X45230Y46700I-80J0D01*
G01*
Y49700D02*
G03*
X45230Y49700I-80J0D01*
G01*
X45430Y53350D02*
G03*
X45430Y53350I-80J0D01*
G01*
Y56350D02*
G03*
X45430Y56350I-80J0D01*
G01*
M02*
