G04 Layer_Physical_Order=2*
G04 Layer_Color=16711680*
%FSLAX24Y24*%
%MOIN*%
G70*
G01*
G75*
%ADD15C,0.0100*%
%ADD16C,0.0551*%
%ADD17C,0.0472*%
%ADD18R,0.0472X0.0472*%
%ADD19C,0.1476*%
%ADD20C,0.0591*%
%ADD21O,0.0394X0.0787*%
%ADD22O,0.0394X0.0787*%
%ADD23R,0.0591X0.0591*%
%ADD24C,0.0591*%
%ADD25R,0.0591X0.0591*%
%ADD26C,0.0512*%
%ADD27C,0.0700*%
%ADD28O,0.1575X0.0787*%
%ADD29O,0.0787X0.1575*%
%ADD30O,0.0787X0.1772*%
%ADD31R,0.0787X0.0787*%
%ADD32C,0.0787*%
%ADD33C,0.0500*%
G36*
X87674Y58900D02*
X87914Y38106D01*
X87879Y38070D01*
X38266Y38070D01*
Y79800D01*
X87674Y79800D01*
Y58900D01*
D02*
G37*
%LPC*%
G36*
X86614Y78893D02*
X39370D01*
X39312Y78881D01*
X39262Y78848D01*
X39229Y78799D01*
X39217Y78740D01*
Y39370D01*
X39229Y39312D01*
X39262Y39262D01*
X39312Y39229D01*
X39370Y39217D01*
X86614D01*
X86673Y39229D01*
X86722Y39262D01*
X86755Y39312D01*
X86767Y39370D01*
Y78740D01*
X86755Y78799D01*
X86722Y78848D01*
X86673Y78881D01*
X86614Y78893D01*
D02*
G37*
%LPD*%
G36*
X86461Y39523D02*
X39523D01*
Y78587D01*
X86461D01*
Y39523D01*
D02*
G37*
%LPC*%
G36*
X54495Y77845D02*
X53705D01*
Y77055D01*
X54495D01*
Y77845D01*
D02*
G37*
G36*
X53100Y77849D02*
X52997Y77835D01*
X52901Y77795D01*
X52818Y77732D01*
X52755Y77649D01*
X52715Y77553D01*
X52701Y77450D01*
X52715Y77347D01*
X52755Y77251D01*
X52818Y77168D01*
X52901Y77105D01*
X52997Y77065D01*
X53100Y77051D01*
X53203Y77065D01*
X53299Y77105D01*
X53382Y77168D01*
X53445Y77251D01*
X53485Y77347D01*
X53499Y77450D01*
X53485Y77553D01*
X53445Y77649D01*
X53382Y77732D01*
X53299Y77795D01*
X53203Y77835D01*
X53100Y77849D01*
D02*
G37*
G36*
X60902Y77709D02*
X60809Y77697D01*
X60722Y77661D01*
X60648Y77604D01*
X60591Y77529D01*
X60555Y77443D01*
X60543Y77350D01*
X60555Y77257D01*
X60591Y77171D01*
X60648Y77096D01*
X60722Y77039D01*
X60809Y77003D01*
X60902Y76991D01*
X60994Y77003D01*
X61081Y77039D01*
X61155Y77096D01*
X61212Y77171D01*
X61248Y77257D01*
X61261Y77350D01*
X61248Y77443D01*
X61212Y77529D01*
X61155Y77604D01*
X61081Y77661D01*
X60994Y77697D01*
X60902Y77709D01*
D02*
G37*
G36*
X59681D02*
X59588Y77697D01*
X59502Y77661D01*
X59427Y77604D01*
X59370Y77529D01*
X59334Y77443D01*
X59322Y77350D01*
X59334Y77257D01*
X59370Y77171D01*
X59427Y77096D01*
X59502Y77039D01*
X59588Y77003D01*
X59681Y76991D01*
X59774Y77003D01*
X59861Y77039D01*
X59935Y77096D01*
X59992Y77171D01*
X60028Y77257D01*
X60040Y77350D01*
X60028Y77443D01*
X59992Y77529D01*
X59935Y77604D01*
X59861Y77661D01*
X59774Y77697D01*
X59681Y77709D01*
D02*
G37*
G36*
X66700Y77079D02*
X66602Y77066D01*
X66511Y77028D01*
X66432Y76968D01*
X66372Y76889D01*
X66334Y76798D01*
X66321Y76700D01*
X66334Y76602D01*
X66372Y76511D01*
X66432Y76432D01*
X66511Y76372D01*
X66602Y76334D01*
X66700Y76321D01*
X66798Y76334D01*
X66889Y76372D01*
X66968Y76432D01*
X67028Y76511D01*
X67066Y76602D01*
X67079Y76700D01*
X67066Y76798D01*
X67028Y76889D01*
X66968Y76968D01*
X66889Y77028D01*
X66798Y77066D01*
X66700Y77079D01*
D02*
G37*
G36*
X84646Y77516D02*
X84501Y77501D01*
X84361Y77459D01*
X84232Y77390D01*
X84119Y77298D01*
X84027Y77185D01*
X83958Y77056D01*
X83916Y76917D01*
X83902Y76772D01*
X83916Y76626D01*
X83958Y76487D01*
X84027Y76358D01*
X84119Y76245D01*
X84232Y76153D01*
X84361Y76084D01*
X84501Y76042D01*
X84646Y76028D01*
X84791Y76042D01*
X84930Y76084D01*
X85059Y76153D01*
X85172Y76245D01*
X85264Y76358D01*
X85333Y76487D01*
X85375Y76626D01*
X85390Y76772D01*
X85375Y76917D01*
X85333Y77056D01*
X85264Y77185D01*
X85172Y77298D01*
X85059Y77390D01*
X84930Y77459D01*
X84791Y77501D01*
X84646Y77516D01*
D02*
G37*
G36*
X41339D02*
X41193Y77501D01*
X41054Y77459D01*
X40925Y77390D01*
X40812Y77298D01*
X40720Y77185D01*
X40651Y77056D01*
X40609Y76917D01*
X40594Y76772D01*
X40609Y76626D01*
X40651Y76487D01*
X40720Y76358D01*
X40812Y76245D01*
X40925Y76153D01*
X41054Y76084D01*
X41193Y76042D01*
X41339Y76028D01*
X41484Y76042D01*
X41623Y76084D01*
X41752Y76153D01*
X41865Y76245D01*
X41957Y76358D01*
X42026Y76487D01*
X42068Y76626D01*
X42083Y76772D01*
X42068Y76917D01*
X42026Y77056D01*
X41957Y77185D01*
X41865Y77298D01*
X41752Y77390D01*
X41623Y77459D01*
X41484Y77501D01*
X41339Y77516D01*
D02*
G37*
G36*
X56700Y75549D02*
X56597Y75535D01*
X56501Y75495D01*
X56418Y75432D01*
X56355Y75349D01*
X56315Y75253D01*
X56301Y75150D01*
X56315Y75047D01*
X56355Y74951D01*
X56418Y74868D01*
X56501Y74805D01*
X56597Y74765D01*
X56700Y74751D01*
X56803Y74765D01*
X56899Y74805D01*
X56982Y74868D01*
X57045Y74951D01*
X57085Y75047D01*
X57099Y75150D01*
X57085Y75253D01*
X57045Y75349D01*
X56982Y75432D01*
X56899Y75495D01*
X56803Y75535D01*
X56700Y75549D01*
D02*
G37*
G36*
X53700D02*
X53597Y75535D01*
X53501Y75495D01*
X53418Y75432D01*
X53355Y75349D01*
X53315Y75253D01*
X53301Y75150D01*
X53315Y75047D01*
X53355Y74951D01*
X53418Y74868D01*
X53501Y74805D01*
X53597Y74765D01*
X53700Y74751D01*
X53803Y74765D01*
X53899Y74805D01*
X53982Y74868D01*
X54045Y74951D01*
X54085Y75047D01*
X54099Y75150D01*
X54085Y75253D01*
X54045Y75349D01*
X53982Y75432D01*
X53899Y75495D01*
X53803Y75535D01*
X53700Y75549D01*
D02*
G37*
G36*
X85505Y75591D02*
X85340Y75574D01*
X85182Y75527D01*
X85037Y75449D01*
X84909Y75344D01*
X84804Y75216D01*
X84727Y75071D01*
X84679Y74913D01*
X84662Y74748D01*
X84679Y74584D01*
X84727Y74426D01*
X84804Y74280D01*
X84909Y74153D01*
X85037Y74048D01*
X85182Y73970D01*
X85340Y73922D01*
X85505Y73906D01*
X85669Y73922D01*
X85827Y73970D01*
X85973Y74048D01*
X86100Y74153D01*
X86205Y74280D01*
X86283Y74426D01*
X86331Y74584D01*
X86347Y74748D01*
X86331Y74913D01*
X86283Y75071D01*
X86205Y75216D01*
X86100Y75344D01*
X85973Y75449D01*
X85827Y75527D01*
X85669Y75574D01*
X85505Y75591D01*
D02*
G37*
G36*
X73300D02*
X73136Y75574D01*
X72978Y75527D01*
X72832Y75449D01*
X72704Y75344D01*
X72600Y75216D01*
X72522Y75071D01*
X72474Y74913D01*
X72458Y74748D01*
X72474Y74584D01*
X72522Y74426D01*
X72600Y74280D01*
X72704Y74153D01*
X72832Y74048D01*
X72978Y73970D01*
X73136Y73922D01*
X73300Y73906D01*
X73464Y73922D01*
X73622Y73970D01*
X73768Y74048D01*
X73896Y74153D01*
X74000Y74280D01*
X74078Y74426D01*
X74126Y74584D01*
X74142Y74748D01*
X74126Y74913D01*
X74078Y75071D01*
X74000Y75216D01*
X73896Y75344D01*
X73768Y75449D01*
X73622Y75527D01*
X73464Y75574D01*
X73300Y75591D01*
D02*
G37*
G36*
X56700Y74549D02*
X56597Y74535D01*
X56501Y74495D01*
X56418Y74432D01*
X56355Y74349D01*
X56315Y74253D01*
X56301Y74150D01*
X56315Y74047D01*
X56355Y73951D01*
X56418Y73868D01*
X56501Y73805D01*
X56597Y73765D01*
X56700Y73751D01*
X56803Y73765D01*
X56899Y73805D01*
X56982Y73868D01*
X57045Y73951D01*
X57085Y74047D01*
X57099Y74150D01*
X57085Y74253D01*
X57045Y74349D01*
X56982Y74432D01*
X56899Y74495D01*
X56803Y74535D01*
X56700Y74549D01*
D02*
G37*
G36*
X53700D02*
X53597Y74535D01*
X53501Y74495D01*
X53418Y74432D01*
X53355Y74349D01*
X53315Y74253D01*
X53301Y74150D01*
X53315Y74047D01*
X53355Y73951D01*
X53418Y73868D01*
X53501Y73805D01*
X53597Y73765D01*
X53700Y73751D01*
X53803Y73765D01*
X53899Y73805D01*
X53982Y73868D01*
X54045Y73951D01*
X54085Y74047D01*
X54099Y74150D01*
X54085Y74253D01*
X54045Y74349D01*
X53982Y74432D01*
X53899Y74495D01*
X53803Y74535D01*
X53700Y74549D01*
D02*
G37*
G36*
X68900Y73789D02*
X68812Y73778D01*
X68730Y73744D01*
X68660Y73690D01*
X68606Y73620D01*
X68572Y73538D01*
X68561Y73450D01*
X68572Y73362D01*
X68606Y73280D01*
X68660Y73210D01*
X68730Y73156D01*
X68812Y73122D01*
X68900Y73111D01*
X68988Y73122D01*
X69070Y73156D01*
X69140Y73210D01*
X69194Y73280D01*
X69228Y73362D01*
X69239Y73450D01*
X69228Y73538D01*
X69194Y73620D01*
X69140Y73690D01*
X69070Y73744D01*
X68988Y73778D01*
X68900Y73789D01*
D02*
G37*
G36*
X56700Y73549D02*
X56597Y73535D01*
X56501Y73495D01*
X56418Y73432D01*
X56355Y73349D01*
X56315Y73253D01*
X56301Y73150D01*
X56315Y73047D01*
X56355Y72951D01*
X56418Y72868D01*
X56490Y72813D01*
X56479Y72766D01*
X56477Y72763D01*
X54303D01*
X54066Y73000D01*
X54085Y73047D01*
X54099Y73150D01*
X54085Y73253D01*
X54045Y73349D01*
X53982Y73432D01*
X53899Y73495D01*
X53803Y73535D01*
X53700Y73549D01*
X53597Y73535D01*
X53501Y73495D01*
X53418Y73432D01*
X53355Y73349D01*
X53315Y73253D01*
X53301Y73150D01*
X53315Y73047D01*
X53355Y72951D01*
X53418Y72868D01*
X53501Y72805D01*
X53597Y72765D01*
X53700Y72751D01*
X53803Y72765D01*
X53850Y72784D01*
X54132Y72502D01*
X54181Y72469D01*
X54240Y72457D01*
X56305D01*
Y72303D01*
X54900D01*
X54841Y72291D01*
X54792Y72258D01*
X51435Y68901D01*
X51398Y68916D01*
X51300Y68929D01*
X51202Y68916D01*
X51111Y68878D01*
X51032Y68818D01*
X50972Y68739D01*
X50934Y68648D01*
X50921Y68550D01*
X50934Y68452D01*
X50972Y68361D01*
X51032Y68282D01*
X51111Y68222D01*
X51202Y68184D01*
X51300Y68171D01*
X51398Y68184D01*
X51489Y68222D01*
X51568Y68282D01*
X51628Y68361D01*
X51666Y68452D01*
X51679Y68550D01*
X51666Y68648D01*
X51651Y68685D01*
X54963Y71997D01*
X56305D01*
Y71755D01*
X57095D01*
Y72391D01*
X57145Y72411D01*
X59925Y69631D01*
X59906Y69585D01*
X59893Y69482D01*
X59906Y69378D01*
X59946Y69282D01*
X60009Y69200D01*
X60031Y69183D01*
X60014Y69133D01*
X54683D01*
X54151Y69665D01*
X54166Y69702D01*
X54179Y69800D01*
X54166Y69898D01*
X54128Y69989D01*
X54099Y70027D01*
X54124Y70077D01*
X57307D01*
X57449Y69935D01*
X57434Y69898D01*
X57421Y69800D01*
X57434Y69702D01*
X57472Y69611D01*
X57532Y69532D01*
X57611Y69472D01*
X57702Y69434D01*
X57800Y69421D01*
X57898Y69434D01*
X57989Y69472D01*
X58068Y69532D01*
X58128Y69611D01*
X58166Y69702D01*
X58179Y69800D01*
X58166Y69898D01*
X58128Y69989D01*
X58068Y70068D01*
X57989Y70128D01*
X57898Y70166D01*
X57800Y70179D01*
X57702Y70166D01*
X57665Y70151D01*
X57478Y70338D01*
X57429Y70371D01*
X57370Y70383D01*
X53600D01*
X53541Y70371D01*
X53492Y70338D01*
X53262Y70108D01*
X53229Y70059D01*
X53217Y70000D01*
Y67130D01*
X53223Y67101D01*
X53229Y67072D01*
X53229Y67072D01*
X53229Y67071D01*
X53245Y67047D01*
X53262Y67022D01*
X63087Y57157D01*
Y52886D01*
X62730D01*
X60158Y55458D01*
X60109Y55491D01*
X60050Y55503D01*
X58764D01*
X58745Y55549D01*
X58682Y55632D01*
X58599Y55695D01*
X58503Y55735D01*
X58400Y55749D01*
X58297Y55735D01*
X58201Y55695D01*
X58118Y55632D01*
X58055Y55549D01*
X58015Y55453D01*
X58001Y55350D01*
X58015Y55247D01*
X58034Y55200D01*
X54737Y51903D01*
X54614D01*
X54595Y51949D01*
X54532Y52032D01*
X54449Y52095D01*
X54353Y52135D01*
X54250Y52149D01*
X54147Y52135D01*
X54100Y52116D01*
X53858Y52358D01*
X53809Y52391D01*
X53750Y52403D01*
X51529D01*
X51512Y52453D01*
X51532Y52468D01*
X51595Y52551D01*
X51635Y52647D01*
X51649Y52750D01*
X51635Y52853D01*
X51595Y52949D01*
X51532Y53032D01*
X51449Y53095D01*
X51353Y53135D01*
X51250Y53149D01*
X51147Y53135D01*
X51051Y53095D01*
X50968Y53032D01*
X50905Y52949D01*
X50865Y52853D01*
X50851Y52750D01*
X50865Y52647D01*
X50905Y52551D01*
X50968Y52468D01*
X50988Y52453D01*
X50971Y52403D01*
X46513D01*
X45671Y53246D01*
X45678Y53262D01*
X45689Y53350D01*
X45678Y53438D01*
X45644Y53520D01*
X45590Y53590D01*
X45520Y53644D01*
X45438Y53678D01*
X45350Y53689D01*
X45262Y53678D01*
X45180Y53644D01*
X45110Y53590D01*
X45056Y53520D01*
X45022Y53438D01*
X45011Y53350D01*
X45022Y53262D01*
X45056Y53180D01*
X45110Y53110D01*
X45180Y53056D01*
X45262Y53022D01*
X45350Y53011D01*
X45438Y53022D01*
X45454Y53029D01*
X46342Y52142D01*
X46391Y52109D01*
X46450Y52097D01*
X50971D01*
X50988Y52047D01*
X50968Y52032D01*
X50905Y51949D01*
X50865Y51853D01*
X50851Y51750D01*
X50865Y51647D01*
X50884Y51600D01*
X50692Y51408D01*
X50659Y51359D01*
X50647Y51300D01*
Y45970D01*
X50659Y45911D01*
X50692Y45862D01*
X54332Y42222D01*
X54381Y42189D01*
X54440Y42177D01*
X58337D01*
X58888Y41625D01*
Y41335D01*
X58830Y41290D01*
X58816Y41273D01*
X58766D01*
X58753Y41290D01*
X58691Y41338D01*
X58619Y41368D01*
X58541Y41378D01*
X58464Y41368D01*
X58392Y41338D01*
X58330Y41290D01*
X58282Y41228D01*
X58252Y41156D01*
X58242Y41078D01*
Y41033D01*
X55123D01*
X54638Y41518D01*
X54589Y41551D01*
X54530Y41563D01*
X52700D01*
X52641Y41551D01*
X52592Y41518D01*
X52492Y41418D01*
X52459Y41369D01*
X52447Y41310D01*
Y41304D01*
X52388Y41259D01*
X52341Y41197D01*
X52311Y41124D01*
X52301Y41047D01*
Y40653D01*
X52311Y40576D01*
X52341Y40503D01*
X52388Y40441D01*
X52450Y40394D01*
X52523Y40364D01*
X52600Y40354D01*
X52677Y40364D01*
X52750Y40394D01*
X52812Y40441D01*
X52825Y40459D01*
X52875D01*
X52888Y40441D01*
X52950Y40394D01*
X53023Y40364D01*
X53100Y40354D01*
X53177Y40364D01*
X53250Y40394D01*
X53312Y40441D01*
X53325Y40459D01*
X53375D01*
X53388Y40441D01*
X53447Y40396D01*
Y40360D01*
X53459Y40301D01*
X53492Y40252D01*
X53592Y40152D01*
X53641Y40119D01*
X53700Y40107D01*
X59401D01*
X59460Y40119D01*
X59509Y40152D01*
X59649Y40292D01*
X59683Y40341D01*
X59694Y40400D01*
Y40428D01*
X59753Y40473D01*
X59801Y40535D01*
X59831Y40607D01*
X59841Y40685D01*
Y41078D01*
X59831Y41156D01*
X59801Y41228D01*
X59753Y41290D01*
X59691Y41338D01*
X59619Y41368D01*
X59541Y41378D01*
X59464Y41368D01*
X59392Y41338D01*
X59330Y41290D01*
X59316Y41273D01*
X59266D01*
X59253Y41290D01*
X59194Y41335D01*
Y41689D01*
X59183Y41747D01*
X59149Y41797D01*
X58508Y42438D01*
X58459Y42471D01*
X58400Y42483D01*
X54503D01*
X51380Y45606D01*
X51409Y45648D01*
X51443Y45634D01*
X51541Y45621D01*
X51639Y45634D01*
X51731Y45672D01*
X51809Y45732D01*
X51869Y45811D01*
X51907Y45902D01*
X51920Y46000D01*
X51907Y46098D01*
X51869Y46189D01*
X51809Y46268D01*
X51731Y46328D01*
X51639Y46366D01*
X51541Y46379D01*
X51443Y46366D01*
X51407Y46351D01*
X51263Y46495D01*
Y47377D01*
X51313Y47402D01*
X51352Y47372D01*
X51443Y47334D01*
X51541Y47321D01*
X51639Y47334D01*
X51731Y47372D01*
X51809Y47432D01*
X51869Y47511D01*
X51885Y47547D01*
X53110D01*
X53169Y47559D01*
X53218Y47592D01*
X58508Y52882D01*
X58541Y52931D01*
X58553Y52990D01*
Y53955D01*
X58795D01*
Y54745D01*
X58077D01*
X58058Y54791D01*
X58250Y54984D01*
X58297Y54965D01*
X58400Y54951D01*
X58503Y54965D01*
X58599Y55005D01*
X58682Y55068D01*
X58745Y55151D01*
X58764Y55197D01*
X59987D01*
X62514Y52670D01*
Y52214D01*
X63087D01*
Y51363D01*
X62737Y51013D01*
X60401D01*
X60343Y51001D01*
X60293Y50968D01*
X55676Y46351D01*
X55639Y46366D01*
X55541Y46379D01*
X55443Y46366D01*
X55352Y46328D01*
X55273Y46268D01*
X55213Y46189D01*
X55175Y46098D01*
X55163Y46000D01*
X55175Y45902D01*
X55213Y45811D01*
X55273Y45732D01*
X55352Y45672D01*
X55443Y45634D01*
X55541Y45621D01*
X55639Y45634D01*
X55731Y45672D01*
X55809Y45732D01*
X55869Y45811D01*
X55907Y45902D01*
X55920Y46000D01*
X55907Y46098D01*
X55892Y46135D01*
X60465Y50707D01*
X62800D01*
X62859Y50719D01*
X62908Y50752D01*
X63348Y51192D01*
X63381Y51241D01*
X63393Y51300D01*
Y57220D01*
X63387Y57249D01*
X63381Y57278D01*
X63381Y57278D01*
X63381Y57279D01*
X63365Y57303D01*
X63348Y57328D01*
X58850Y61845D01*
X58850Y61895D01*
X63124Y66149D01*
X63149Y66139D01*
X63240Y66127D01*
X63331Y66139D01*
X63417Y66174D01*
X63490Y66230D01*
X63546Y66303D01*
X63581Y66389D01*
X63593Y66480D01*
X63581Y66571D01*
X63546Y66657D01*
X63492Y66727D01*
X63492Y66732D01*
X63531Y66764D01*
X63569Y66749D01*
X63660Y66737D01*
X63751Y66749D01*
X63837Y66784D01*
X63910Y66840D01*
X63966Y66913D01*
X64001Y66999D01*
X64013Y67090D01*
X64001Y67181D01*
X63966Y67267D01*
X63910Y67340D01*
X63837Y67396D01*
X63751Y67431D01*
X63660Y67443D01*
X63569Y67431D01*
X63483Y67396D01*
X63410Y67340D01*
X63354Y67267D01*
X63345Y67243D01*
X56823D01*
X55651Y68415D01*
X55666Y68452D01*
X55679Y68550D01*
X55666Y68648D01*
X55628Y68739D01*
X55599Y68777D01*
X55624Y68827D01*
X60010D01*
X60027Y68777D01*
X60009Y68763D01*
X59946Y68681D01*
X59906Y68585D01*
X59893Y68481D01*
X59906Y68378D01*
X59946Y68282D01*
X60009Y68200D01*
X60092Y68136D01*
X60188Y68096D01*
X60291Y68083D01*
X60395Y68096D01*
X60491Y68136D01*
X60573Y68200D01*
X60637Y68282D01*
X60676Y68378D01*
X60690Y68481D01*
X60676Y68585D01*
X60637Y68681D01*
X60573Y68763D01*
X60555Y68777D01*
X60572Y68827D01*
X62729D01*
X62896Y68660D01*
Y68086D01*
X63687D01*
Y68877D01*
X63112D01*
X62901Y69088D01*
X62851Y69121D01*
X62793Y69133D01*
X60569D01*
X60552Y69183D01*
X60573Y69200D01*
X60637Y69282D01*
X60676Y69378D01*
X60690Y69482D01*
X60676Y69585D01*
X60637Y69681D01*
X60573Y69763D01*
X60491Y69827D01*
X60395Y69867D01*
X60291Y69880D01*
X60188Y69867D01*
X60142Y69847D01*
X57271Y72718D01*
X57221Y72751D01*
X57163Y72763D01*
X56923D01*
X56921Y72766D01*
X56910Y72813D01*
X56982Y72868D01*
X57045Y72951D01*
X57085Y73047D01*
X57099Y73150D01*
X57085Y73253D01*
X57045Y73349D01*
X56982Y73432D01*
X56899Y73495D01*
X56803Y73535D01*
X56700Y73549D01*
D02*
G37*
G36*
X53700Y72549D02*
X53597Y72535D01*
X53501Y72495D01*
X53418Y72432D01*
X53355Y72349D01*
X53315Y72253D01*
X53301Y72150D01*
X53315Y72047D01*
X53355Y71951D01*
X53418Y71868D01*
X53501Y71805D01*
X53597Y71765D01*
X53700Y71751D01*
X53803Y71765D01*
X53899Y71805D01*
X53982Y71868D01*
X54045Y71951D01*
X54085Y72047D01*
X54099Y72150D01*
X54085Y72253D01*
X54045Y72349D01*
X53982Y72432D01*
X53899Y72495D01*
X53803Y72535D01*
X53700Y72549D01*
D02*
G37*
G36*
X66700Y72079D02*
X66602Y72066D01*
X66511Y72028D01*
X66432Y71968D01*
X66372Y71889D01*
X66334Y71798D01*
X66321Y71700D01*
X66334Y71602D01*
X66372Y71511D01*
X66432Y71432D01*
X66511Y71372D01*
X66602Y71334D01*
X66700Y71321D01*
X66798Y71334D01*
X66889Y71372D01*
X66968Y71432D01*
X67028Y71511D01*
X67066Y71602D01*
X67079Y71700D01*
X67066Y71798D01*
X67028Y71889D01*
X66968Y71968D01*
X66889Y72028D01*
X66798Y72066D01*
X66700Y72079D01*
D02*
G37*
G36*
X63291Y71880D02*
X63188Y71867D01*
X63092Y71827D01*
X63009Y71763D01*
X62946Y71681D01*
X62906Y71585D01*
X62893Y71481D01*
X62906Y71378D01*
X62946Y71282D01*
X63009Y71200D01*
X63092Y71136D01*
X63188Y71096D01*
X63291Y71083D01*
X63395Y71096D01*
X63491Y71136D01*
X63573Y71200D01*
X63637Y71282D01*
X63676Y71378D01*
X63690Y71481D01*
X63676Y71585D01*
X63637Y71681D01*
X63573Y71763D01*
X63491Y71827D01*
X63395Y71867D01*
X63291Y71880D01*
D02*
G37*
G36*
X60291D02*
X60188Y71867D01*
X60092Y71827D01*
X60009Y71763D01*
X59946Y71681D01*
X59906Y71585D01*
X59893Y71481D01*
X59906Y71378D01*
X59946Y71282D01*
X60009Y71200D01*
X60092Y71136D01*
X60188Y71096D01*
X60291Y71083D01*
X60395Y71096D01*
X60491Y71136D01*
X60573Y71200D01*
X60637Y71282D01*
X60676Y71378D01*
X60690Y71481D01*
X60676Y71585D01*
X60637Y71681D01*
X60573Y71763D01*
X60491Y71827D01*
X60395Y71867D01*
X60291Y71880D01*
D02*
G37*
G36*
X43985Y71894D02*
X42997D01*
Y70906D01*
X43985D01*
Y71894D01*
D02*
G37*
G36*
X47609Y71898D02*
X47480Y71881D01*
X47360Y71831D01*
X47257Y71752D01*
X47178Y71649D01*
X47128Y71529D01*
X47111Y71400D01*
X47128Y71271D01*
X47168Y71175D01*
X46786Y70793D01*
X43320D01*
X43261Y70781D01*
X43212Y70748D01*
X42898Y70434D01*
X42865Y70385D01*
X42853Y70326D01*
Y68813D01*
X42757Y68773D01*
X42654Y68694D01*
X42575Y68591D01*
X42525Y68471D01*
X42508Y68342D01*
Y67358D01*
X42525Y67229D01*
X42575Y67109D01*
X42654Y67006D01*
X42757Y66927D01*
X42877Y66877D01*
X43006Y66860D01*
X43135Y66877D01*
X43255Y66927D01*
X43358Y67006D01*
X43438Y67109D01*
X43487Y67229D01*
X43504Y67358D01*
Y68342D01*
X43487Y68471D01*
X43438Y68591D01*
X43358Y68694D01*
X43255Y68773D01*
X43159Y68813D01*
Y70263D01*
X43383Y70487D01*
X46849D01*
X46908Y70499D01*
X46957Y70532D01*
X47384Y70959D01*
X47480Y70919D01*
X47609Y70902D01*
X47738Y70919D01*
X47858Y70969D01*
X47961Y71048D01*
X48040Y71151D01*
X48090Y71271D01*
X48107Y71400D01*
X48090Y71529D01*
X48040Y71649D01*
X47961Y71752D01*
X47858Y71831D01*
X47738Y71881D01*
X47609Y71898D01*
D02*
G37*
G36*
X63291Y70880D02*
X63188Y70867D01*
X63092Y70827D01*
X63009Y70763D01*
X62946Y70681D01*
X62906Y70585D01*
X62893Y70482D01*
X62906Y70378D01*
X62946Y70282D01*
X63009Y70200D01*
X63092Y70136D01*
X63188Y70096D01*
X63291Y70083D01*
X63395Y70096D01*
X63491Y70136D01*
X63573Y70200D01*
X63637Y70282D01*
X63676Y70378D01*
X63690Y70482D01*
X63676Y70585D01*
X63637Y70681D01*
X63573Y70763D01*
X63491Y70827D01*
X63395Y70867D01*
X63291Y70880D01*
D02*
G37*
G36*
X60291D02*
X60188Y70867D01*
X60092Y70827D01*
X60009Y70763D01*
X59946Y70681D01*
X59906Y70585D01*
X59893Y70482D01*
X59906Y70378D01*
X59946Y70282D01*
X60009Y70200D01*
X60092Y70136D01*
X60188Y70096D01*
X60291Y70083D01*
X60395Y70096D01*
X60491Y70136D01*
X60573Y70200D01*
X60637Y70282D01*
X60676Y70378D01*
X60690Y70482D01*
X60676Y70585D01*
X60637Y70681D01*
X60573Y70763D01*
X60491Y70827D01*
X60395Y70867D01*
X60291Y70880D01*
D02*
G37*
G36*
X69900Y70289D02*
X69812Y70278D01*
X69730Y70244D01*
X69660Y70190D01*
X69606Y70120D01*
X69599Y70103D01*
X63760D01*
X63701Y70091D01*
X63652Y70058D01*
X63441Y69847D01*
X63395Y69867D01*
X63291Y69880D01*
X63188Y69867D01*
X63092Y69827D01*
X63009Y69763D01*
X62946Y69681D01*
X62906Y69585D01*
X62893Y69482D01*
X62906Y69378D01*
X62946Y69282D01*
X63009Y69200D01*
X63092Y69136D01*
X63188Y69096D01*
X63291Y69083D01*
X63395Y69096D01*
X63491Y69136D01*
X63573Y69200D01*
X63637Y69282D01*
X63676Y69378D01*
X63690Y69482D01*
X63676Y69585D01*
X63657Y69631D01*
X63823Y69797D01*
X69599D01*
X69606Y69780D01*
X69660Y69710D01*
X69730Y69656D01*
X69812Y69622D01*
X69900Y69611D01*
X69988Y69622D01*
X70070Y69656D01*
X70140Y69710D01*
X70194Y69780D01*
X70228Y69862D01*
X70239Y69950D01*
X70228Y70038D01*
X70194Y70120D01*
X70140Y70190D01*
X70070Y70244D01*
X69988Y70278D01*
X69900Y70289D01*
D02*
G37*
G36*
X44660Y70316D02*
X43872D01*
X43744Y70299D01*
X43623Y70250D01*
X43520Y70171D01*
X43441Y70067D01*
X43391Y69947D01*
X43374Y69819D01*
X43391Y69690D01*
X43441Y69570D01*
X43520Y69466D01*
X43623Y69387D01*
X43744Y69338D01*
X43872Y69321D01*
X44660D01*
X44789Y69338D01*
X44909Y69387D01*
X45012Y69466D01*
X45091Y69570D01*
X45123Y69647D01*
X45177Y69654D01*
X45294Y69537D01*
Y68715D01*
X45198Y68675D01*
X45095Y68596D01*
X45016Y68493D01*
X44966Y68373D01*
X44949Y68244D01*
Y67456D01*
X44966Y67327D01*
X45016Y67207D01*
X45095Y67104D01*
X45198Y67025D01*
X45318Y66975D01*
X45447Y66958D01*
X45576Y66975D01*
X45696Y67025D01*
X45799Y67104D01*
X45878Y67207D01*
X45928Y67327D01*
X45945Y67456D01*
Y68244D01*
X45928Y68373D01*
X45878Y68493D01*
X45799Y68596D01*
X45696Y68675D01*
X45600Y68715D01*
Y69600D01*
X45589Y69659D01*
X45555Y69708D01*
X45337Y69927D01*
X45287Y69960D01*
X45229Y69971D01*
X45131D01*
X45091Y70067D01*
X45012Y70171D01*
X44909Y70250D01*
X44789Y70299D01*
X44660Y70316D01*
D02*
G37*
G36*
X69236Y66786D02*
X68564D01*
Y66114D01*
X69236D01*
Y66786D01*
D02*
G37*
G36*
X46800Y65079D02*
X46702Y65066D01*
X46611Y65028D01*
X46532Y64968D01*
X46472Y64889D01*
X46434Y64798D01*
X46421Y64700D01*
X46434Y64602D01*
X46472Y64511D01*
X46532Y64432D01*
X46611Y64372D01*
X46702Y64334D01*
X46800Y64321D01*
X46898Y64334D01*
X46989Y64372D01*
X47068Y64432D01*
X47128Y64511D01*
X47166Y64602D01*
X47179Y64700D01*
X47166Y64798D01*
X47128Y64889D01*
X47068Y64968D01*
X46989Y65028D01*
X46898Y65066D01*
X46800Y65079D01*
D02*
G37*
G36*
X43800D02*
X43702Y65066D01*
X43611Y65028D01*
X43532Y64968D01*
X43472Y64889D01*
X43434Y64798D01*
X43421Y64700D01*
X43434Y64602D01*
X43472Y64511D01*
X43532Y64432D01*
X43611Y64372D01*
X43702Y64334D01*
X43800Y64321D01*
X43898Y64334D01*
X43989Y64372D01*
X44068Y64432D01*
X44128Y64511D01*
X44166Y64602D01*
X44179Y64700D01*
X44166Y64798D01*
X44128Y64889D01*
X44068Y64968D01*
X43989Y65028D01*
X43898Y65066D01*
X43800Y65079D01*
D02*
G37*
G36*
X55890Y63263D02*
X55799Y63251D01*
X55713Y63216D01*
X55640Y63160D01*
X55584Y63087D01*
X55575Y63063D01*
X53460D01*
X53401Y63051D01*
X53352Y63018D01*
X52842Y62508D01*
X52809Y62459D01*
X52797Y62400D01*
Y61854D01*
X52738Y61809D01*
X52725Y61791D01*
X52675D01*
X52662Y61809D01*
X52600Y61856D01*
X52527Y61886D01*
X52450Y61896D01*
X52373Y61886D01*
X52300Y61856D01*
X52238Y61809D01*
X52225Y61791D01*
X52175D01*
X52162Y61809D01*
X52100Y61856D01*
X52027Y61886D01*
X51950Y61896D01*
X51873Y61886D01*
X51800Y61856D01*
X51738Y61809D01*
X51691Y61747D01*
X51661Y61674D01*
X51651Y61597D01*
Y61203D01*
X51661Y61126D01*
X51691Y61053D01*
X51738Y60991D01*
X51800Y60944D01*
X51873Y60914D01*
X51950Y60904D01*
X52027Y60914D01*
X52100Y60944D01*
X52162Y60991D01*
X52175Y61009D01*
X52225D01*
X52238Y60991D01*
X52300Y60944D01*
X52310Y60940D01*
X52342Y60892D01*
X52622Y60612D01*
X52671Y60579D01*
X52730Y60567D01*
X55640D01*
X55699Y60579D01*
X55748Y60612D01*
X56185Y61049D01*
X56209Y61039D01*
X56300Y61027D01*
X56391Y61039D01*
X56477Y61074D01*
X56550Y61130D01*
X56606Y61203D01*
X56641Y61289D01*
X56653Y61380D01*
X56641Y61471D01*
X56606Y61557D01*
X56550Y61630D01*
X56477Y61686D01*
X56391Y61721D01*
X56300Y61733D01*
X56209Y61721D01*
X56123Y61686D01*
X56050Y61630D01*
X55994Y61557D01*
X55959Y61471D01*
X55947Y61380D01*
X55959Y61289D01*
X55969Y61265D01*
X55577Y60873D01*
X53059D01*
X53049Y60923D01*
X53100Y60944D01*
X53162Y60991D01*
X53209Y61053D01*
X53239Y61126D01*
X53249Y61203D01*
Y61597D01*
X53239Y61674D01*
X53209Y61747D01*
X53162Y61809D01*
X53103Y61854D01*
Y62337D01*
X53523Y62757D01*
X55575D01*
X55584Y62733D01*
X55640Y62660D01*
X55713Y62604D01*
X55799Y62569D01*
X55890Y62557D01*
X55981Y62569D01*
X56067Y62604D01*
X56140Y62660D01*
X56196Y62733D01*
X56231Y62819D01*
X56243Y62910D01*
X56231Y63001D01*
X56196Y63087D01*
X56140Y63160D01*
X56067Y63216D01*
X55981Y63251D01*
X55890Y63263D01*
D02*
G37*
G36*
X73300Y62549D02*
X73197Y62535D01*
X73101Y62495D01*
X73018Y62432D01*
X72955Y62349D01*
X72915Y62253D01*
X72901Y62150D01*
X72915Y62047D01*
X72955Y61951D01*
X73018Y61868D01*
X73101Y61805D01*
X73197Y61765D01*
X73300Y61751D01*
X73403Y61765D01*
X73499Y61805D01*
X73582Y61868D01*
X73645Y61951D01*
X73685Y62047D01*
X73699Y62150D01*
X73685Y62253D01*
X73645Y62349D01*
X73582Y62432D01*
X73499Y62495D01*
X73403Y62535D01*
X73300Y62549D01*
D02*
G37*
G36*
X44200Y62454D02*
X44083Y62438D01*
X43973Y62393D01*
X43879Y62321D01*
X43807Y62227D01*
X43762Y62117D01*
X43746Y62000D01*
X43762Y61883D01*
X43807Y61773D01*
X43879Y61679D01*
X43973Y61607D01*
X44083Y61562D01*
X44200Y61546D01*
X44317Y61562D01*
X44427Y61607D01*
X44521Y61679D01*
X44593Y61773D01*
X44638Y61883D01*
X44654Y62000D01*
X44638Y62117D01*
X44593Y62227D01*
X44521Y62321D01*
X44427Y62393D01*
X44317Y62438D01*
X44200Y62454D01*
D02*
G37*
G36*
X73300Y61549D02*
X73197Y61535D01*
X73101Y61495D01*
X73018Y61432D01*
X72955Y61349D01*
X72915Y61253D01*
X72901Y61150D01*
X72915Y61047D01*
X72955Y60951D01*
X73018Y60868D01*
X73101Y60805D01*
X73197Y60765D01*
X73300Y60751D01*
X73403Y60765D01*
X73499Y60805D01*
X73582Y60868D01*
X73645Y60951D01*
X73685Y61047D01*
X73699Y61150D01*
X73685Y61253D01*
X73645Y61349D01*
X73582Y61432D01*
X73499Y61495D01*
X73403Y61535D01*
X73300Y61549D01*
D02*
G37*
G36*
X44200Y61454D02*
X44083Y61438D01*
X43973Y61393D01*
X43879Y61321D01*
X43807Y61227D01*
X43762Y61117D01*
X43746Y61000D01*
X43762Y60883D01*
X43807Y60773D01*
X43879Y60679D01*
X43973Y60607D01*
X44083Y60562D01*
X44200Y60546D01*
X44317Y60562D01*
X44427Y60607D01*
X44521Y60679D01*
X44593Y60773D01*
X44638Y60883D01*
X44654Y61000D01*
X44638Y61117D01*
X44593Y61227D01*
X44521Y61321D01*
X44427Y61393D01*
X44317Y61438D01*
X44200Y61454D01*
D02*
G37*
G36*
X73300Y60549D02*
X73197Y60535D01*
X73101Y60495D01*
X73018Y60432D01*
X72955Y60349D01*
X72915Y60253D01*
X72901Y60150D01*
X72915Y60047D01*
X72955Y59951D01*
X73018Y59868D01*
X73101Y59805D01*
X73197Y59765D01*
X73300Y59751D01*
X73403Y59765D01*
X73499Y59805D01*
X73582Y59868D01*
X73645Y59951D01*
X73685Y60047D01*
X73699Y60150D01*
X73685Y60253D01*
X73645Y60349D01*
X73582Y60432D01*
X73499Y60495D01*
X73403Y60535D01*
X73300Y60549D01*
D02*
G37*
G36*
Y59549D02*
X73197Y59535D01*
X73101Y59495D01*
X73018Y59432D01*
X72955Y59349D01*
X72915Y59253D01*
X72901Y59150D01*
X72915Y59047D01*
X72955Y58951D01*
X73018Y58868D01*
X73101Y58805D01*
X73197Y58765D01*
X73300Y58751D01*
X73403Y58765D01*
X73499Y58805D01*
X73582Y58868D01*
X73645Y58951D01*
X73685Y59047D01*
X73699Y59150D01*
X73685Y59253D01*
X73645Y59349D01*
X73582Y59432D01*
X73499Y59495D01*
X73403Y59535D01*
X73300Y59549D01*
D02*
G37*
G36*
Y58549D02*
X73197Y58535D01*
X73101Y58495D01*
X73018Y58432D01*
X72955Y58349D01*
X72915Y58253D01*
X72901Y58150D01*
X72915Y58047D01*
X72955Y57951D01*
X73018Y57868D01*
X73101Y57805D01*
X73197Y57765D01*
X73300Y57751D01*
X73403Y57765D01*
X73499Y57805D01*
X73582Y57868D01*
X73645Y57951D01*
X73685Y58047D01*
X73699Y58150D01*
X73685Y58253D01*
X73645Y58349D01*
X73582Y58432D01*
X73499Y58495D01*
X73403Y58535D01*
X73300Y58549D01*
D02*
G37*
G36*
X52950Y57646D02*
X52873Y57636D01*
X52800Y57606D01*
X52738Y57559D01*
X52725Y57541D01*
X52675D01*
X52662Y57559D01*
X52600Y57606D01*
X52527Y57636D01*
X52450Y57646D01*
X52373Y57636D01*
X52300Y57606D01*
X52238Y57559D01*
X52225Y57541D01*
X52175D01*
X52162Y57559D01*
X52100Y57606D01*
X52027Y57636D01*
X51950Y57646D01*
X51873Y57636D01*
X51800Y57606D01*
X51738Y57559D01*
X51691Y57497D01*
X51661Y57424D01*
X51651Y57347D01*
Y56953D01*
X51661Y56876D01*
X51691Y56803D01*
X51738Y56741D01*
X51800Y56694D01*
X51873Y56664D01*
X51950Y56654D01*
X52027Y56664D01*
X52100Y56694D01*
X52162Y56741D01*
X52175Y56759D01*
X52225D01*
X52238Y56741D01*
X52300Y56694D01*
X52373Y56664D01*
X52450Y56654D01*
X52527Y56664D01*
X52600Y56694D01*
X52662Y56741D01*
X52675Y56759D01*
X52725D01*
X52738Y56741D01*
X52800Y56694D01*
X52873Y56664D01*
X52950Y56654D01*
X53027Y56664D01*
X53100Y56694D01*
X53162Y56741D01*
X53209Y56803D01*
X53239Y56876D01*
X53249Y56953D01*
Y57347D01*
X53239Y57424D01*
X53209Y57497D01*
X53162Y57559D01*
X53100Y57606D01*
X53027Y57636D01*
X52950Y57646D01*
D02*
G37*
G36*
X58400Y57749D02*
X58297Y57735D01*
X58201Y57695D01*
X58118Y57632D01*
X58055Y57549D01*
X58015Y57453D01*
X58001Y57350D01*
X58015Y57247D01*
X58055Y57151D01*
X58118Y57068D01*
X58201Y57005D01*
X58297Y56965D01*
X58400Y56951D01*
X58503Y56965D01*
X58599Y57005D01*
X58682Y57068D01*
X58745Y57151D01*
X58785Y57247D01*
X58799Y57350D01*
X58785Y57453D01*
X58745Y57549D01*
X58682Y57632D01*
X58599Y57695D01*
X58503Y57735D01*
X58400Y57749D01*
D02*
G37*
G36*
X55400D02*
X55297Y57735D01*
X55201Y57695D01*
X55118Y57632D01*
X55055Y57549D01*
X55015Y57453D01*
X55001Y57350D01*
X55015Y57247D01*
X55055Y57151D01*
X55118Y57068D01*
X55201Y57005D01*
X55297Y56965D01*
X55400Y56951D01*
X55503Y56965D01*
X55599Y57005D01*
X55682Y57068D01*
X55745Y57151D01*
X55785Y57247D01*
X55799Y57350D01*
X55785Y57453D01*
X55745Y57549D01*
X55682Y57632D01*
X55599Y57695D01*
X55503Y57735D01*
X55400Y57749D01*
D02*
G37*
G36*
X73300Y57549D02*
X73197Y57535D01*
X73101Y57495D01*
X73018Y57432D01*
X72955Y57349D01*
X72915Y57253D01*
X72901Y57150D01*
X72915Y57047D01*
X72955Y56951D01*
X73018Y56868D01*
X73101Y56805D01*
X73197Y56765D01*
X73300Y56751D01*
X73403Y56765D01*
X73499Y56805D01*
X73582Y56868D01*
X73645Y56951D01*
X73685Y57047D01*
X73699Y57150D01*
X73685Y57253D01*
X73645Y57349D01*
X73582Y57432D01*
X73499Y57495D01*
X73403Y57535D01*
X73300Y57549D01*
D02*
G37*
G36*
X45686Y56686D02*
X45014D01*
Y56014D01*
X45686D01*
Y56686D01*
D02*
G37*
G36*
X58400Y56749D02*
X58297Y56735D01*
X58201Y56695D01*
X58118Y56632D01*
X58055Y56549D01*
X58015Y56453D01*
X58001Y56350D01*
X58015Y56247D01*
X58055Y56151D01*
X58118Y56068D01*
X58201Y56005D01*
X58297Y55965D01*
X58400Y55951D01*
X58503Y55965D01*
X58599Y56005D01*
X58682Y56068D01*
X58745Y56151D01*
X58785Y56247D01*
X58799Y56350D01*
X58785Y56453D01*
X58745Y56549D01*
X58682Y56632D01*
X58599Y56695D01*
X58503Y56735D01*
X58400Y56749D01*
D02*
G37*
G36*
X55400D02*
X55297Y56735D01*
X55201Y56695D01*
X55118Y56632D01*
X55055Y56549D01*
X55015Y56453D01*
X55001Y56350D01*
X55015Y56247D01*
X55055Y56151D01*
X55118Y56068D01*
X55201Y56005D01*
X55297Y55965D01*
X55400Y55951D01*
X55503Y55965D01*
X55599Y56005D01*
X55682Y56068D01*
X55745Y56151D01*
X55785Y56247D01*
X55799Y56350D01*
X55785Y56453D01*
X55745Y56549D01*
X55682Y56632D01*
X55599Y56695D01*
X55503Y56735D01*
X55400Y56749D01*
D02*
G37*
G36*
X73300Y56549D02*
X73197Y56535D01*
X73101Y56495D01*
X73018Y56432D01*
X72955Y56349D01*
X72915Y56253D01*
X72901Y56150D01*
X72915Y56047D01*
X72955Y55951D01*
X73018Y55868D01*
X73101Y55805D01*
X73197Y55765D01*
X73300Y55751D01*
X73403Y55765D01*
X73499Y55805D01*
X73582Y55868D01*
X73645Y55951D01*
X73685Y56047D01*
X73699Y56150D01*
X73685Y56253D01*
X73645Y56349D01*
X73582Y56432D01*
X73499Y56495D01*
X73403Y56535D01*
X73300Y56549D01*
D02*
G37*
G36*
X55400Y55749D02*
X55297Y55735D01*
X55201Y55695D01*
X55118Y55632D01*
X55055Y55549D01*
X55015Y55453D01*
X55001Y55350D01*
X55015Y55247D01*
X55055Y55151D01*
X55118Y55068D01*
X55201Y55005D01*
X55297Y54965D01*
X55400Y54951D01*
X55503Y54965D01*
X55599Y55005D01*
X55682Y55068D01*
X55745Y55151D01*
X55785Y55247D01*
X55799Y55350D01*
X55785Y55453D01*
X55745Y55549D01*
X55682Y55632D01*
X55599Y55695D01*
X55503Y55735D01*
X55400Y55749D01*
D02*
G37*
G36*
X73300Y55549D02*
X73197Y55535D01*
X73101Y55495D01*
X73018Y55432D01*
X72955Y55349D01*
X72915Y55253D01*
X72901Y55150D01*
X72915Y55047D01*
X72955Y54951D01*
X73018Y54868D01*
X73101Y54805D01*
X73197Y54765D01*
X73300Y54751D01*
X73403Y54765D01*
X73499Y54805D01*
X73582Y54868D01*
X73645Y54951D01*
X73685Y55047D01*
X73699Y55150D01*
X73685Y55253D01*
X73645Y55349D01*
X73582Y55432D01*
X73499Y55495D01*
X73403Y55535D01*
X73300Y55549D01*
D02*
G37*
G36*
X55400Y54749D02*
X55297Y54735D01*
X55201Y54695D01*
X55118Y54632D01*
X55055Y54549D01*
X55015Y54453D01*
X55001Y54350D01*
X55015Y54247D01*
X55055Y54151D01*
X55118Y54068D01*
X55201Y54005D01*
X55297Y53965D01*
X55400Y53951D01*
X55503Y53965D01*
X55599Y54005D01*
X55682Y54068D01*
X55745Y54151D01*
X55785Y54247D01*
X55799Y54350D01*
X55785Y54453D01*
X55745Y54549D01*
X55682Y54632D01*
X55599Y54695D01*
X55503Y54735D01*
X55400Y54749D01*
D02*
G37*
G36*
X73300Y54549D02*
X73197Y54535D01*
X73101Y54495D01*
X73018Y54432D01*
X72955Y54349D01*
X72915Y54253D01*
X72901Y54150D01*
X72915Y54047D01*
X72955Y53951D01*
X73018Y53868D01*
X73101Y53805D01*
X73197Y53765D01*
X73300Y53751D01*
X73403Y53765D01*
X73499Y53805D01*
X73582Y53868D01*
X73645Y53951D01*
X73685Y54047D01*
X73699Y54150D01*
X73685Y54253D01*
X73645Y54349D01*
X73582Y54432D01*
X73499Y54495D01*
X73403Y54535D01*
X73300Y54549D01*
D02*
G37*
G36*
X54250Y54149D02*
X54147Y54135D01*
X54051Y54095D01*
X53968Y54032D01*
X53905Y53949D01*
X53865Y53853D01*
X53851Y53750D01*
X53865Y53647D01*
X53905Y53551D01*
X53968Y53468D01*
X54051Y53405D01*
X54147Y53365D01*
X54250Y53351D01*
X54353Y53365D01*
X54449Y53405D01*
X54532Y53468D01*
X54595Y53551D01*
X54635Y53647D01*
X54649Y53750D01*
X54635Y53853D01*
X54595Y53949D01*
X54532Y54032D01*
X54449Y54095D01*
X54353Y54135D01*
X54250Y54149D01*
D02*
G37*
G36*
X51250D02*
X51147Y54135D01*
X51051Y54095D01*
X50968Y54032D01*
X50905Y53949D01*
X50865Y53853D01*
X50851Y53750D01*
X50865Y53647D01*
X50905Y53551D01*
X50968Y53468D01*
X51051Y53405D01*
X51147Y53365D01*
X51250Y53351D01*
X51353Y53365D01*
X51449Y53405D01*
X51532Y53468D01*
X51595Y53551D01*
X51635Y53647D01*
X51649Y53750D01*
X51635Y53853D01*
X51595Y53949D01*
X51532Y54032D01*
X51449Y54095D01*
X51353Y54135D01*
X51250Y54149D01*
D02*
G37*
G36*
X73300Y53549D02*
X73197Y53535D01*
X73101Y53495D01*
X73018Y53432D01*
X72955Y53349D01*
X72915Y53253D01*
X72901Y53150D01*
X72915Y53047D01*
X72955Y52951D01*
X73018Y52868D01*
X73101Y52805D01*
X73197Y52765D01*
X73300Y52751D01*
X73403Y52765D01*
X73499Y52805D01*
X73582Y52868D01*
X73645Y52951D01*
X73685Y53047D01*
X73699Y53150D01*
X73685Y53253D01*
X73645Y53349D01*
X73582Y53432D01*
X73499Y53495D01*
X73403Y53535D01*
X73300Y53549D01*
D02*
G37*
G36*
X54250Y53149D02*
X54147Y53135D01*
X54051Y53095D01*
X53968Y53032D01*
X53905Y52949D01*
X53865Y52853D01*
X53851Y52750D01*
X53865Y52647D01*
X53905Y52551D01*
X53968Y52468D01*
X54051Y52405D01*
X54147Y52365D01*
X54250Y52351D01*
X54353Y52365D01*
X54449Y52405D01*
X54532Y52468D01*
X54595Y52551D01*
X54635Y52647D01*
X54649Y52750D01*
X54635Y52853D01*
X54595Y52949D01*
X54532Y53032D01*
X54449Y53095D01*
X54353Y53135D01*
X54250Y53149D01*
D02*
G37*
G36*
X73300Y52549D02*
X73197Y52535D01*
X73101Y52495D01*
X73018Y52432D01*
X72955Y52349D01*
X72915Y52253D01*
X72901Y52150D01*
X72915Y52047D01*
X72955Y51951D01*
X73018Y51868D01*
X73101Y51805D01*
X73197Y51765D01*
X73300Y51751D01*
X73403Y51765D01*
X73499Y51805D01*
X73582Y51868D01*
X73645Y51951D01*
X73685Y52047D01*
X73699Y52150D01*
X73685Y52253D01*
X73645Y52349D01*
X73582Y52432D01*
X73499Y52495D01*
X73403Y52535D01*
X73300Y52549D01*
D02*
G37*
G36*
Y51549D02*
X73197Y51535D01*
X73101Y51495D01*
X73018Y51432D01*
X72955Y51349D01*
X72915Y51253D01*
X72901Y51150D01*
X72915Y51047D01*
X72955Y50951D01*
X73018Y50868D01*
X73101Y50805D01*
X73197Y50765D01*
X73300Y50751D01*
X73403Y50765D01*
X73499Y50805D01*
X73582Y50868D01*
X73645Y50951D01*
X73685Y51047D01*
X73699Y51150D01*
X73685Y51253D01*
X73645Y51349D01*
X73582Y51432D01*
X73499Y51495D01*
X73403Y51535D01*
X73300Y51549D01*
D02*
G37*
G36*
Y50549D02*
X73197Y50535D01*
X73101Y50495D01*
X73018Y50432D01*
X72955Y50349D01*
X72915Y50253D01*
X72901Y50150D01*
X72915Y50047D01*
X72955Y49951D01*
X73018Y49868D01*
X73101Y49805D01*
X73197Y49765D01*
X73300Y49751D01*
X73403Y49765D01*
X73499Y49805D01*
X73582Y49868D01*
X73645Y49951D01*
X73685Y50047D01*
X73699Y50150D01*
X73685Y50253D01*
X73645Y50349D01*
X73582Y50432D01*
X73499Y50495D01*
X73403Y50535D01*
X73300Y50549D01*
D02*
G37*
G36*
X45486Y50036D02*
X44814D01*
Y49364D01*
X45486D01*
Y50036D01*
D02*
G37*
G36*
X73300Y49549D02*
X73197Y49535D01*
X73101Y49495D01*
X73018Y49432D01*
X72955Y49349D01*
X72915Y49253D01*
X72901Y49150D01*
X72915Y49047D01*
X72955Y48951D01*
X73018Y48868D01*
X73101Y48805D01*
X73197Y48765D01*
X73300Y48751D01*
X73403Y48765D01*
X73499Y48805D01*
X73582Y48868D01*
X73645Y48951D01*
X73685Y49047D01*
X73699Y49150D01*
X73685Y49253D01*
X73645Y49349D01*
X73582Y49432D01*
X73499Y49495D01*
X73403Y49535D01*
X73300Y49549D01*
D02*
G37*
G36*
X61850Y49389D02*
X61762Y49378D01*
X61680Y49344D01*
X61610Y49290D01*
X61556Y49220D01*
X61522Y49138D01*
X61511Y49050D01*
X61522Y48962D01*
X61556Y48880D01*
X61610Y48810D01*
X61680Y48756D01*
X61762Y48722D01*
X61850Y48711D01*
X61938Y48722D01*
X62020Y48756D01*
X62090Y48810D01*
X62144Y48880D01*
X62178Y48962D01*
X62189Y49050D01*
X62178Y49138D01*
X62144Y49220D01*
X62090Y49290D01*
X62020Y49344D01*
X61938Y49378D01*
X61850Y49389D01*
D02*
G37*
G36*
X73300Y48549D02*
X73197Y48535D01*
X73101Y48495D01*
X73018Y48432D01*
X72955Y48349D01*
X72915Y48253D01*
X72901Y48150D01*
X72915Y48047D01*
X72955Y47951D01*
X73018Y47868D01*
X73101Y47805D01*
X73197Y47765D01*
X73300Y47751D01*
X73403Y47765D01*
X73499Y47805D01*
X73582Y47868D01*
X73645Y47951D01*
X73685Y48047D01*
X73699Y48150D01*
X73685Y48253D01*
X73645Y48349D01*
X73582Y48432D01*
X73499Y48495D01*
X73403Y48535D01*
X73300Y48549D01*
D02*
G37*
G36*
X55541Y48079D02*
X55443Y48066D01*
X55352Y48028D01*
X55273Y47968D01*
X55213Y47889D01*
X55175Y47798D01*
X55163Y47700D01*
X55175Y47602D01*
X55213Y47511D01*
X55273Y47432D01*
X55352Y47372D01*
X55443Y47334D01*
X55541Y47321D01*
X55639Y47334D01*
X55731Y47372D01*
X55809Y47432D01*
X55869Y47511D01*
X55907Y47602D01*
X55920Y47700D01*
X55907Y47798D01*
X55869Y47889D01*
X55809Y47968D01*
X55731Y48028D01*
X55639Y48066D01*
X55541Y48079D01*
D02*
G37*
G36*
X73300Y47549D02*
X73197Y47535D01*
X73101Y47495D01*
X73018Y47432D01*
X72955Y47349D01*
X72915Y47253D01*
X72901Y47150D01*
X72915Y47047D01*
X72955Y46951D01*
X73018Y46868D01*
X73101Y46805D01*
X73197Y46765D01*
X73300Y46751D01*
X73403Y46765D01*
X73499Y46805D01*
X73582Y46868D01*
X73645Y46951D01*
X73685Y47047D01*
X73699Y47150D01*
X73685Y47253D01*
X73645Y47349D01*
X73582Y47432D01*
X73499Y47495D01*
X73403Y47535D01*
X73300Y47549D01*
D02*
G37*
G36*
X45150Y47039D02*
X45062Y47028D01*
X44980Y46994D01*
X44910Y46940D01*
X44856Y46870D01*
X44822Y46788D01*
X44811Y46700D01*
X44822Y46612D01*
X44856Y46530D01*
X44910Y46460D01*
X44980Y46406D01*
X45062Y46372D01*
X45150Y46361D01*
X45238Y46372D01*
X45320Y46406D01*
X45390Y46460D01*
X45444Y46530D01*
X45478Y46612D01*
X45489Y46700D01*
X45478Y46788D01*
X45444Y46870D01*
X45390Y46940D01*
X45320Y46994D01*
X45238Y47028D01*
X45150Y47039D01*
D02*
G37*
G36*
X62850Y45889D02*
X62762Y45878D01*
X62680Y45844D01*
X62610Y45790D01*
X62556Y45720D01*
X62522Y45638D01*
X62511Y45550D01*
X62522Y45462D01*
X62556Y45380D01*
X62610Y45310D01*
X62680Y45256D01*
X62762Y45222D01*
X62850Y45211D01*
X62938Y45222D01*
X63020Y45256D01*
X63090Y45310D01*
X63144Y45380D01*
X63178Y45462D01*
X63189Y45550D01*
X63178Y45638D01*
X63144Y45720D01*
X63090Y45790D01*
X63020Y45844D01*
X62938Y45878D01*
X62850Y45889D01*
D02*
G37*
G36*
X85505Y46063D02*
X85340Y46047D01*
X85182Y45999D01*
X85037Y45921D01*
X84909Y45816D01*
X84804Y45689D01*
X84727Y45543D01*
X84679Y45385D01*
X84662Y45221D01*
X84679Y45057D01*
X84727Y44899D01*
X84804Y44753D01*
X84909Y44625D01*
X85037Y44521D01*
X85182Y44443D01*
X85340Y44395D01*
X85505Y44379D01*
X85669Y44395D01*
X85827Y44443D01*
X85973Y44521D01*
X86100Y44625D01*
X86205Y44753D01*
X86283Y44899D01*
X86331Y45057D01*
X86347Y45221D01*
X86331Y45385D01*
X86283Y45543D01*
X86205Y45689D01*
X86100Y45816D01*
X85973Y45921D01*
X85827Y45999D01*
X85669Y46047D01*
X85505Y46063D01*
D02*
G37*
G36*
X73300D02*
X73136Y46047D01*
X72978Y45999D01*
X72832Y45921D01*
X72704Y45816D01*
X72600Y45689D01*
X72522Y45543D01*
X72474Y45385D01*
X72458Y45221D01*
X72474Y45057D01*
X72522Y44899D01*
X72600Y44753D01*
X72704Y44625D01*
X72832Y44521D01*
X72978Y44443D01*
X73136Y44395D01*
X73300Y44379D01*
X73464Y44395D01*
X73622Y44443D01*
X73768Y44521D01*
X73896Y44625D01*
X74000Y44753D01*
X74078Y44899D01*
X74126Y45057D01*
X74142Y45221D01*
X74126Y45385D01*
X74078Y45543D01*
X74000Y45689D01*
X73896Y45816D01*
X73768Y45921D01*
X73622Y45999D01*
X73464Y46047D01*
X73300Y46063D01*
D02*
G37*
G36*
X84646Y42083D02*
X84501Y42068D01*
X84361Y42026D01*
X84232Y41957D01*
X84119Y41865D01*
X84027Y41752D01*
X83958Y41623D01*
X83916Y41484D01*
X83902Y41339D01*
X83916Y41193D01*
X83958Y41054D01*
X84027Y40925D01*
X84119Y40812D01*
X84232Y40720D01*
X84361Y40651D01*
X84501Y40609D01*
X84646Y40594D01*
X84791Y40609D01*
X84930Y40651D01*
X85059Y40720D01*
X85172Y40812D01*
X85264Y40925D01*
X85333Y41054D01*
X85375Y41193D01*
X85390Y41339D01*
X85375Y41484D01*
X85333Y41623D01*
X85264Y41752D01*
X85172Y41865D01*
X85059Y41957D01*
X84930Y42026D01*
X84791Y42068D01*
X84646Y42083D01*
D02*
G37*
G36*
X41339D02*
X41193Y42068D01*
X41054Y42026D01*
X40925Y41957D01*
X40812Y41865D01*
X40720Y41752D01*
X40651Y41623D01*
X40609Y41484D01*
X40594Y41339D01*
X40609Y41193D01*
X40651Y41054D01*
X40720Y40925D01*
X40812Y40812D01*
X40925Y40720D01*
X41054Y40651D01*
X41193Y40609D01*
X41339Y40594D01*
X41484Y40609D01*
X41623Y40651D01*
X41752Y40720D01*
X41865Y40812D01*
X41957Y40925D01*
X42026Y41054D01*
X42068Y41193D01*
X42083Y41339D01*
X42068Y41484D01*
X42026Y41623D01*
X41957Y41752D01*
X41865Y41865D01*
X41752Y41957D01*
X41623Y42026D01*
X41484Y42068D01*
X41339Y42083D01*
D02*
G37*
%LPD*%
G36*
X84759Y77196D02*
X84865Y77152D01*
X84956Y77082D01*
X85026Y76991D01*
X85070Y76885D01*
X85085Y76772D01*
X85070Y76658D01*
X85026Y76552D01*
X84956Y76461D01*
X84865Y76391D01*
X84759Y76347D01*
X84646Y76332D01*
X84532Y76347D01*
X84426Y76391D01*
X84335Y76461D01*
X84265Y76552D01*
X84221Y76658D01*
X84206Y76772D01*
X84221Y76885D01*
X84265Y76991D01*
X84335Y77082D01*
X84426Y77152D01*
X84532Y77196D01*
X84646Y77211D01*
X84759Y77196D01*
D02*
G37*
G36*
X41452D02*
X41558Y77152D01*
X41649Y77082D01*
X41719Y76991D01*
X41763Y76885D01*
X41778Y76772D01*
X41763Y76658D01*
X41719Y76552D01*
X41649Y76461D01*
X41558Y76391D01*
X41452Y76347D01*
X41339Y76332D01*
X41225Y76347D01*
X41119Y76391D01*
X41028Y76461D01*
X40958Y76552D01*
X40914Y76658D01*
X40899Y76772D01*
X40914Y76885D01*
X40958Y76991D01*
X41028Y77082D01*
X41119Y77152D01*
X41225Y77196D01*
X41339Y77211D01*
X41452Y77196D01*
D02*
G37*
G36*
X53611Y69472D02*
X53702Y69434D01*
X53800Y69421D01*
X53898Y69434D01*
X53935Y69449D01*
X54512Y68872D01*
X54561Y68839D01*
X54620Y68827D01*
X54976D01*
X55001Y68777D01*
X54972Y68739D01*
X54934Y68648D01*
X54921Y68550D01*
X54934Y68452D01*
X54972Y68361D01*
X55032Y68282D01*
X55111Y68222D01*
X55202Y68184D01*
X55300Y68171D01*
X55398Y68184D01*
X55435Y68199D01*
X56652Y66982D01*
X56701Y66949D01*
X56760Y66937D01*
X63345D01*
X63354Y66913D01*
X63408Y66843D01*
X63408Y66838D01*
X63369Y66806D01*
X63331Y66821D01*
X63240Y66833D01*
X63149Y66821D01*
X63063Y66786D01*
X62990Y66730D01*
X62934Y66657D01*
X62899Y66571D01*
X62887Y66480D01*
X62899Y66389D01*
X62908Y66366D01*
X58620Y62097D01*
X53523Y67193D01*
Y69476D01*
X53573Y69501D01*
X53611Y69472D01*
D02*
G37*
G36*
X58005Y54673D02*
Y53955D01*
X58247D01*
Y53053D01*
X53047Y47853D01*
X51885D01*
X51869Y47889D01*
X51809Y47968D01*
X51731Y48028D01*
X51639Y48066D01*
X51541Y48079D01*
X51443Y48066D01*
X51352Y48028D01*
X51313Y47998D01*
X51270Y48019D01*
X51265Y48069D01*
X53793Y50597D01*
X53855D01*
Y50355D01*
X54645D01*
Y51145D01*
X53855D01*
Y50903D01*
X53730D01*
X53671Y50891D01*
X53622Y50858D01*
X51003Y48239D01*
X50998Y48239D01*
X50953Y48255D01*
Y50417D01*
X51003Y50441D01*
X51051Y50405D01*
X51147Y50365D01*
X51250Y50351D01*
X51353Y50365D01*
X51449Y50405D01*
X51532Y50468D01*
X51595Y50551D01*
X51635Y50647D01*
X51649Y50750D01*
X51635Y50853D01*
X51595Y50949D01*
X51532Y51032D01*
X51449Y51095D01*
X51353Y51135D01*
X51250Y51149D01*
X51147Y51135D01*
X51051Y51095D01*
X51003Y51059D01*
X50953Y51083D01*
Y51237D01*
X51100Y51384D01*
X51147Y51365D01*
X51250Y51351D01*
X51353Y51365D01*
X51449Y51405D01*
X51532Y51468D01*
X51595Y51551D01*
X51635Y51647D01*
X51649Y51750D01*
X51635Y51853D01*
X51595Y51949D01*
X51532Y52032D01*
X51512Y52047D01*
X51529Y52097D01*
X53687D01*
X53884Y51900D01*
X53865Y51853D01*
X53851Y51750D01*
X53865Y51647D01*
X53905Y51551D01*
X53968Y51468D01*
X54051Y51405D01*
X54147Y51365D01*
X54250Y51351D01*
X54353Y51365D01*
X54449Y51405D01*
X54532Y51468D01*
X54595Y51551D01*
X54614Y51597D01*
X54800D01*
X54859Y51609D01*
X54908Y51642D01*
X57959Y54692D01*
X58005Y54673D01*
D02*
G37*
G36*
X54952Y40772D02*
X55001Y40739D01*
X55060Y40727D01*
X58242D01*
Y40685D01*
X58252Y40607D01*
X58282Y40535D01*
X58330Y40473D01*
X58343Y40463D01*
X58326Y40413D01*
X53853D01*
X53828Y40463D01*
X53859Y40503D01*
X53889Y40576D01*
X53899Y40653D01*
Y41047D01*
X53889Y41124D01*
X53859Y41197D01*
X53847Y41212D01*
X53869Y41257D01*
X54467D01*
X54952Y40772D01*
D02*
G37*
G36*
X84759Y41763D02*
X84865Y41719D01*
X84956Y41649D01*
X85026Y41558D01*
X85070Y41452D01*
X85085Y41339D01*
X85070Y41225D01*
X85026Y41119D01*
X84956Y41028D01*
X84865Y40958D01*
X84759Y40914D01*
X84646Y40899D01*
X84532Y40914D01*
X84426Y40958D01*
X84335Y41028D01*
X84265Y41119D01*
X84221Y41225D01*
X84206Y41339D01*
X84221Y41452D01*
X84265Y41558D01*
X84335Y41649D01*
X84426Y41719D01*
X84532Y41763D01*
X84646Y41778D01*
X84759Y41763D01*
D02*
G37*
G36*
X41452D02*
X41558Y41719D01*
X41649Y41649D01*
X41719Y41558D01*
X41763Y41452D01*
X41778Y41339D01*
X41763Y41225D01*
X41719Y41119D01*
X41649Y41028D01*
X41558Y40958D01*
X41452Y40914D01*
X41339Y40899D01*
X41225Y40914D01*
X41119Y40958D01*
X41028Y41028D01*
X40958Y41119D01*
X40914Y41225D01*
X40899Y41339D01*
X40914Y41452D01*
X40958Y41558D01*
X41028Y41649D01*
X41119Y41719D01*
X41225Y41763D01*
X41339Y41778D01*
X41452Y41763D01*
D02*
G37*
D15*
X45447Y68244D02*
Y69600D01*
Y67850D02*
Y68244D01*
X44660Y69819D02*
X45229D01*
X44266D02*
X44448D01*
X55060Y40880D02*
X58541D01*
X43006Y68342D02*
Y70326D01*
Y67850D02*
Y68342D01*
X57370Y70230D02*
X57800Y69800D01*
X53600Y70230D02*
X57370D01*
X53370Y67130D02*
Y70000D01*
Y67130D02*
X58619Y61881D01*
X63240Y66480D01*
X53370Y70000D02*
X53600Y70230D01*
X53370Y67130D02*
X63240Y57220D01*
Y51300D02*
Y57220D01*
X62800Y50860D02*
X63240Y51300D01*
X60401Y50860D02*
X62800D01*
X55541Y46000D02*
X60401Y50860D01*
X56760Y67090D02*
X63660D01*
X55300Y68550D02*
X56760Y67090D01*
X51300Y68550D02*
X54900Y72150D01*
X56700D01*
X55640Y60720D02*
X56300Y61380D01*
X52730Y60720D02*
X55640D01*
X52450Y61000D02*
X52730Y60720D01*
X52450Y61000D02*
Y61400D01*
X58400Y55350D02*
X60050D01*
X62850Y52550D01*
X63760Y69950D02*
X69900D01*
X63291Y69482D02*
X63760Y69950D01*
X53750Y52250D02*
X54250Y51750D01*
X46450Y52250D02*
X53750D01*
X45350Y53350D02*
X46450Y52250D01*
X44448Y69819D02*
X44660D01*
X43872D02*
X44266D01*
X43006Y70326D02*
X43320Y70640D01*
X46849D01*
X47609Y71400D01*
X59041Y40882D02*
Y41689D01*
X58400Y42330D02*
X59041Y41689D01*
X54440Y42330D02*
X58400D01*
X50800Y45970D02*
X54440Y42330D01*
X50800Y45970D02*
Y51300D01*
X51250Y51750D01*
X51541Y47700D02*
X53110D01*
X58400Y52990D01*
Y54350D01*
X53460Y62910D02*
X55890D01*
X52950Y62400D02*
X53460Y62910D01*
X52950Y61400D02*
Y62400D01*
X53730Y50750D02*
X54250D01*
X51110Y48130D02*
X53730Y50750D01*
X51110Y46431D02*
Y48130D01*
Y46431D02*
X51541Y46000D01*
X57163Y72610D02*
X60291Y69482D01*
X54240Y72610D02*
X57163D01*
X53700Y73150D02*
X54240Y72610D01*
X58541Y40880D02*
Y40882D01*
X54530Y41410D02*
X55060Y40880D01*
X52700Y41410D02*
X54530D01*
X52600Y41310D02*
X52700Y41410D01*
X52600Y40850D02*
Y41310D01*
X45229Y69819D02*
X45447Y69600D01*
X54250Y51750D02*
X54800D01*
X58400Y55350D01*
X53800Y69800D02*
X54620Y68980D01*
X62793D01*
X63291Y68481D01*
X59541Y40400D02*
Y40882D01*
X59401Y40260D02*
X59541Y40400D01*
X53700Y40260D02*
X59401D01*
X53600Y40360D02*
X53700Y40260D01*
X53600Y40360D02*
Y40850D01*
D16*
X66700Y71700D02*
D03*
Y76700D02*
D03*
X51541Y46000D02*
D03*
X55541D02*
D03*
X51541Y47700D02*
D03*
X55541D02*
D03*
X51300Y68550D02*
D03*
X55300D02*
D03*
X53800Y69800D02*
D03*
X57800D02*
D03*
X46800Y64700D02*
D03*
X43800D02*
D03*
D17*
X69900Y69950D02*
D03*
X68900Y73450D02*
D03*
X61850Y49050D02*
D03*
X62850Y45550D02*
D03*
X45150Y46700D02*
D03*
X45350Y53350D02*
D03*
D18*
X68900Y66450D02*
D03*
X62850Y52550D02*
D03*
X45150Y49700D02*
D03*
X45350Y56350D02*
D03*
D19*
X73300Y74748D02*
D03*
X85505D02*
D03*
Y45221D02*
D03*
X73300D02*
D03*
D20*
Y62150D02*
D03*
Y61150D02*
D03*
Y60150D02*
D03*
Y59150D02*
D03*
Y58150D02*
D03*
Y57150D02*
D03*
Y56150D02*
D03*
Y55150D02*
D03*
Y54150D02*
D03*
Y53150D02*
D03*
Y52150D02*
D03*
Y51150D02*
D03*
Y50150D02*
D03*
Y49150D02*
D03*
Y48150D02*
D03*
Y47150D02*
D03*
X53100Y77450D02*
D03*
X44660Y69819D02*
D03*
X43872D02*
D03*
X45447Y67456D02*
D03*
Y68244D02*
D03*
D21*
X59541Y40882D02*
D03*
X58541D02*
D03*
X53600Y40850D02*
D03*
X52600D02*
D03*
X52950Y57150D02*
D03*
X51950D02*
D03*
X52950Y61400D02*
D03*
X51950D02*
D03*
D22*
X59041Y40882D02*
D03*
X53100Y40850D02*
D03*
X52450Y57150D02*
D03*
Y61400D02*
D03*
D23*
X54250Y50750D02*
D03*
X58400Y54350D02*
D03*
X56700Y72150D02*
D03*
X63291Y68481D02*
D03*
D24*
X54250Y51750D02*
D03*
Y52750D02*
D03*
Y53750D02*
D03*
X51250Y50750D02*
D03*
Y51750D02*
D03*
Y52750D02*
D03*
Y53750D02*
D03*
X58400Y55350D02*
D03*
Y56350D02*
D03*
Y57350D02*
D03*
X55400Y54350D02*
D03*
Y55350D02*
D03*
Y56350D02*
D03*
Y57350D02*
D03*
X56700Y73150D02*
D03*
Y74150D02*
D03*
Y75150D02*
D03*
X53700Y72150D02*
D03*
Y73150D02*
D03*
Y74150D02*
D03*
Y75150D02*
D03*
X63291Y69482D02*
D03*
Y70482D02*
D03*
Y71481D02*
D03*
X60291Y68481D02*
D03*
Y69482D02*
D03*
Y70482D02*
D03*
Y71481D02*
D03*
X43006Y68342D02*
D03*
Y67358D02*
D03*
D25*
X54100Y77450D02*
D03*
D26*
X60902Y77350D02*
D03*
X59681D02*
D03*
D27*
X44200Y61000D02*
D03*
Y62000D02*
D03*
D28*
X44266Y69819D02*
D03*
D29*
X45447Y67850D02*
D03*
D30*
X43006D02*
D03*
D31*
X43491Y71400D02*
D03*
D32*
X47609D02*
D03*
D33*
X63240Y66480D02*
D03*
X63660Y67090D02*
D03*
X56300Y61380D02*
D03*
X55890Y62910D02*
D03*
M02*
