G04 Layer_Physical_Order=1*
G04 Layer_Color=255*
%FSLAX24Y24*%
%MOIN*%
G70*
G01*
G75*
%ADD10R,0.0945X0.1299*%
%ADD11R,0.0669X0.0433*%
%ADD12O,0.0906X0.0236*%
%ADD13R,0.1339X0.0394*%
%ADD14R,0.3504X0.4035*%
%ADD15C,0.0100*%
%ADD16C,0.0551*%
%ADD17C,0.0472*%
%ADD18R,0.0472X0.0472*%
%ADD19C,0.1476*%
%ADD20C,0.0591*%
%ADD21O,0.0394X0.0787*%
%ADD22O,0.0394X0.0787*%
%ADD23R,0.0591X0.0591*%
%ADD24C,0.0591*%
%ADD25R,0.0591X0.0591*%
%ADD26C,0.0512*%
%ADD27C,0.0700*%
%ADD28O,0.1575X0.0787*%
%ADD29O,0.0787X0.1575*%
%ADD30O,0.0787X0.1772*%
%ADD31R,0.0787X0.0787*%
%ADD32C,0.0787*%
%ADD33C,0.0500*%
G36*
X87524Y79650D02*
Y39370D01*
X87054Y38900D01*
X87054D01*
X87054Y38900D01*
X38250Y38900D01*
Y79650D01*
X38400Y79800D01*
X87524Y79650D01*
D02*
G37*
%LPC*%
G36*
X86614Y78893D02*
X39370D01*
X39312Y78881D01*
X39262Y78848D01*
X39229Y78799D01*
X39217Y78740D01*
Y39370D01*
X39229Y39312D01*
X39262Y39262D01*
X39312Y39229D01*
X39370Y39217D01*
X86614D01*
X86673Y39229D01*
X86722Y39262D01*
X86755Y39312D01*
X86767Y39370D01*
Y78740D01*
X86755Y78799D01*
X86722Y78848D01*
X86673Y78881D01*
X86614Y78893D01*
D02*
G37*
%LPD*%
G36*
X86461Y39523D02*
X39523D01*
Y78587D01*
X86461D01*
Y39523D01*
D02*
G37*
%LPC*%
G36*
X66700Y77079D02*
X66602Y77066D01*
X66511Y77028D01*
X66432Y76968D01*
X66372Y76889D01*
X66334Y76798D01*
X66321Y76700D01*
X66334Y76602D01*
X66372Y76511D01*
X66432Y76432D01*
X66511Y76372D01*
X66602Y76334D01*
X66700Y76321D01*
X66798Y76334D01*
X66889Y76372D01*
X66968Y76432D01*
X67028Y76511D01*
X67066Y76602D01*
X67079Y76700D01*
X67066Y76798D01*
X67028Y76889D01*
X66968Y76968D01*
X66889Y77028D01*
X66798Y77066D01*
X66700Y77079D01*
D02*
G37*
G36*
X84646Y77516D02*
X84501Y77501D01*
X84361Y77459D01*
X84232Y77390D01*
X84119Y77298D01*
X84027Y77185D01*
X83958Y77056D01*
X83916Y76917D01*
X83902Y76772D01*
X83916Y76626D01*
X83958Y76487D01*
X84027Y76358D01*
X84119Y76245D01*
X84232Y76153D01*
X84361Y76084D01*
X84501Y76042D01*
X84646Y76028D01*
X84791Y76042D01*
X84930Y76084D01*
X85059Y76153D01*
X85172Y76245D01*
X85264Y76358D01*
X85333Y76487D01*
X85375Y76626D01*
X85390Y76772D01*
X85375Y76917D01*
X85333Y77056D01*
X85264Y77185D01*
X85172Y77298D01*
X85059Y77390D01*
X84930Y77459D01*
X84791Y77501D01*
X84646Y77516D01*
D02*
G37*
G36*
X56700Y75549D02*
X56597Y75535D01*
X56501Y75495D01*
X56418Y75432D01*
X56355Y75349D01*
X56315Y75253D01*
X56301Y75150D01*
X56315Y75047D01*
X56355Y74951D01*
X56418Y74868D01*
X56501Y74805D01*
X56597Y74765D01*
X56700Y74751D01*
X56803Y74765D01*
X56899Y74805D01*
X56982Y74868D01*
X57045Y74951D01*
X57085Y75047D01*
X57099Y75150D01*
X57085Y75253D01*
X57045Y75349D01*
X56982Y75432D01*
X56899Y75495D01*
X56803Y75535D01*
X56700Y75549D01*
D02*
G37*
G36*
X54414Y78289D02*
X52414D01*
X52355Y78278D01*
X52306Y78244D01*
X52132Y78071D01*
X52099Y78021D01*
X52087Y77963D01*
Y65413D01*
X51492Y64818D01*
X51459Y64769D01*
X51447Y64710D01*
Y56800D01*
X51459Y56741D01*
X51492Y56692D01*
X51692Y56492D01*
X51741Y56459D01*
X51800Y56447D01*
X52350D01*
X52409Y56459D01*
X52458Y56492D01*
X52558Y56592D01*
X52591Y56641D01*
X52602Y56696D01*
X52662Y56741D01*
X52675Y56759D01*
X52725D01*
X52738Y56741D01*
X52797Y56696D01*
Y44663D01*
X52692Y44558D01*
X52646Y44577D01*
Y45000D01*
X51731D01*
X51712Y45046D01*
X52078Y45412D01*
X52111Y45461D01*
X52123Y45520D01*
Y50030D01*
X52111Y50089D01*
X52078Y50138D01*
X51616Y50600D01*
X51635Y50647D01*
X51649Y50750D01*
X51635Y50853D01*
X51595Y50949D01*
X51532Y51032D01*
X51449Y51095D01*
X51353Y51135D01*
X51250Y51149D01*
X51147Y51135D01*
X51051Y51095D01*
X50968Y51032D01*
X50905Y50949D01*
X50865Y50853D01*
X50851Y50750D01*
X50865Y50647D01*
X50905Y50551D01*
X50968Y50468D01*
X51051Y50405D01*
X51147Y50365D01*
X51250Y50351D01*
X51353Y50365D01*
X51400Y50384D01*
X51817Y49967D01*
Y48025D01*
X51767Y48000D01*
X51731Y48028D01*
X51639Y48066D01*
X51541Y48079D01*
X51443Y48066D01*
X51352Y48028D01*
X51273Y47968D01*
X51213Y47889D01*
X51175Y47798D01*
X51163Y47700D01*
X51175Y47602D01*
X51213Y47511D01*
X51273Y47432D01*
X51352Y47372D01*
X51443Y47334D01*
X51541Y47321D01*
X51639Y47334D01*
X51731Y47372D01*
X51767Y47400D01*
X51817Y47375D01*
Y46325D01*
X51767Y46300D01*
X51731Y46328D01*
X51639Y46366D01*
X51541Y46379D01*
X51443Y46366D01*
X51352Y46328D01*
X51273Y46268D01*
X51213Y46189D01*
X51175Y46098D01*
X51163Y46000D01*
X51175Y45902D01*
X51213Y45811D01*
X51273Y45732D01*
X51352Y45672D01*
X51443Y45634D01*
X51541Y45621D01*
X51639Y45634D01*
X51731Y45672D01*
X51767Y45700D01*
X51817Y45675D01*
Y45583D01*
X51342Y45108D01*
X51309Y45059D01*
X51297Y45000D01*
Y42570D01*
X51309Y42511D01*
X51342Y42462D01*
X52447Y41357D01*
Y41304D01*
X52388Y41259D01*
X52341Y41197D01*
X52311Y41124D01*
X52301Y41047D01*
Y40653D01*
X52311Y40576D01*
X52341Y40503D01*
X52388Y40441D01*
X52450Y40394D01*
X52523Y40364D01*
X52600Y40354D01*
X52677Y40364D01*
X52750Y40394D01*
X52812Y40441D01*
X52825Y40459D01*
X52875D01*
X52888Y40441D01*
X52950Y40394D01*
X53023Y40364D01*
X53033Y40363D01*
X53050Y40273D01*
X53056Y40257D01*
X53059Y40241D01*
X53066Y40230D01*
X53071Y40217D01*
X53083Y40205D01*
X53092Y40192D01*
X53103Y40184D01*
X53105Y40183D01*
X53095Y40143D01*
X53089Y40133D01*
X46975D01*
X44375Y42732D01*
X44395Y42779D01*
X45200D01*
X45259Y42790D01*
X45308Y42823D01*
X45888Y43403D01*
X45921Y43453D01*
X45933Y43512D01*
Y55920D01*
X45921Y55979D01*
X45888Y56028D01*
X45686Y56230D01*
Y56470D01*
X46908Y57692D01*
X46941Y57741D01*
X46953Y57800D01*
Y64357D01*
X46989Y64372D01*
X47068Y64432D01*
X47128Y64511D01*
X47166Y64602D01*
X47179Y64700D01*
X47166Y64798D01*
X47128Y64889D01*
X47068Y64968D01*
X46989Y65028D01*
X46953Y65043D01*
Y76437D01*
X47263Y76747D01*
X47438D01*
Y76603D01*
X48864D01*
X48899Y76567D01*
X48848Y75197D01*
X47438D01*
Y74603D01*
X48976D01*
Y74747D01*
X48990D01*
X49017Y74752D01*
X49043Y74757D01*
X49046Y74758D01*
X49049Y74759D01*
X49071Y74774D01*
X49094Y74788D01*
X49096Y74790D01*
X49098Y74792D01*
X49113Y74814D01*
X49129Y74836D01*
X49130Y74839D01*
X49131Y74841D01*
X49137Y74868D01*
X49143Y74894D01*
X49243Y77594D01*
X49242Y77597D01*
X49243Y77600D01*
X49238Y77627D01*
X49233Y77653D01*
X49232Y77656D01*
X49231Y77659D01*
X49216Y77681D01*
X49202Y77704D01*
X49200Y77706D01*
X49198Y77708D01*
X48728Y78178D01*
X48679Y78211D01*
X48620Y78223D01*
X42190D01*
X42131Y78211D01*
X42082Y78178D01*
X42049Y78129D01*
X42037Y78070D01*
Y77142D01*
X41987Y77129D01*
X41957Y77185D01*
X41865Y77298D01*
X41752Y77390D01*
X41623Y77459D01*
X41484Y77501D01*
X41339Y77516D01*
X41193Y77501D01*
X41054Y77459D01*
X40925Y77390D01*
X40812Y77298D01*
X40720Y77185D01*
X40651Y77056D01*
X40609Y76917D01*
X40594Y76772D01*
X40609Y76626D01*
X40651Y76487D01*
X40720Y76358D01*
X40812Y76245D01*
X40925Y76153D01*
X41054Y76084D01*
X41193Y76042D01*
X41339Y76028D01*
X41484Y76042D01*
X41623Y76084D01*
X41752Y76153D01*
X41865Y76245D01*
X41957Y76358D01*
X41987Y76414D01*
X42037Y76401D01*
Y72701D01*
X42049Y72642D01*
X42082Y72593D01*
X42997Y71677D01*
Y70906D01*
X43338D01*
Y70423D01*
X43212Y70297D01*
X43179Y70248D01*
X43167Y70189D01*
Y69080D01*
X43179Y69021D01*
X43212Y68972D01*
X43407Y68777D01*
Y68709D01*
X43375Y68698D01*
X43357Y68695D01*
X43255Y68773D01*
X43135Y68823D01*
X43006Y68840D01*
X42877Y68823D01*
X42757Y68773D01*
X42654Y68694D01*
X42575Y68591D01*
X42525Y68471D01*
X42508Y68342D01*
Y67358D01*
X42525Y67229D01*
X42575Y67109D01*
X42654Y67006D01*
X42757Y66927D01*
X42877Y66877D01*
X43006Y66860D01*
X43135Y66877D01*
X43255Y66927D01*
X43357Y67005D01*
X43375Y67002D01*
X43407Y66991D01*
Y66083D01*
X43262Y65938D01*
X43229Y65889D01*
X43217Y65830D01*
Y51480D01*
X43229Y51421D01*
X43262Y51372D01*
X44814Y49820D01*
Y49364D01*
X45427D01*
Y47193D01*
X45254Y47021D01*
X45238Y47028D01*
X45150Y47039D01*
X45062Y47028D01*
X44980Y46994D01*
X44910Y46940D01*
X44856Y46870D01*
X44822Y46788D01*
X44811Y46700D01*
X44822Y46612D01*
X44829Y46596D01*
X42102Y43868D01*
X42069Y43819D01*
X42057Y43760D01*
Y42000D01*
X42069Y41941D01*
X42102Y41892D01*
X42233Y41760D01*
X42265Y41739D01*
Y41552D01*
X43135D01*
Y42185D01*
X42363D01*
Y42615D01*
X43135D01*
Y42779D01*
X43897D01*
X46803Y39872D01*
X46853Y39839D01*
X46912Y39827D01*
X60340D01*
X60399Y39839D01*
X60448Y39872D01*
X60868Y40292D01*
X60901Y40341D01*
X60913Y40400D01*
Y61900D01*
X60901Y61959D01*
X60868Y62008D01*
X60768Y62108D01*
X60719Y62141D01*
X60660Y62153D01*
X60645D01*
X60642Y62157D01*
X60570Y62205D01*
X60485Y62222D01*
X59815D01*
X59766Y62212D01*
X59719Y62248D01*
Y62252D01*
X59766Y62288D01*
X59815Y62278D01*
X60485D01*
X60570Y62295D01*
X60642Y62343D01*
X60645Y62347D01*
X61240D01*
X61299Y62359D01*
X61348Y62392D01*
X62048Y63092D01*
X62081Y63141D01*
X62093Y63200D01*
Y74477D01*
X62400Y74783D01*
X62587D01*
Y69700D01*
X62599Y69641D01*
X62632Y69592D01*
X62850Y69373D01*
X62878Y69355D01*
X62888Y69298D01*
X62887Y69293D01*
X62732Y69138D01*
X62699Y69089D01*
X62687Y69030D01*
Y61800D01*
X62699Y61741D01*
X62732Y61692D01*
X63032Y61392D01*
X63081Y61359D01*
X63140Y61347D01*
X63238D01*
X63241Y61343D01*
X63313Y61295D01*
X63398Y61278D01*
X64067D01*
X64152Y61295D01*
X64225Y61343D01*
X64273Y61415D01*
X64290Y61500D01*
X64273Y61585D01*
X64225Y61657D01*
X64152Y61705D01*
X64067Y61722D01*
X63398D01*
X63313Y61705D01*
X63241Y61657D01*
X63193Y61663D01*
X62993Y61863D01*
Y63444D01*
X62994Y63446D01*
X63039Y63470D01*
X63043Y63469D01*
X63051Y63466D01*
X63061Y63459D01*
X63079Y63455D01*
X63095Y63449D01*
X63189Y63434D01*
X63193Y63415D01*
X63241Y63343D01*
X63313Y63295D01*
X63398Y63278D01*
X64067D01*
X64152Y63295D01*
X64225Y63343D01*
X64273Y63415D01*
X64290Y63500D01*
X64273Y63585D01*
X64225Y63657D01*
X64152Y63705D01*
X64067Y63722D01*
X63398D01*
X63363Y63715D01*
X63303Y63725D01*
X63298Y63753D01*
X63341Y63789D01*
X63398Y63778D01*
X64067D01*
X64152Y63795D01*
X64225Y63843D01*
X64227Y63847D01*
X64240D01*
X64299Y63859D01*
X64337Y63884D01*
X64387Y63867D01*
Y62863D01*
X64198Y62675D01*
X64152Y62705D01*
X64067Y62722D01*
X63398D01*
X63313Y62705D01*
X63241Y62657D01*
X63193Y62585D01*
X63176Y62500D01*
X63193Y62415D01*
X63241Y62343D01*
X63313Y62295D01*
X63398Y62278D01*
X64067D01*
X64152Y62295D01*
X64225Y62343D01*
X64227Y62347D01*
X64240D01*
X64299Y62359D01*
X64348Y62392D01*
X64648Y62692D01*
X64681Y62741D01*
X64693Y62800D01*
Y75470D01*
X64681Y75529D01*
X64648Y75578D01*
X64488Y75738D01*
X64439Y75771D01*
X64380Y75783D01*
X61480D01*
X61421Y75771D01*
X61372Y75738D01*
X60800Y75166D01*
X60276D01*
Y75330D01*
X59994D01*
Y76100D01*
X59983Y76159D01*
X59949Y76208D01*
X59834Y76324D01*
Y77028D01*
X59861Y77039D01*
X59935Y77096D01*
X59992Y77171D01*
X60028Y77257D01*
X60040Y77350D01*
X60028Y77443D01*
X59992Y77529D01*
X59935Y77604D01*
X59861Y77661D01*
X59774Y77697D01*
X59681Y77709D01*
X59588Y77697D01*
X59502Y77661D01*
X59427Y77604D01*
X59370Y77529D01*
X59334Y77443D01*
X59322Y77350D01*
X59334Y77257D01*
X59370Y77171D01*
X59427Y77096D01*
X59502Y77039D01*
X59528Y77028D01*
Y76260D01*
X59540Y76202D01*
X59573Y76152D01*
X59688Y76037D01*
Y75330D01*
X59407D01*
Y74696D01*
X60276D01*
Y74860D01*
X60863D01*
X60922Y74872D01*
X60971Y74905D01*
X61543Y75477D01*
X64317D01*
X64387Y75407D01*
Y66645D01*
X64341Y66625D01*
X63991Y66975D01*
X64001Y66999D01*
X64013Y67090D01*
X64001Y67181D01*
X63966Y67267D01*
X63910Y67340D01*
X63837Y67396D01*
X63751Y67431D01*
X63660Y67443D01*
X63569Y67431D01*
X63483Y67396D01*
X63410Y67340D01*
X63354Y67267D01*
X63319Y67181D01*
X63307Y67090D01*
X63319Y66999D01*
X63354Y66913D01*
X63408Y66843D01*
X63408Y66838D01*
X63369Y66806D01*
X63331Y66821D01*
X63240Y66833D01*
X63149Y66821D01*
X63063Y66786D01*
X63038Y66766D01*
X62993Y66788D01*
Y68086D01*
X63687D01*
Y68877D01*
X62993D01*
Y68967D01*
X63142Y69116D01*
X63188Y69096D01*
X63291Y69083D01*
X63395Y69096D01*
X63491Y69136D01*
X63573Y69200D01*
X63637Y69282D01*
X63676Y69378D01*
X63690Y69482D01*
X63676Y69585D01*
X63637Y69681D01*
X63573Y69763D01*
X63491Y69827D01*
X63395Y69867D01*
X63291Y69880D01*
X63188Y69867D01*
X63092Y69827D01*
X63009Y69763D01*
X62982Y69728D01*
X62932Y69724D01*
X62893Y69763D01*
Y70280D01*
X62943Y70290D01*
X62946Y70282D01*
X63009Y70200D01*
X63092Y70136D01*
X63188Y70096D01*
X63291Y70083D01*
X63395Y70096D01*
X63491Y70136D01*
X63573Y70200D01*
X63637Y70282D01*
X63676Y70378D01*
X63690Y70482D01*
X63676Y70585D01*
X63637Y70681D01*
X63573Y70763D01*
X63491Y70827D01*
X63395Y70867D01*
X63291Y70880D01*
X63188Y70867D01*
X63092Y70827D01*
X63009Y70763D01*
X62946Y70681D01*
X62943Y70673D01*
X62893Y70683D01*
Y71280D01*
X62943Y71290D01*
X62946Y71282D01*
X63009Y71200D01*
X63092Y71136D01*
X63188Y71096D01*
X63291Y71083D01*
X63395Y71096D01*
X63491Y71136D01*
X63573Y71200D01*
X63637Y71282D01*
X63676Y71378D01*
X63690Y71481D01*
X63676Y71585D01*
X63637Y71681D01*
X63573Y71763D01*
X63491Y71827D01*
X63395Y71867D01*
X63291Y71880D01*
X63188Y71867D01*
X63092Y71827D01*
X63009Y71763D01*
X62946Y71681D01*
X62943Y71673D01*
X62893Y71683D01*
Y74783D01*
X63176D01*
Y75417D01*
X62307D01*
Y75218D01*
X62292Y75208D01*
X61832Y74748D01*
X61799Y74699D01*
X61787Y74640D01*
Y74603D01*
X61287Y74103D01*
X60276D01*
Y74267D01*
X59407D01*
Y74103D01*
X57500D01*
X57441Y74091D01*
X57392Y74058D01*
X56850Y73516D01*
X56803Y73535D01*
X56700Y73549D01*
X56597Y73535D01*
X56501Y73495D01*
X56418Y73432D01*
X56355Y73349D01*
X56315Y73253D01*
X56301Y73150D01*
X56315Y73047D01*
X56355Y72951D01*
X56418Y72868D01*
X56501Y72805D01*
X56597Y72765D01*
X56700Y72751D01*
X56803Y72765D01*
X56899Y72805D01*
X56982Y72868D01*
X57045Y72951D01*
X57085Y73047D01*
X57099Y73150D01*
X57085Y73253D01*
X57066Y73300D01*
X57563Y73797D01*
X59407D01*
Y73633D01*
X60276D01*
Y73797D01*
X61350D01*
X61409Y73809D01*
X61458Y73842D01*
X61741Y74125D01*
X61787Y74105D01*
Y63263D01*
X61177Y62653D01*
X60645D01*
X60642Y62657D01*
X60570Y62705D01*
X60485Y62722D01*
X59815D01*
X59730Y62705D01*
X59658Y62657D01*
X59655Y62653D01*
X59640D01*
X59581Y62641D01*
X59532Y62608D01*
X59432Y62508D01*
X59399Y62459D01*
X59387Y62400D01*
Y56553D01*
X58550Y55716D01*
X58503Y55735D01*
X58400Y55749D01*
X58297Y55735D01*
X58201Y55695D01*
X58118Y55632D01*
X58055Y55549D01*
X58015Y55453D01*
X58001Y55350D01*
X58015Y55247D01*
X58055Y55151D01*
X58118Y55068D01*
X58201Y55005D01*
X58297Y54965D01*
X58400Y54951D01*
X58503Y54965D01*
X58599Y55005D01*
X58682Y55068D01*
X58745Y55151D01*
X58785Y55247D01*
X58799Y55350D01*
X58785Y55453D01*
X58766Y55500D01*
X59648Y56382D01*
X59681Y56431D01*
X59693Y56490D01*
Y57764D01*
X59743Y57792D01*
X59815Y57778D01*
X60485D01*
X60557Y57792D01*
X60607Y57764D01*
Y40463D01*
X60277Y40133D01*
X59810D01*
X59795Y40183D01*
X59808Y40192D01*
X60308Y40692D01*
X60341Y40741D01*
X60353Y40800D01*
Y50550D01*
X60341Y50609D01*
X60308Y50658D01*
X55766Y55200D01*
X55785Y55247D01*
X55799Y55350D01*
X55785Y55453D01*
X55745Y55549D01*
X55682Y55632D01*
X55599Y55695D01*
X55503Y55735D01*
X55400Y55749D01*
X55297Y55735D01*
X55201Y55695D01*
X55158Y55662D01*
X55108Y55687D01*
Y56013D01*
X55158Y56038D01*
X55201Y56005D01*
X55297Y55965D01*
X55400Y55951D01*
X55503Y55965D01*
X55599Y56005D01*
X55682Y56068D01*
X55745Y56151D01*
X55785Y56247D01*
X55799Y56350D01*
X55785Y56453D01*
X55745Y56549D01*
X55682Y56632D01*
X55599Y56695D01*
X55503Y56735D01*
X55400Y56749D01*
X55297Y56735D01*
X55201Y56695D01*
X55158Y56662D01*
X55108Y56687D01*
Y57013D01*
X55158Y57038D01*
X55201Y57005D01*
X55297Y56965D01*
X55400Y56951D01*
X55503Y56965D01*
X55599Y57005D01*
X55682Y57068D01*
X55745Y57151D01*
X55785Y57247D01*
X55799Y57350D01*
X55785Y57453D01*
X55745Y57549D01*
X55682Y57632D01*
X55599Y57695D01*
X55503Y57735D01*
X55436Y57744D01*
X55418Y57797D01*
X55598Y57977D01*
X55631Y58027D01*
X55643Y58085D01*
Y62602D01*
X55688Y62624D01*
X55713Y62604D01*
X55799Y62569D01*
X55890Y62557D01*
X55981Y62569D01*
X56067Y62604D01*
X56140Y62660D01*
X56196Y62733D01*
X56231Y62819D01*
X56243Y62910D01*
X56231Y63001D01*
X56221Y63025D01*
X56226Y63030D01*
X56259Y63080D01*
X56271Y63138D01*
Y63200D01*
X56691D01*
Y64700D01*
X56271D01*
Y65057D01*
X56376Y65162D01*
X56409Y65211D01*
X56421Y65270D01*
Y65700D01*
X56841D01*
Y67200D01*
X55696D01*
Y65700D01*
X56115D01*
Y65333D01*
X56010Y65228D01*
X55977Y65179D01*
X55965Y65120D01*
Y64700D01*
X55643D01*
Y67977D01*
X55838Y68172D01*
X55871Y68221D01*
X55883Y68280D01*
Y68850D01*
X55871Y68909D01*
X55838Y68958D01*
X55708Y69088D01*
X55659Y69121D01*
X55600Y69133D01*
X54510D01*
X54451Y69121D01*
X54402Y69088D01*
X54272Y68958D01*
X54239Y68909D01*
X54227Y68850D01*
Y63663D01*
X54001Y63437D01*
X53954Y63456D01*
Y64700D01*
X53535D01*
Y65057D01*
X53640Y65162D01*
X53673Y65211D01*
X53685Y65270D01*
Y65700D01*
X54104D01*
Y67200D01*
X53685D01*
Y67390D01*
X53673Y67449D01*
X53640Y67498D01*
X53403Y67735D01*
Y69646D01*
X53453Y69656D01*
X53472Y69611D01*
X53532Y69532D01*
X53611Y69472D01*
X53702Y69434D01*
X53800Y69421D01*
X53898Y69434D01*
X53989Y69472D01*
X54068Y69532D01*
X54128Y69611D01*
X54166Y69702D01*
X54179Y69800D01*
X54166Y69898D01*
X54128Y69989D01*
X54068Y70068D01*
X53989Y70128D01*
X53898Y70166D01*
X53800Y70179D01*
X53702Y70166D01*
X53611Y70128D01*
X53532Y70068D01*
X53472Y69989D01*
X53453Y69944D01*
X53403Y69954D01*
Y71817D01*
X53453Y71841D01*
X53501Y71805D01*
X53597Y71765D01*
X53700Y71751D01*
X53803Y71765D01*
X53899Y71805D01*
X53982Y71868D01*
X54045Y71951D01*
X54085Y72047D01*
X54099Y72150D01*
X54085Y72253D01*
X54066Y72300D01*
X54658Y72892D01*
X54691Y72941D01*
X54703Y73000D01*
Y78000D01*
X54691Y78059D01*
X54658Y78108D01*
X54522Y78244D01*
X54472Y78278D01*
X54414Y78289D01*
D02*
G37*
G36*
X85505Y75591D02*
X85340Y75574D01*
X85182Y75527D01*
X85037Y75449D01*
X84909Y75344D01*
X84804Y75216D01*
X84727Y75071D01*
X84679Y74913D01*
X84662Y74748D01*
X84679Y74584D01*
X84727Y74426D01*
X84804Y74280D01*
X84909Y74153D01*
X85037Y74048D01*
X85182Y73970D01*
X85340Y73922D01*
X85505Y73906D01*
X85669Y73922D01*
X85827Y73970D01*
X85973Y74048D01*
X86100Y74153D01*
X86205Y74280D01*
X86283Y74426D01*
X86331Y74584D01*
X86347Y74748D01*
X86331Y74913D01*
X86283Y75071D01*
X86205Y75216D01*
X86100Y75344D01*
X85973Y75449D01*
X85827Y75527D01*
X85669Y75574D01*
X85505Y75591D01*
D02*
G37*
G36*
X73300D02*
X73136Y75574D01*
X72978Y75527D01*
X72832Y75449D01*
X72704Y75344D01*
X72600Y75216D01*
X72522Y75071D01*
X72474Y74913D01*
X72458Y74748D01*
X72474Y74584D01*
X72522Y74426D01*
X72600Y74280D01*
X72704Y74153D01*
X72832Y74048D01*
X72978Y73970D01*
X73136Y73922D01*
X73300Y73906D01*
X73464Y73922D01*
X73622Y73970D01*
X73768Y74048D01*
X73896Y74153D01*
X74000Y74280D01*
X74078Y74426D01*
X74126Y74584D01*
X74142Y74748D01*
X74126Y74913D01*
X74078Y75071D01*
X74000Y75216D01*
X73896Y75344D01*
X73768Y75449D01*
X73622Y75527D01*
X73464Y75574D01*
X73300Y75591D01*
D02*
G37*
G36*
X56700Y74549D02*
X56597Y74535D01*
X56501Y74495D01*
X56418Y74432D01*
X56355Y74349D01*
X56315Y74253D01*
X56301Y74150D01*
X56315Y74047D01*
X56355Y73951D01*
X56418Y73868D01*
X56501Y73805D01*
X56597Y73765D01*
X56700Y73751D01*
X56803Y73765D01*
X56899Y73805D01*
X56982Y73868D01*
X57045Y73951D01*
X57085Y74047D01*
X57099Y74150D01*
X57085Y74253D01*
X57045Y74349D01*
X56982Y74432D01*
X56899Y74495D01*
X56803Y74535D01*
X56700Y74549D01*
D02*
G37*
G36*
X68900Y73789D02*
X68812Y73778D01*
X68730Y73744D01*
X68660Y73690D01*
X68606Y73620D01*
X68572Y73538D01*
X68561Y73450D01*
X68572Y73362D01*
X68606Y73280D01*
X68660Y73210D01*
X68730Y73156D01*
X68812Y73122D01*
X68900Y73111D01*
X68988Y73122D01*
X69070Y73156D01*
X69140Y73210D01*
X69194Y73280D01*
X69228Y73362D01*
X69239Y73450D01*
X69228Y73538D01*
X69194Y73620D01*
X69140Y73690D01*
X69070Y73744D01*
X68988Y73778D01*
X68900Y73789D01*
D02*
G37*
G36*
X57095Y72545D02*
X56305D01*
Y71755D01*
X57095D01*
Y72545D01*
D02*
G37*
G36*
X66700Y72079D02*
X66602Y72066D01*
X66511Y72028D01*
X66432Y71968D01*
X66372Y71889D01*
X66334Y71798D01*
X66321Y71700D01*
X66334Y71602D01*
X66372Y71511D01*
X66432Y71432D01*
X66511Y71372D01*
X66602Y71334D01*
X66700Y71321D01*
X66798Y71334D01*
X66889Y71372D01*
X66968Y71432D01*
X67028Y71511D01*
X67066Y71602D01*
X67079Y71700D01*
X67066Y71798D01*
X67028Y71889D01*
X66968Y71968D01*
X66889Y72028D01*
X66798Y72066D01*
X66700Y72079D01*
D02*
G37*
G36*
X60291Y71880D02*
X60188Y71867D01*
X60092Y71827D01*
X60009Y71763D01*
X59946Y71681D01*
X59906Y71585D01*
X59893Y71481D01*
X59906Y71378D01*
X59946Y71282D01*
X60009Y71200D01*
X60092Y71136D01*
X60188Y71096D01*
X60291Y71083D01*
X60395Y71096D01*
X60491Y71136D01*
X60573Y71200D01*
X60637Y71282D01*
X60676Y71378D01*
X60690Y71481D01*
X60676Y71585D01*
X60637Y71681D01*
X60573Y71763D01*
X60491Y71827D01*
X60395Y71867D01*
X60291Y71880D01*
D02*
G37*
G36*
X47609Y71898D02*
X47480Y71881D01*
X47360Y71831D01*
X47257Y71752D01*
X47178Y71649D01*
X47128Y71529D01*
X47111Y71400D01*
X47128Y71271D01*
X47178Y71151D01*
X47257Y71048D01*
X47360Y70969D01*
X47480Y70919D01*
X47609Y70902D01*
X47738Y70919D01*
X47858Y70969D01*
X47961Y71048D01*
X48040Y71151D01*
X48090Y71271D01*
X48107Y71400D01*
X48090Y71529D01*
X48040Y71649D01*
X47961Y71752D01*
X47858Y71831D01*
X47738Y71881D01*
X47609Y71898D01*
D02*
G37*
G36*
X60291Y70880D02*
X60188Y70867D01*
X60092Y70827D01*
X60009Y70763D01*
X59946Y70681D01*
X59906Y70585D01*
X59893Y70482D01*
X59906Y70378D01*
X59946Y70282D01*
X60009Y70200D01*
X60092Y70136D01*
X60188Y70096D01*
X60291Y70083D01*
X60395Y70096D01*
X60491Y70136D01*
X60573Y70200D01*
X60637Y70282D01*
X60676Y70378D01*
X60690Y70482D01*
X60676Y70585D01*
X60637Y70681D01*
X60573Y70763D01*
X60491Y70827D01*
X60395Y70867D01*
X60291Y70880D01*
D02*
G37*
G36*
X69900Y70289D02*
X69812Y70278D01*
X69730Y70244D01*
X69660Y70190D01*
X69606Y70120D01*
X69572Y70038D01*
X69561Y69950D01*
X69572Y69862D01*
X69606Y69780D01*
X69660Y69710D01*
X69730Y69656D01*
X69812Y69622D01*
X69900Y69611D01*
X69988Y69622D01*
X70070Y69656D01*
X70140Y69710D01*
X70194Y69780D01*
X70228Y69862D01*
X70239Y69950D01*
X70228Y70038D01*
X70194Y70120D01*
X70140Y70190D01*
X70070Y70244D01*
X69988Y70278D01*
X69900Y70289D01*
D02*
G37*
G36*
X57800Y70179D02*
X57702Y70166D01*
X57611Y70128D01*
X57532Y70068D01*
X57472Y69989D01*
X57434Y69898D01*
X57421Y69800D01*
X57434Y69702D01*
X57472Y69611D01*
X57532Y69532D01*
X57611Y69472D01*
X57702Y69434D01*
X57800Y69421D01*
X57898Y69434D01*
X57989Y69472D01*
X58068Y69532D01*
X58128Y69611D01*
X58166Y69702D01*
X58179Y69800D01*
X58166Y69898D01*
X58128Y69989D01*
X58068Y70068D01*
X57989Y70128D01*
X57898Y70166D01*
X57800Y70179D01*
D02*
G37*
G36*
X60291Y69880D02*
X60188Y69867D01*
X60092Y69827D01*
X60009Y69763D01*
X59946Y69681D01*
X59906Y69585D01*
X59893Y69482D01*
X59906Y69378D01*
X59946Y69282D01*
X60009Y69200D01*
X60092Y69136D01*
X60188Y69096D01*
X60291Y69083D01*
X60395Y69096D01*
X60491Y69136D01*
X60573Y69200D01*
X60637Y69282D01*
X60676Y69378D01*
X60690Y69482D01*
X60676Y69585D01*
X60637Y69681D01*
X60573Y69763D01*
X60491Y69827D01*
X60395Y69867D01*
X60291Y69880D01*
D02*
G37*
G36*
X51300Y68929D02*
X51202Y68916D01*
X51111Y68878D01*
X51032Y68818D01*
X50972Y68739D01*
X50934Y68648D01*
X50921Y68550D01*
X50934Y68452D01*
X50972Y68361D01*
X51032Y68282D01*
X51111Y68222D01*
X51202Y68184D01*
X51300Y68171D01*
X51398Y68184D01*
X51489Y68222D01*
X51568Y68282D01*
X51628Y68361D01*
X51666Y68452D01*
X51679Y68550D01*
X51666Y68648D01*
X51628Y68739D01*
X51568Y68818D01*
X51489Y68878D01*
X51398Y68916D01*
X51300Y68929D01*
D02*
G37*
G36*
X69236Y66786D02*
X68564D01*
Y66114D01*
X69236D01*
Y66786D01*
D02*
G37*
G36*
X60291Y68880D02*
X60188Y68867D01*
X60092Y68827D01*
X60009Y68763D01*
X59946Y68681D01*
X59906Y68585D01*
X59893Y68481D01*
X59906Y68378D01*
X59946Y68282D01*
X60009Y68200D01*
X60092Y68136D01*
X60138Y68117D01*
Y65435D01*
X56415Y61711D01*
X56391Y61721D01*
X56300Y61733D01*
X56209Y61721D01*
X56123Y61686D01*
X56050Y61630D01*
X55994Y61557D01*
X55959Y61471D01*
X55947Y61380D01*
X55959Y61289D01*
X55994Y61203D01*
X56050Y61130D01*
X56123Y61074D01*
X56209Y61039D01*
X56300Y61027D01*
X56391Y61039D01*
X56477Y61074D01*
X56550Y61130D01*
X56606Y61203D01*
X56641Y61289D01*
X56653Y61380D01*
X56641Y61471D01*
X56631Y61495D01*
X59561Y64425D01*
X59615Y64408D01*
X59658Y64343D01*
X59730Y64295D01*
X59815Y64278D01*
X60485D01*
X60570Y64295D01*
X60642Y64343D01*
X60690Y64415D01*
X60707Y64500D01*
X60690Y64585D01*
X60642Y64657D01*
X60570Y64705D01*
X60485Y64722D01*
X59924D01*
X59905Y64769D01*
X60399Y65263D01*
X60433Y65313D01*
X60444Y65371D01*
Y68117D01*
X60491Y68136D01*
X60573Y68200D01*
X60637Y68282D01*
X60676Y68378D01*
X60690Y68481D01*
X60676Y68585D01*
X60637Y68681D01*
X60573Y68763D01*
X60491Y68827D01*
X60395Y68867D01*
X60291Y68880D01*
D02*
G37*
G36*
X60485Y64222D02*
X59815D01*
X59730Y64205D01*
X59658Y64157D01*
X59610Y64085D01*
X59593Y64000D01*
X59610Y63915D01*
X59658Y63843D01*
X59730Y63795D01*
X59815Y63778D01*
X60485D01*
X60570Y63795D01*
X60642Y63843D01*
X60690Y63915D01*
X60707Y64000D01*
X60690Y64085D01*
X60642Y64157D01*
X60570Y64205D01*
X60485Y64222D01*
D02*
G37*
G36*
Y63722D02*
X59815D01*
X59730Y63705D01*
X59658Y63657D01*
X59610Y63585D01*
X59593Y63500D01*
X59610Y63415D01*
X59658Y63343D01*
X59730Y63295D01*
X59815Y63278D01*
X60485D01*
X60570Y63295D01*
X60642Y63343D01*
X60690Y63415D01*
X60707Y63500D01*
X60690Y63585D01*
X60642Y63657D01*
X60570Y63705D01*
X60485Y63722D01*
D02*
G37*
G36*
X64067Y63222D02*
X63398D01*
X63313Y63205D01*
X63241Y63157D01*
X63193Y63085D01*
X63176Y63000D01*
X63193Y62915D01*
X63241Y62843D01*
X63313Y62795D01*
X63398Y62778D01*
X64067D01*
X64152Y62795D01*
X64225Y62843D01*
X64273Y62915D01*
X64290Y63000D01*
X64273Y63085D01*
X64225Y63157D01*
X64152Y63205D01*
X64067Y63222D01*
D02*
G37*
G36*
X60485D02*
X59815D01*
X59730Y63205D01*
X59658Y63157D01*
X59610Y63085D01*
X59593Y63000D01*
X59610Y62915D01*
X59658Y62843D01*
X59730Y62795D01*
X59815Y62778D01*
X60485D01*
X60570Y62795D01*
X60642Y62843D01*
X60690Y62915D01*
X60707Y63000D01*
X60690Y63085D01*
X60642Y63157D01*
X60570Y63205D01*
X60485Y63222D01*
D02*
G37*
G36*
X60902Y77709D02*
X60809Y77697D01*
X60722Y77661D01*
X60648Y77604D01*
X60591Y77529D01*
X60555Y77443D01*
X60543Y77350D01*
X60555Y77257D01*
X60591Y77171D01*
X60648Y77096D01*
X60722Y77039D01*
X60809Y77003D01*
X60902Y76991D01*
X60994Y77003D01*
X61021Y77014D01*
X61980Y76055D01*
X62030Y76022D01*
X62089Y76010D01*
X62307D01*
Y75846D01*
X63176D01*
Y76010D01*
X64737D01*
X65127Y75620D01*
Y62463D01*
X64817Y62153D01*
X64227D01*
X64225Y62157D01*
X64152Y62205D01*
X64067Y62222D01*
X63398D01*
X63313Y62205D01*
X63241Y62157D01*
X63193Y62085D01*
X63176Y62000D01*
X63193Y61915D01*
X63241Y61843D01*
X63313Y61795D01*
X63398Y61778D01*
X64067D01*
X64152Y61795D01*
X64225Y61843D01*
X64227Y61847D01*
X64880D01*
X64939Y61859D01*
X64988Y61892D01*
X65388Y62292D01*
X65421Y62341D01*
X65433Y62400D01*
Y75683D01*
X65421Y75742D01*
X65388Y75791D01*
X64908Y76271D01*
X64859Y76304D01*
X64800Y76316D01*
X63176D01*
Y76480D01*
X62307D01*
Y76316D01*
X62152D01*
X61237Y77231D01*
X61248Y77257D01*
X61261Y77350D01*
X61248Y77443D01*
X61212Y77529D01*
X61155Y77604D01*
X61081Y77661D01*
X60994Y77697D01*
X60902Y77709D01*
D02*
G37*
G36*
X73300Y62549D02*
X73197Y62535D01*
X73101Y62495D01*
X73018Y62432D01*
X72955Y62349D01*
X72915Y62253D01*
X72901Y62150D01*
X72915Y62047D01*
X72955Y61951D01*
X73018Y61868D01*
X73101Y61805D01*
X73197Y61765D01*
X73300Y61751D01*
X73403Y61765D01*
X73499Y61805D01*
X73582Y61868D01*
X73645Y61951D01*
X73685Y62047D01*
X73699Y62150D01*
X73685Y62253D01*
X73645Y62349D01*
X73582Y62432D01*
X73499Y62495D01*
X73403Y62535D01*
X73300Y62549D01*
D02*
G37*
G36*
X64067Y61222D02*
X63398D01*
X63313Y61205D01*
X63241Y61157D01*
X63193Y61085D01*
X63176Y61000D01*
X63193Y60915D01*
X63241Y60843D01*
X63313Y60795D01*
X63398Y60778D01*
X64067D01*
X64152Y60795D01*
X64225Y60843D01*
X64273Y60915D01*
X64290Y61000D01*
X64273Y61085D01*
X64225Y61157D01*
X64152Y61205D01*
X64067Y61222D01*
D02*
G37*
G36*
X73300Y61549D02*
X73197Y61535D01*
X73101Y61495D01*
X73018Y61432D01*
X72955Y61349D01*
X72915Y61253D01*
X72901Y61150D01*
X72915Y61047D01*
X72955Y60951D01*
X73018Y60868D01*
X73101Y60805D01*
X73197Y60765D01*
X73300Y60751D01*
X73403Y60765D01*
X73499Y60805D01*
X73582Y60868D01*
X73645Y60951D01*
X73685Y61047D01*
X73699Y61150D01*
X73685Y61253D01*
X73645Y61349D01*
X73582Y61432D01*
X73499Y61495D01*
X73403Y61535D01*
X73300Y61549D01*
D02*
G37*
G36*
X64067Y60722D02*
X63398D01*
X63313Y60705D01*
X63241Y60657D01*
X63193Y60585D01*
X63176Y60500D01*
X63193Y60415D01*
X63241Y60343D01*
X63313Y60295D01*
X63398Y60278D01*
X64067D01*
X64152Y60295D01*
X64225Y60343D01*
X64273Y60415D01*
X64290Y60500D01*
X64273Y60585D01*
X64225Y60657D01*
X64152Y60705D01*
X64067Y60722D01*
D02*
G37*
G36*
Y60222D02*
X63398D01*
X63313Y60205D01*
X63241Y60157D01*
X63193Y60085D01*
X63176Y60000D01*
X63193Y59915D01*
X63241Y59843D01*
X63313Y59795D01*
X63398Y59778D01*
X64067D01*
X64152Y59795D01*
X64225Y59843D01*
X64273Y59915D01*
X64290Y60000D01*
X64273Y60085D01*
X64225Y60157D01*
X64152Y60205D01*
X64067Y60222D01*
D02*
G37*
G36*
X73300Y60549D02*
X73197Y60535D01*
X73101Y60495D01*
X73018Y60432D01*
X72955Y60349D01*
X72915Y60253D01*
X72901Y60150D01*
X72915Y60047D01*
X72955Y59951D01*
X73018Y59868D01*
X73101Y59805D01*
X73197Y59765D01*
X73300Y59751D01*
X73403Y59765D01*
X73499Y59805D01*
X73582Y59868D01*
X73645Y59951D01*
X73685Y60047D01*
X73699Y60150D01*
X73685Y60253D01*
X73645Y60349D01*
X73582Y60432D01*
X73499Y60495D01*
X73403Y60535D01*
X73300Y60549D01*
D02*
G37*
G36*
X64067Y59722D02*
X63398D01*
X63313Y59705D01*
X63241Y59657D01*
X63193Y59585D01*
X63176Y59500D01*
X63193Y59415D01*
X63241Y59343D01*
X63313Y59295D01*
X63398Y59278D01*
X64067D01*
X64152Y59295D01*
X64225Y59343D01*
X64273Y59415D01*
X64290Y59500D01*
X64273Y59585D01*
X64225Y59657D01*
X64152Y59705D01*
X64067Y59722D01*
D02*
G37*
G36*
Y59222D02*
X63398D01*
X63313Y59205D01*
X63241Y59157D01*
X63193Y59085D01*
X63176Y59000D01*
X63193Y58915D01*
X63241Y58843D01*
X63313Y58795D01*
X63398Y58778D01*
X64067D01*
X64152Y58795D01*
X64225Y58843D01*
X64273Y58915D01*
X64290Y59000D01*
X64273Y59085D01*
X64225Y59157D01*
X64152Y59205D01*
X64067Y59222D01*
D02*
G37*
G36*
X73300Y59549D02*
X73197Y59535D01*
X73101Y59495D01*
X73018Y59432D01*
X72955Y59349D01*
X72915Y59253D01*
X72901Y59150D01*
X72915Y59047D01*
X72955Y58951D01*
X73018Y58868D01*
X73101Y58805D01*
X73197Y58765D01*
X73300Y58751D01*
X73403Y58765D01*
X73499Y58805D01*
X73582Y58868D01*
X73645Y58951D01*
X73685Y59047D01*
X73699Y59150D01*
X73685Y59253D01*
X73645Y59349D01*
X73582Y59432D01*
X73499Y59495D01*
X73403Y59535D01*
X73300Y59549D01*
D02*
G37*
G36*
X64067Y58722D02*
X63398D01*
X63313Y58705D01*
X63241Y58657D01*
X63238Y58653D01*
X62400D01*
X62341Y58641D01*
X62292Y58608D01*
X61832Y58148D01*
X61799Y58099D01*
X61787Y58040D01*
Y56630D01*
X61799Y56571D01*
X61832Y56522D01*
X63087Y55267D01*
Y52886D01*
X62514D01*
Y52214D01*
X63087D01*
Y46003D01*
X62954Y45871D01*
X62938Y45878D01*
X62850Y45889D01*
X62762Y45878D01*
X62680Y45844D01*
X62610Y45790D01*
X62556Y45720D01*
X62522Y45638D01*
X62511Y45550D01*
X62522Y45462D01*
X62556Y45380D01*
X62610Y45310D01*
X62680Y45256D01*
X62762Y45222D01*
X62850Y45211D01*
X62938Y45222D01*
X63020Y45256D01*
X63090Y45310D01*
X63144Y45380D01*
X63178Y45462D01*
X63189Y45550D01*
X63178Y45638D01*
X63171Y45654D01*
X63348Y45832D01*
X63381Y45881D01*
X63393Y45940D01*
Y55330D01*
X63381Y55389D01*
X63348Y55438D01*
X62093Y56693D01*
Y57977D01*
X62463Y58347D01*
X63238D01*
X63241Y58343D01*
X63313Y58295D01*
X63398Y58278D01*
X64067D01*
X64152Y58295D01*
X64225Y58343D01*
X64273Y58415D01*
X64290Y58500D01*
X64273Y58585D01*
X64225Y58657D01*
X64152Y58705D01*
X64067Y58722D01*
D02*
G37*
G36*
Y58222D02*
X63398D01*
X63313Y58205D01*
X63241Y58157D01*
X63193Y58085D01*
X63176Y58000D01*
X63193Y57915D01*
X63241Y57843D01*
X63313Y57795D01*
X63398Y57778D01*
X64067D01*
X64152Y57795D01*
X64225Y57843D01*
X64273Y57915D01*
X64290Y58000D01*
X64273Y58085D01*
X64225Y58157D01*
X64152Y58205D01*
X64067Y58222D01*
D02*
G37*
G36*
X73300Y58549D02*
X73197Y58535D01*
X73101Y58495D01*
X73018Y58432D01*
X72955Y58349D01*
X72915Y58253D01*
X72901Y58150D01*
X72915Y58047D01*
X72955Y57951D01*
X73018Y57868D01*
X73101Y57805D01*
X73197Y57765D01*
X73300Y57751D01*
X73403Y57765D01*
X73499Y57805D01*
X73582Y57868D01*
X73645Y57951D01*
X73685Y58047D01*
X73699Y58150D01*
X73685Y58253D01*
X73645Y58349D01*
X73582Y58432D01*
X73499Y58495D01*
X73403Y58535D01*
X73300Y58549D01*
D02*
G37*
G36*
X58400Y57749D02*
X58297Y57735D01*
X58201Y57695D01*
X58118Y57632D01*
X58055Y57549D01*
X58015Y57453D01*
X58001Y57350D01*
X58015Y57247D01*
X58055Y57151D01*
X58118Y57068D01*
X58201Y57005D01*
X58297Y56965D01*
X58400Y56951D01*
X58503Y56965D01*
X58599Y57005D01*
X58682Y57068D01*
X58745Y57151D01*
X58785Y57247D01*
X58799Y57350D01*
X58785Y57453D01*
X58745Y57549D01*
X58682Y57632D01*
X58599Y57695D01*
X58503Y57735D01*
X58400Y57749D01*
D02*
G37*
G36*
X73300Y57549D02*
X73197Y57535D01*
X73101Y57495D01*
X73018Y57432D01*
X72955Y57349D01*
X72915Y57253D01*
X72901Y57150D01*
X72915Y57047D01*
X72955Y56951D01*
X73018Y56868D01*
X73101Y56805D01*
X73197Y56765D01*
X73300Y56751D01*
X73403Y56765D01*
X73499Y56805D01*
X73582Y56868D01*
X73645Y56951D01*
X73685Y57047D01*
X73699Y57150D01*
X73685Y57253D01*
X73645Y57349D01*
X73582Y57432D01*
X73499Y57495D01*
X73403Y57535D01*
X73300Y57549D01*
D02*
G37*
G36*
X58400Y56749D02*
X58297Y56735D01*
X58201Y56695D01*
X58118Y56632D01*
X58055Y56549D01*
X58015Y56453D01*
X58001Y56350D01*
X58015Y56247D01*
X58055Y56151D01*
X58118Y56068D01*
X58201Y56005D01*
X58297Y55965D01*
X58400Y55951D01*
X58503Y55965D01*
X58599Y56005D01*
X58682Y56068D01*
X58745Y56151D01*
X58785Y56247D01*
X58799Y56350D01*
X58785Y56453D01*
X58745Y56549D01*
X58682Y56632D01*
X58599Y56695D01*
X58503Y56735D01*
X58400Y56749D01*
D02*
G37*
G36*
X73300Y56549D02*
X73197Y56535D01*
X73101Y56495D01*
X73018Y56432D01*
X72955Y56349D01*
X72915Y56253D01*
X72901Y56150D01*
X72915Y56047D01*
X72955Y55951D01*
X73018Y55868D01*
X73101Y55805D01*
X73197Y55765D01*
X73300Y55751D01*
X73403Y55765D01*
X73499Y55805D01*
X73582Y55868D01*
X73645Y55951D01*
X73685Y56047D01*
X73699Y56150D01*
X73685Y56253D01*
X73645Y56349D01*
X73582Y56432D01*
X73499Y56495D01*
X73403Y56535D01*
X73300Y56549D01*
D02*
G37*
G36*
Y55549D02*
X73197Y55535D01*
X73101Y55495D01*
X73018Y55432D01*
X72955Y55349D01*
X72915Y55253D01*
X72901Y55150D01*
X72915Y55047D01*
X72955Y54951D01*
X73018Y54868D01*
X73101Y54805D01*
X73197Y54765D01*
X73300Y54751D01*
X73403Y54765D01*
X73499Y54805D01*
X73582Y54868D01*
X73645Y54951D01*
X73685Y55047D01*
X73699Y55150D01*
X73685Y55253D01*
X73645Y55349D01*
X73582Y55432D01*
X73499Y55495D01*
X73403Y55535D01*
X73300Y55549D01*
D02*
G37*
G36*
X58795Y54745D02*
X58005D01*
Y53955D01*
X58795D01*
Y54745D01*
D02*
G37*
G36*
X73300Y54549D02*
X73197Y54535D01*
X73101Y54495D01*
X73018Y54432D01*
X72955Y54349D01*
X72915Y54253D01*
X72901Y54150D01*
X72915Y54047D01*
X72955Y53951D01*
X73018Y53868D01*
X73101Y53805D01*
X73197Y53765D01*
X73300Y53751D01*
X73403Y53765D01*
X73499Y53805D01*
X73582Y53868D01*
X73645Y53951D01*
X73685Y54047D01*
X73699Y54150D01*
X73685Y54253D01*
X73645Y54349D01*
X73582Y54432D01*
X73499Y54495D01*
X73403Y54535D01*
X73300Y54549D01*
D02*
G37*
G36*
X51250Y54149D02*
X51147Y54135D01*
X51051Y54095D01*
X50968Y54032D01*
X50905Y53949D01*
X50865Y53853D01*
X50851Y53750D01*
X50865Y53647D01*
X50905Y53551D01*
X50968Y53468D01*
X51051Y53405D01*
X51147Y53365D01*
X51250Y53351D01*
X51353Y53365D01*
X51449Y53405D01*
X51532Y53468D01*
X51595Y53551D01*
X51635Y53647D01*
X51649Y53750D01*
X51635Y53853D01*
X51595Y53949D01*
X51532Y54032D01*
X51449Y54095D01*
X51353Y54135D01*
X51250Y54149D01*
D02*
G37*
G36*
X73300Y53549D02*
X73197Y53535D01*
X73101Y53495D01*
X73018Y53432D01*
X72955Y53349D01*
X72915Y53253D01*
X72901Y53150D01*
X72915Y53047D01*
X72955Y52951D01*
X73018Y52868D01*
X73101Y52805D01*
X73197Y52765D01*
X73300Y52751D01*
X73403Y52765D01*
X73499Y52805D01*
X73582Y52868D01*
X73645Y52951D01*
X73685Y53047D01*
X73699Y53150D01*
X73685Y53253D01*
X73645Y53349D01*
X73582Y53432D01*
X73499Y53495D01*
X73403Y53535D01*
X73300Y53549D01*
D02*
G37*
G36*
X51250Y53149D02*
X51147Y53135D01*
X51051Y53095D01*
X50968Y53032D01*
X50905Y52949D01*
X50865Y52853D01*
X50851Y52750D01*
X50865Y52647D01*
X50905Y52551D01*
X50968Y52468D01*
X51051Y52405D01*
X51147Y52365D01*
X51250Y52351D01*
X51353Y52365D01*
X51449Y52405D01*
X51532Y52468D01*
X51595Y52551D01*
X51635Y52647D01*
X51649Y52750D01*
X51635Y52853D01*
X51595Y52949D01*
X51532Y53032D01*
X51449Y53095D01*
X51353Y53135D01*
X51250Y53149D01*
D02*
G37*
G36*
X73300Y52549D02*
X73197Y52535D01*
X73101Y52495D01*
X73018Y52432D01*
X72955Y52349D01*
X72915Y52253D01*
X72901Y52150D01*
X72915Y52047D01*
X72955Y51951D01*
X73018Y51868D01*
X73101Y51805D01*
X73197Y51765D01*
X73300Y51751D01*
X73403Y51765D01*
X73499Y51805D01*
X73582Y51868D01*
X73645Y51951D01*
X73685Y52047D01*
X73699Y52150D01*
X73685Y52253D01*
X73645Y52349D01*
X73582Y52432D01*
X73499Y52495D01*
X73403Y52535D01*
X73300Y52549D01*
D02*
G37*
G36*
X51250Y52149D02*
X51147Y52135D01*
X51051Y52095D01*
X50968Y52032D01*
X50905Y51949D01*
X50865Y51853D01*
X50851Y51750D01*
X50865Y51647D01*
X50905Y51551D01*
X50968Y51468D01*
X51051Y51405D01*
X51147Y51365D01*
X51250Y51351D01*
X51353Y51365D01*
X51449Y51405D01*
X51532Y51468D01*
X51595Y51551D01*
X51635Y51647D01*
X51649Y51750D01*
X51635Y51853D01*
X51595Y51949D01*
X51532Y52032D01*
X51449Y52095D01*
X51353Y52135D01*
X51250Y52149D01*
D02*
G37*
G36*
X73300Y51549D02*
X73197Y51535D01*
X73101Y51495D01*
X73018Y51432D01*
X72955Y51349D01*
X72915Y51253D01*
X72901Y51150D01*
X72915Y51047D01*
X72955Y50951D01*
X73018Y50868D01*
X73101Y50805D01*
X73197Y50765D01*
X73300Y50751D01*
X73403Y50765D01*
X73499Y50805D01*
X73582Y50868D01*
X73645Y50951D01*
X73685Y51047D01*
X73699Y51150D01*
X73685Y51253D01*
X73645Y51349D01*
X73582Y51432D01*
X73499Y51495D01*
X73403Y51535D01*
X73300Y51549D01*
D02*
G37*
G36*
Y50549D02*
X73197Y50535D01*
X73101Y50495D01*
X73018Y50432D01*
X72955Y50349D01*
X72915Y50253D01*
X72901Y50150D01*
X72915Y50047D01*
X72955Y49951D01*
X73018Y49868D01*
X73101Y49805D01*
X73197Y49765D01*
X73300Y49751D01*
X73403Y49765D01*
X73499Y49805D01*
X73582Y49868D01*
X73645Y49951D01*
X73685Y50047D01*
X73699Y50150D01*
X73685Y50253D01*
X73645Y50349D01*
X73582Y50432D01*
X73499Y50495D01*
X73403Y50535D01*
X73300Y50549D01*
D02*
G37*
G36*
Y49549D02*
X73197Y49535D01*
X73101Y49495D01*
X73018Y49432D01*
X72955Y49349D01*
X72915Y49253D01*
X72901Y49150D01*
X72915Y49047D01*
X72955Y48951D01*
X73018Y48868D01*
X73101Y48805D01*
X73197Y48765D01*
X73300Y48751D01*
X73403Y48765D01*
X73499Y48805D01*
X73582Y48868D01*
X73645Y48951D01*
X73685Y49047D01*
X73699Y49150D01*
X73685Y49253D01*
X73645Y49349D01*
X73582Y49432D01*
X73499Y49495D01*
X73403Y49535D01*
X73300Y49549D01*
D02*
G37*
G36*
X61850Y49389D02*
X61762Y49378D01*
X61680Y49344D01*
X61610Y49290D01*
X61556Y49220D01*
X61522Y49138D01*
X61511Y49050D01*
X61522Y48962D01*
X61556Y48880D01*
X61610Y48810D01*
X61680Y48756D01*
X61762Y48722D01*
X61850Y48711D01*
X61938Y48722D01*
X62020Y48756D01*
X62090Y48810D01*
X62144Y48880D01*
X62178Y48962D01*
X62189Y49050D01*
X62178Y49138D01*
X62144Y49220D01*
X62090Y49290D01*
X62020Y49344D01*
X61938Y49378D01*
X61850Y49389D01*
D02*
G37*
G36*
X73300Y48549D02*
X73197Y48535D01*
X73101Y48495D01*
X73018Y48432D01*
X72955Y48349D01*
X72915Y48253D01*
X72901Y48150D01*
X72915Y48047D01*
X72955Y47951D01*
X73018Y47868D01*
X73101Y47805D01*
X73197Y47765D01*
X73300Y47751D01*
X73403Y47765D01*
X73499Y47805D01*
X73582Y47868D01*
X73645Y47951D01*
X73685Y48047D01*
X73699Y48150D01*
X73685Y48253D01*
X73645Y48349D01*
X73582Y48432D01*
X73499Y48495D01*
X73403Y48535D01*
X73300Y48549D01*
D02*
G37*
G36*
Y47549D02*
X73197Y47535D01*
X73101Y47495D01*
X73018Y47432D01*
X72955Y47349D01*
X72915Y47253D01*
X72901Y47150D01*
X72915Y47047D01*
X72955Y46951D01*
X73018Y46868D01*
X73101Y46805D01*
X73197Y46765D01*
X73300Y46751D01*
X73403Y46765D01*
X73499Y46805D01*
X73582Y46868D01*
X73645Y46951D01*
X73685Y47047D01*
X73699Y47150D01*
X73685Y47253D01*
X73645Y47349D01*
X73582Y47432D01*
X73499Y47495D01*
X73403Y47535D01*
X73300Y47549D01*
D02*
G37*
G36*
X85505Y46063D02*
X85340Y46047D01*
X85182Y45999D01*
X85037Y45921D01*
X84909Y45816D01*
X84804Y45689D01*
X84727Y45543D01*
X84679Y45385D01*
X84662Y45221D01*
X84679Y45057D01*
X84727Y44899D01*
X84804Y44753D01*
X84909Y44625D01*
X85037Y44521D01*
X85182Y44443D01*
X85340Y44395D01*
X85505Y44379D01*
X85669Y44395D01*
X85827Y44443D01*
X85973Y44521D01*
X86100Y44625D01*
X86205Y44753D01*
X86283Y44899D01*
X86331Y45057D01*
X86347Y45221D01*
X86331Y45385D01*
X86283Y45543D01*
X86205Y45689D01*
X86100Y45816D01*
X85973Y45921D01*
X85827Y45999D01*
X85669Y46047D01*
X85505Y46063D01*
D02*
G37*
G36*
X73300D02*
X73136Y46047D01*
X72978Y45999D01*
X72832Y45921D01*
X72704Y45816D01*
X72600Y45689D01*
X72522Y45543D01*
X72474Y45385D01*
X72458Y45221D01*
X72474Y45057D01*
X72522Y44899D01*
X72600Y44753D01*
X72704Y44625D01*
X72832Y44521D01*
X72978Y44443D01*
X73136Y44395D01*
X73300Y44379D01*
X73464Y44395D01*
X73622Y44443D01*
X73768Y44521D01*
X73896Y44625D01*
X74000Y44753D01*
X74078Y44899D01*
X74126Y45057D01*
X74142Y45221D01*
X74126Y45385D01*
X74078Y45543D01*
X74000Y45689D01*
X73896Y45816D01*
X73768Y45921D01*
X73622Y45999D01*
X73464Y46047D01*
X73300Y46063D01*
D02*
G37*
G36*
X84646Y42083D02*
X84501Y42068D01*
X84361Y42026D01*
X84232Y41957D01*
X84119Y41865D01*
X84027Y41752D01*
X83958Y41623D01*
X83916Y41484D01*
X83902Y41339D01*
X83916Y41193D01*
X83958Y41054D01*
X84027Y40925D01*
X84119Y40812D01*
X84232Y40720D01*
X84361Y40651D01*
X84501Y40609D01*
X84646Y40594D01*
X84791Y40609D01*
X84930Y40651D01*
X85059Y40720D01*
X85172Y40812D01*
X85264Y40925D01*
X85333Y41054D01*
X85375Y41193D01*
X85390Y41339D01*
X85375Y41484D01*
X85333Y41623D01*
X85264Y41752D01*
X85172Y41865D01*
X85059Y41957D01*
X84930Y42026D01*
X84791Y42068D01*
X84646Y42083D01*
D02*
G37*
G36*
X41339D02*
X41193Y42068D01*
X41054Y42026D01*
X40925Y41957D01*
X40812Y41865D01*
X40720Y41752D01*
X40651Y41623D01*
X40609Y41484D01*
X40594Y41339D01*
X40609Y41193D01*
X40651Y41054D01*
X40720Y40925D01*
X40812Y40812D01*
X40925Y40720D01*
X41054Y40651D01*
X41193Y40609D01*
X41339Y40594D01*
X41484Y40609D01*
X41623Y40651D01*
X41752Y40720D01*
X41865Y40812D01*
X41957Y40925D01*
X42026Y41054D01*
X42068Y41193D01*
X42083Y41339D01*
X42068Y41484D01*
X42026Y41623D01*
X41957Y41752D01*
X41865Y41865D01*
X41752Y41957D01*
X41623Y42026D01*
X41484Y42068D01*
X41339Y42083D01*
D02*
G37*
%LPD*%
G36*
X84759Y77196D02*
X84865Y77152D01*
X84956Y77082D01*
X85026Y76991D01*
X85070Y76885D01*
X85085Y76772D01*
X85070Y76658D01*
X85026Y76552D01*
X84956Y76461D01*
X84865Y76391D01*
X84759Y76347D01*
X84646Y76332D01*
X84532Y76347D01*
X84426Y76391D01*
X84335Y76461D01*
X84265Y76552D01*
X84221Y76658D01*
X84206Y76772D01*
X84221Y76885D01*
X84265Y76991D01*
X84335Y77082D01*
X84426Y77152D01*
X84532Y77196D01*
X84646Y77211D01*
X84759Y77196D01*
D02*
G37*
G36*
X41452D02*
X41558Y77152D01*
X41649Y77082D01*
X41719Y76991D01*
X41763Y76885D01*
X41778Y76772D01*
X41763Y76658D01*
X41719Y76552D01*
X41649Y76461D01*
X41558Y76391D01*
X41452Y76347D01*
X41339Y76332D01*
X41225Y76347D01*
X41119Y76391D01*
X41028Y76461D01*
X40958Y76552D01*
X40914Y76658D01*
X40899Y76772D01*
X40914Y76885D01*
X40958Y76991D01*
X41028Y77082D01*
X41119Y77152D01*
X41225Y77196D01*
X41339Y77211D01*
X41452Y77196D01*
D02*
G37*
G36*
X53705Y77629D02*
Y77055D01*
X53947D01*
Y75515D01*
X53902Y75493D01*
X53899Y75495D01*
X53803Y75535D01*
X53700Y75549D01*
X53597Y75535D01*
X53501Y75495D01*
X53418Y75432D01*
X53355Y75349D01*
X53315Y75253D01*
X53301Y75150D01*
X53315Y75047D01*
X53355Y74951D01*
X53418Y74868D01*
X53501Y74805D01*
X53597Y74765D01*
X53700Y74751D01*
X53803Y74765D01*
X53899Y74805D01*
X53947Y74841D01*
X53997Y74817D01*
Y74483D01*
X53947Y74459D01*
X53899Y74495D01*
X53803Y74535D01*
X53700Y74549D01*
X53597Y74535D01*
X53501Y74495D01*
X53418Y74432D01*
X53355Y74349D01*
X53315Y74253D01*
X53301Y74150D01*
X53315Y74047D01*
X53355Y73951D01*
X53418Y73868D01*
X53501Y73805D01*
X53597Y73765D01*
X53700Y73751D01*
X53803Y73765D01*
X53899Y73805D01*
X53947Y73841D01*
X53997Y73817D01*
Y73663D01*
X53850Y73516D01*
X53803Y73535D01*
X53700Y73549D01*
X53597Y73535D01*
X53501Y73495D01*
X53418Y73432D01*
X53355Y73349D01*
X53315Y73253D01*
X53301Y73150D01*
X53315Y73047D01*
X53334Y73000D01*
X53142Y72808D01*
X53109Y72759D01*
X53097Y72700D01*
Y67672D01*
X53109Y67613D01*
X53142Y67564D01*
X53379Y67327D01*
Y67200D01*
X52959D01*
Y65700D01*
X53379D01*
Y65333D01*
X53274Y65228D01*
X53241Y65179D01*
X53229Y65120D01*
Y64700D01*
X52903D01*
Y76467D01*
X53208Y76772D01*
X53241Y76821D01*
X53253Y76880D01*
Y77086D01*
X53299Y77105D01*
X53382Y77168D01*
X53445Y77251D01*
X53485Y77347D01*
X53499Y77450D01*
X53485Y77553D01*
X53445Y77649D01*
X53409Y77697D01*
X53433Y77747D01*
X53587D01*
X53705Y77629D01*
D02*
G37*
G36*
X54397Y73063D02*
X53850Y72516D01*
X53803Y72535D01*
X53700Y72549D01*
X53597Y72535D01*
X53501Y72495D01*
X53453Y72459D01*
X53403Y72483D01*
Y72637D01*
X53550Y72784D01*
X53597Y72765D01*
X53700Y72751D01*
X53803Y72765D01*
X53899Y72805D01*
X53982Y72868D01*
X54045Y72951D01*
X54085Y73047D01*
X54099Y73150D01*
X54085Y73253D01*
X54066Y73300D01*
X54258Y73492D01*
X54291Y73541D01*
X54303Y73600D01*
Y75300D01*
X54291Y75359D01*
X54258Y75408D01*
X54253Y75413D01*
Y77055D01*
X54397D01*
Y73063D01*
D02*
G37*
G36*
X43940Y72943D02*
X43952Y72885D01*
X43985Y72835D01*
X44113Y72707D01*
Y70316D01*
X43872D01*
X43744Y70299D01*
X43671Y70269D01*
X43649Y70288D01*
X43634Y70308D01*
X43644Y70360D01*
Y70906D01*
X43985D01*
Y71894D01*
X43214D01*
X42343Y72764D01*
Y73782D01*
X43940D01*
Y72943D01*
D02*
G37*
G36*
X63569Y66749D02*
X63660Y66737D01*
X63751Y66749D01*
X63775Y66759D01*
X64187Y66347D01*
Y64738D01*
X64137Y64709D01*
X64067Y64722D01*
X63398D01*
X63323Y64707D01*
X63273Y64734D01*
Y66131D01*
X63331Y66139D01*
X63417Y66174D01*
X63490Y66230D01*
X63546Y66303D01*
X63581Y66389D01*
X63593Y66480D01*
X63581Y66571D01*
X63546Y66657D01*
X63492Y66727D01*
X63492Y66732D01*
X63531Y66764D01*
X63569Y66749D01*
D02*
G37*
G36*
X55001Y68777D02*
X54972Y68739D01*
X54934Y68648D01*
X54921Y68550D01*
X54934Y68452D01*
X54949Y68415D01*
X54647Y68113D01*
X54613Y68063D01*
X54602Y68005D01*
Y54023D01*
X54552Y54006D01*
X54532Y54032D01*
X54449Y54095D01*
X54353Y54135D01*
X54250Y54149D01*
X54147Y54135D01*
X54051Y54095D01*
X53968Y54032D01*
X53905Y53949D01*
X53865Y53853D01*
X53851Y53750D01*
X53865Y53647D01*
X53905Y53551D01*
X53968Y53468D01*
X54051Y53405D01*
X54147Y53365D01*
X54250Y53351D01*
X54353Y53365D01*
X54449Y53405D01*
X54532Y53468D01*
X54552Y53494D01*
X54602Y53477D01*
Y53023D01*
X54552Y53006D01*
X54532Y53032D01*
X54449Y53095D01*
X54353Y53135D01*
X54250Y53149D01*
X54147Y53135D01*
X54051Y53095D01*
X53968Y53032D01*
X53905Y52949D01*
X53865Y52853D01*
X53851Y52750D01*
X53865Y52647D01*
X53905Y52551D01*
X53968Y52468D01*
X54051Y52405D01*
X54147Y52365D01*
X54250Y52351D01*
X54353Y52365D01*
X54449Y52405D01*
X54532Y52468D01*
X54552Y52494D01*
X54602Y52477D01*
Y52023D01*
X54552Y52006D01*
X54532Y52032D01*
X54449Y52095D01*
X54353Y52135D01*
X54250Y52149D01*
X54147Y52135D01*
X54051Y52095D01*
X53968Y52032D01*
X53905Y51949D01*
X53865Y51853D01*
X53851Y51750D01*
X53865Y51647D01*
X53905Y51551D01*
X53968Y51468D01*
X54051Y51405D01*
X54147Y51365D01*
X54250Y51351D01*
X54353Y51365D01*
X54449Y51405D01*
X54532Y51468D01*
X54552Y51494D01*
X54602Y51477D01*
Y51145D01*
X53855D01*
Y50355D01*
X54602D01*
Y48487D01*
X54613Y48428D01*
X54647Y48378D01*
X55191Y47835D01*
X55175Y47798D01*
X55163Y47700D01*
X55175Y47602D01*
X55213Y47511D01*
X55273Y47432D01*
X55352Y47372D01*
X55443Y47334D01*
X55541Y47321D01*
X55639Y47334D01*
X55731Y47372D01*
X55809Y47432D01*
X55869Y47511D01*
X55907Y47602D01*
X55920Y47700D01*
X55907Y47798D01*
X55869Y47889D01*
X55809Y47968D01*
X55731Y48028D01*
X55639Y48066D01*
X55541Y48079D01*
X55443Y48066D01*
X55407Y48051D01*
X54908Y48550D01*
Y54561D01*
X54954Y54580D01*
X55034Y54500D01*
X55015Y54453D01*
X55001Y54350D01*
X55015Y54247D01*
X55055Y54151D01*
X55118Y54068D01*
X55201Y54005D01*
X55297Y53965D01*
X55400Y53951D01*
X55503Y53965D01*
X55550Y53984D01*
X59415Y50119D01*
Y44900D01*
X59035D01*
X58836Y45098D01*
X58787Y45131D01*
X58728Y45143D01*
X55549D01*
X55491Y45131D01*
X55441Y45098D01*
X55343Y45000D01*
X54237D01*
Y43563D01*
X52977D01*
X52646Y43894D01*
Y44106D01*
X52659Y44109D01*
X52708Y44142D01*
X53058Y44492D01*
X53091Y44541D01*
X53103Y44600D01*
Y56696D01*
X53162Y56741D01*
X53209Y56803D01*
X53239Y56876D01*
X53249Y56953D01*
Y57347D01*
X53239Y57424D01*
X53209Y57497D01*
X53162Y57559D01*
X53103Y57604D01*
Y60946D01*
X53162Y60991D01*
X53209Y61053D01*
X53239Y61126D01*
X53249Y61203D01*
Y61597D01*
X53239Y61674D01*
X53209Y61747D01*
X53162Y61809D01*
X53100Y61856D01*
X53027Y61886D01*
X52950Y61896D01*
X52873Y61886D01*
X52800Y61856D01*
X52738Y61809D01*
X52725Y61791D01*
X52675D01*
X52662Y61809D01*
X52600Y61856D01*
X52527Y61886D01*
X52450Y61896D01*
X52373Y61886D01*
X52300Y61856D01*
X52238Y61809D01*
X52225Y61791D01*
X52175D01*
X52162Y61809D01*
X52103Y61854D01*
Y64707D01*
X52551Y65155D01*
X52597Y65135D01*
Y63120D01*
X52609Y63061D01*
X52642Y63012D01*
X52691Y62979D01*
X52750Y62967D01*
X53900D01*
X53959Y62979D01*
X54008Y63012D01*
X54488Y63492D01*
X54521Y63541D01*
X54533Y63600D01*
Y68787D01*
X54573Y68827D01*
X54976D01*
X55001Y68777D01*
D02*
G37*
G36*
X43623Y69387D02*
X43744Y69338D01*
X43872Y69321D01*
X44113D01*
Y66594D01*
X44125Y66535D01*
X44158Y66486D01*
X44547Y66097D01*
Y62364D01*
X44497Y62339D01*
X44427Y62393D01*
X44317Y62438D01*
X44200Y62454D01*
X44083Y62438D01*
X44009Y62408D01*
X43953Y62463D01*
Y64357D01*
X43989Y64372D01*
X44068Y64432D01*
X44128Y64511D01*
X44166Y64602D01*
X44179Y64700D01*
X44166Y64798D01*
X44128Y64889D01*
X44068Y64968D01*
X43989Y65028D01*
X43898Y65066D01*
X43800Y65079D01*
X43702Y65066D01*
X43611Y65028D01*
X43573Y64999D01*
X43523Y65024D01*
Y65767D01*
X43668Y65912D01*
X43701Y65961D01*
X43713Y66020D01*
Y68840D01*
X43701Y68899D01*
X43668Y68948D01*
X43473Y69143D01*
Y69450D01*
X43506Y69462D01*
X43523Y69464D01*
X43623Y69387D01*
D02*
G37*
G36*
X43611Y64372D02*
X43647Y64357D01*
Y62400D01*
X43659Y62341D01*
X43692Y62292D01*
X43792Y62191D01*
X43762Y62117D01*
X43746Y62000D01*
X43762Y61883D01*
X43807Y61773D01*
X43879Y61679D01*
X43973Y61607D01*
X44083Y61562D01*
X44200Y61546D01*
X44317Y61562D01*
X44427Y61607D01*
X44497Y61661D01*
X44547Y61636D01*
Y61563D01*
X44391Y61408D01*
X44317Y61438D01*
X44200Y61454D01*
X44083Y61438D01*
X43973Y61393D01*
X43879Y61321D01*
X43807Y61227D01*
X43762Y61117D01*
X43746Y61000D01*
X43762Y60883D01*
X43807Y60773D01*
X43879Y60679D01*
X43973Y60607D01*
X44047Y60576D01*
Y54500D01*
X44059Y54441D01*
X44092Y54392D01*
X45029Y53454D01*
X45022Y53438D01*
X45011Y53350D01*
X45022Y53262D01*
X45056Y53180D01*
X45110Y53110D01*
X45180Y53056D01*
X45262Y53022D01*
X45350Y53011D01*
X45389Y53016D01*
X45427Y52983D01*
Y50036D01*
X45030D01*
X43523Y51543D01*
Y64376D01*
X43573Y64401D01*
X43611Y64372D01*
D02*
G37*
G36*
X52738Y60991D02*
X52797Y60946D01*
Y57604D01*
X52738Y57559D01*
X52725Y57541D01*
X52675D01*
X52662Y57559D01*
X52600Y57606D01*
X52527Y57636D01*
X52450Y57646D01*
X52373Y57636D01*
X52300Y57606D01*
X52238Y57559D01*
X52225Y57541D01*
X52175D01*
X52162Y57559D01*
X52103Y57604D01*
Y60946D01*
X52162Y60991D01*
X52175Y61009D01*
X52225D01*
X52238Y60991D01*
X52300Y60944D01*
X52373Y60914D01*
X52450Y60904D01*
X52527Y60914D01*
X52600Y60944D01*
X52662Y60991D01*
X52675Y61009D01*
X52725D01*
X52738Y60991D01*
D02*
G37*
G36*
X55202Y68184D02*
X55300Y68171D01*
X55341Y68177D01*
X55370Y68130D01*
X55349Y68099D01*
X55337Y68040D01*
Y58149D01*
X54954Y57765D01*
X54908Y57785D01*
Y67941D01*
X55165Y68199D01*
X55202Y68184D01*
D02*
G37*
G36*
X48935Y77539D02*
X48922Y77197D01*
X47438D01*
Y77053D01*
X47200D01*
X47141Y77041D01*
X47092Y77008D01*
X46692Y76608D01*
X46659Y76559D01*
X46647Y76500D01*
Y65043D01*
X46611Y65028D01*
X46532Y64968D01*
X46472Y64889D01*
X46434Y64798D01*
X46421Y64700D01*
X46434Y64602D01*
X46472Y64511D01*
X46532Y64432D01*
X46611Y64372D01*
X46647Y64357D01*
Y57863D01*
X45470Y56686D01*
X45014D01*
Y56014D01*
X45470D01*
X45627Y55857D01*
Y53618D01*
X45577Y53600D01*
X45520Y53644D01*
X45438Y53678D01*
X45350Y53689D01*
X45262Y53678D01*
X45246Y53671D01*
X44353Y54563D01*
Y60576D01*
X44427Y60607D01*
X44521Y60679D01*
X44593Y60773D01*
X44638Y60883D01*
X44654Y61000D01*
X44638Y61117D01*
X44608Y61191D01*
X44808Y61392D01*
X44841Y61441D01*
X44853Y61500D01*
Y66160D01*
X44841Y66219D01*
X44808Y66268D01*
X44419Y66657D01*
Y69321D01*
X44660D01*
X44789Y69338D01*
X44909Y69387D01*
X45012Y69466D01*
X45091Y69570D01*
X45141Y69690D01*
X45158Y69819D01*
X45141Y69947D01*
X45091Y70067D01*
X45012Y70171D01*
X44909Y70250D01*
X44789Y70299D01*
X44660Y70316D01*
X44419D01*
Y72770D01*
X44407Y72829D01*
X44374Y72878D01*
X44246Y73007D01*
Y73782D01*
X45945D01*
Y77917D01*
X48557D01*
X48935Y77539D01*
D02*
G37*
G36*
X45627Y46895D02*
Y43575D01*
X45137Y43084D01*
X43135D01*
Y43248D01*
X42363D01*
Y43697D01*
X45046Y46379D01*
X45062Y46372D01*
X45150Y46361D01*
X45238Y46372D01*
X45320Y46406D01*
X45390Y46460D01*
X45444Y46530D01*
X45478Y46612D01*
X45489Y46700D01*
X45478Y46788D01*
X45471Y46804D01*
X45581Y46915D01*
X45627Y46895D01*
D02*
G37*
G36*
X55201Y55005D02*
X55297Y54965D01*
X55400Y54951D01*
X55503Y54965D01*
X55550Y54984D01*
X60047Y50487D01*
Y44900D01*
X59721D01*
Y50182D01*
X59709Y50240D01*
X59676Y50290D01*
X55766Y54200D01*
X55785Y54247D01*
X55799Y54350D01*
X55785Y54453D01*
X55745Y54549D01*
X55682Y54632D01*
X55599Y54695D01*
X55503Y54735D01*
X55400Y54749D01*
X55297Y54735D01*
X55250Y54716D01*
X55108Y54859D01*
Y55013D01*
X55158Y55038D01*
X55201Y55005D01*
D02*
G37*
G36*
X56259Y43794D02*
X56029Y43563D01*
X55382D01*
Y44606D01*
X55613Y44837D01*
X56259D01*
Y43794D01*
D02*
G37*
G36*
X52805Y43302D02*
X53447Y42660D01*
Y41304D01*
X53388Y41259D01*
X53375Y41241D01*
X53325D01*
X53312Y41259D01*
X53250Y41306D01*
X53177Y41336D01*
X53100Y41346D01*
X53023Y41336D01*
X52950Y41306D01*
X52888Y41259D01*
X52875Y41241D01*
X52825D01*
X52812Y41259D01*
X52753Y41304D01*
Y41420D01*
X52741Y41479D01*
X52708Y41528D01*
X51603Y42633D01*
Y43500D01*
X52607D01*
X52805Y43302D01*
D02*
G37*
G36*
X60047Y40863D02*
X59891Y40707D01*
X59841Y40728D01*
Y41078D01*
X59831Y41156D01*
X59801Y41228D01*
X59753Y41290D01*
X59691Y41338D01*
X59619Y41368D01*
X59541Y41378D01*
X59464Y41368D01*
X59392Y41338D01*
X59330Y41290D01*
X59316Y41273D01*
X59266D01*
X59253Y41290D01*
X59191Y41338D01*
X59119Y41368D01*
X59041Y41378D01*
X58964Y41368D01*
X58892Y41338D01*
X58862Y41378D01*
X59676Y42192D01*
X59709Y42241D01*
X59721Y42300D01*
Y43400D01*
X60047D01*
Y40863D01*
D02*
G37*
G36*
X58996Y44506D02*
Y43400D01*
X59415D01*
Y42363D01*
X58433Y41381D01*
X58409Y41345D01*
X58392Y41338D01*
X58330Y41290D01*
X58282Y41228D01*
X58252Y41156D01*
X58242Y41078D01*
Y40685D01*
X58252Y40607D01*
X58282Y40535D01*
X58307Y40503D01*
X58282Y40453D01*
X53877D01*
X53855Y40498D01*
X53859Y40503D01*
X53889Y40576D01*
X53899Y40653D01*
Y41047D01*
X53889Y41124D01*
X53859Y41197D01*
X53812Y41259D01*
X53753Y41304D01*
Y42723D01*
X53741Y42782D01*
X53708Y42831D01*
X53329Y43211D01*
X53348Y43257D01*
X56092D01*
X56150Y43269D01*
X56200Y43302D01*
X56299Y43400D01*
X57404D01*
Y44837D01*
X58665D01*
X58996Y44506D01*
D02*
G37*
%LPC*%
G36*
X55541Y46379D02*
X55443Y46366D01*
X55352Y46328D01*
X55273Y46268D01*
X55213Y46189D01*
X55175Y46098D01*
X55163Y46000D01*
X55175Y45902D01*
X55213Y45811D01*
X55273Y45732D01*
X55352Y45672D01*
X55443Y45634D01*
X55541Y45621D01*
X55639Y45634D01*
X55731Y45672D01*
X55809Y45732D01*
X55869Y45811D01*
X55907Y45902D01*
X55920Y46000D01*
X55907Y46098D01*
X55869Y46189D01*
X55809Y46268D01*
X55731Y46328D01*
X55639Y46366D01*
X55541Y46379D01*
D02*
G37*
G36*
X45447Y68742D02*
X45318Y68725D01*
X45198Y68675D01*
X45095Y68596D01*
X45016Y68493D01*
X44966Y68373D01*
X44949Y68244D01*
Y67456D01*
X44966Y67327D01*
X45016Y67207D01*
X45095Y67104D01*
X45198Y67025D01*
X45318Y66975D01*
X45447Y66958D01*
X45576Y66975D01*
X45696Y67025D01*
X45799Y67104D01*
X45878Y67207D01*
X45928Y67327D01*
X45945Y67456D01*
Y68244D01*
X45928Y68373D01*
X45878Y68493D01*
X45799Y68596D01*
X45696Y68675D01*
X45576Y68725D01*
X45447Y68742D01*
D02*
G37*
%LPD*%
G36*
X84759Y41763D02*
X84865Y41719D01*
X84956Y41649D01*
X85026Y41558D01*
X85070Y41452D01*
X85085Y41339D01*
X85070Y41225D01*
X85026Y41119D01*
X84956Y41028D01*
X84865Y40958D01*
X84759Y40914D01*
X84646Y40899D01*
X84532Y40914D01*
X84426Y40958D01*
X84335Y41028D01*
X84265Y41119D01*
X84221Y41225D01*
X84206Y41339D01*
X84221Y41452D01*
X84265Y41558D01*
X84335Y41649D01*
X84426Y41719D01*
X84532Y41763D01*
X84646Y41778D01*
X84759Y41763D01*
D02*
G37*
G36*
X41452D02*
X41558Y41719D01*
X41649Y41649D01*
X41719Y41558D01*
X41763Y41452D01*
X41778Y41339D01*
X41763Y41225D01*
X41719Y41119D01*
X41649Y41028D01*
X41558Y40958D01*
X41452Y40914D01*
X41339Y40899D01*
X41225Y40914D01*
X41119Y40958D01*
X41028Y41028D01*
X40958Y41119D01*
X40914Y41225D01*
X40899Y41339D01*
X40914Y41452D01*
X40958Y41558D01*
X41028Y41649D01*
X41119Y41719D01*
X41225Y41763D01*
X41339Y41778D01*
X41452Y41763D01*
D02*
G37*
D10*
X53382Y63950D02*
D03*
X56118D02*
D03*
X53532Y66450D02*
D03*
X56268D02*
D03*
X56832Y44150D02*
D03*
X59568D02*
D03*
X52073Y44250D02*
D03*
X54809D02*
D03*
D11*
X59841Y73950D02*
D03*
Y75013D02*
D03*
X62741Y75100D02*
D03*
Y76163D02*
D03*
X42700Y41869D02*
D03*
Y42931D02*
D03*
D12*
X63733Y58000D02*
D03*
Y58500D02*
D03*
Y59000D02*
D03*
Y59500D02*
D03*
Y60000D02*
D03*
Y60500D02*
D03*
Y61000D02*
D03*
Y61500D02*
D03*
Y62000D02*
D03*
Y62500D02*
D03*
Y63000D02*
D03*
Y63500D02*
D03*
Y64000D02*
D03*
Y64500D02*
D03*
X60150Y58000D02*
D03*
Y58500D02*
D03*
Y59000D02*
D03*
Y59500D02*
D03*
Y60000D02*
D03*
Y60500D02*
D03*
Y61000D02*
D03*
Y61500D02*
D03*
Y62000D02*
D03*
Y62500D02*
D03*
Y63000D02*
D03*
Y63500D02*
D03*
Y64000D02*
D03*
Y64500D02*
D03*
D13*
X48207Y76900D02*
D03*
Y74900D02*
D03*
D14*
X44093Y75900D02*
D03*
D15*
X52913Y43410D02*
X53600Y42723D01*
X62740Y75100D02*
X62741D01*
X62500D02*
X62740D01*
X62400D02*
X62500D01*
X62740Y69700D02*
Y75100D01*
X61940Y74540D02*
X62500Y75100D01*
X61350Y73950D02*
X61940Y74540D01*
Y74640D01*
Y63200D02*
Y74540D01*
X43960Y42931D02*
X45200D01*
X63120Y66360D02*
X63240Y66480D01*
X63120Y63600D02*
Y66360D01*
Y63600D02*
X63733Y63500D01*
X54755Y48487D02*
X55541Y47700D01*
X54755Y48487D02*
Y68005D01*
X55300Y68550D01*
X63733Y64000D02*
X64240D01*
X64340Y64100D01*
Y66410D01*
X63660Y67090D02*
X64340Y66410D01*
X62400Y58500D02*
X63733D01*
X61940Y58040D02*
X62400Y58500D01*
X61940Y56630D02*
Y58040D01*
Y56630D02*
X63240Y55330D01*
Y45940D02*
Y55330D01*
X62850Y45550D02*
X63240Y45940D01*
X55400Y55350D02*
X60200Y50550D01*
Y40800D02*
Y50550D01*
X59700Y40300D02*
X60200Y40800D01*
X53200Y40300D02*
X59700D01*
X53100Y40850D02*
X53200Y40300D01*
X60291Y65371D02*
Y68481D01*
X56300Y61380D02*
X60291Y65371D01*
X43800Y62400D02*
Y64700D01*
Y62400D02*
X44200Y62000D01*
X56092Y43410D02*
X56832Y44150D01*
X52913Y43410D02*
X56092D01*
X52073Y44250D02*
X52913Y43410D01*
X43491Y70360D02*
Y71400D01*
X43320Y70189D02*
X43491Y70360D01*
X43320Y69080D02*
Y70189D01*
Y69080D02*
X43560Y68840D01*
Y66020D02*
Y68840D01*
X43370Y65830D02*
X43560Y66020D01*
X43370Y51480D02*
Y65830D01*
Y51480D02*
X45150Y49700D01*
X48207Y74900D02*
X48990D01*
X49090Y77600D01*
X48620Y78070D02*
X49090Y77600D01*
X42190Y78070D02*
X48620D01*
X42190Y72701D02*
Y78070D01*
Y72701D02*
X43491Y71400D01*
X57500Y73950D02*
X59841D01*
X56700Y73150D02*
X57500Y73950D01*
X45350Y53350D02*
X45580Y53120D01*
Y47130D02*
Y53120D01*
X45150Y46700D02*
X45580Y47130D01*
X44200Y54500D02*
X45350Y53350D01*
X44200Y54500D02*
Y61000D01*
X45447Y67850D02*
Y68244D01*
Y67456D02*
Y67850D01*
X53100Y76880D02*
Y77450D01*
X52750Y76530D02*
X53100Y76880D01*
X52750Y63120D02*
Y76530D01*
Y63120D02*
X53900D01*
X54380Y63600D01*
Y68850D01*
X54510Y68980D01*
X55600D01*
X55730Y68850D01*
Y68280D02*
Y68850D01*
X55490Y68040D02*
X55730Y68280D01*
X55490Y58085D02*
Y68040D01*
X54955Y57550D02*
X55490Y58085D01*
X54955Y54795D02*
Y57550D01*
Y54795D02*
X55400Y54350D01*
X58728Y44990D02*
X59568Y44150D01*
X55549Y44990D02*
X58728D01*
X54809Y44250D02*
X55549Y44990D01*
X46800Y57800D02*
Y64700D01*
X45350Y56350D02*
X46800Y57800D01*
X60150Y62000D02*
X60660D01*
X60760Y61900D01*
Y40400D02*
Y61900D01*
X60340Y39980D02*
X60760Y40400D01*
X46912Y39980D02*
X60340D01*
X43960Y42931D02*
X46912Y39980D01*
X42700Y42931D02*
X43960D01*
X63140Y61500D02*
X63733D01*
X62840Y61800D02*
X63140Y61500D01*
X62840Y61800D02*
Y69030D01*
X63291Y69482D01*
X56118Y63138D02*
Y63950D01*
X55890Y62910D02*
X56118Y63138D01*
X59841Y73950D02*
X61350D01*
X60150Y62500D02*
X61240D01*
X61940Y63200D01*
Y74640D02*
X62400Y75100D01*
X52600Y40850D02*
Y41420D01*
X51450Y42570D02*
X52600Y41420D01*
X51450Y42570D02*
Y45000D01*
X51970Y45520D01*
Y50030D01*
X51250Y50750D02*
X51970Y50030D01*
X44266Y66594D02*
Y69819D01*
Y66594D02*
X44700Y66160D01*
Y61500D02*
Y66160D01*
X44200Y61000D02*
X44700Y61500D01*
X59568Y44150D02*
Y50182D01*
X55400Y54350D02*
X59568Y50182D01*
X59841Y75013D02*
X60863D01*
X61480Y75630D01*
X64380D01*
X64540Y75470D01*
Y62800D02*
Y75470D01*
X64240Y62500D02*
X64540Y62800D01*
X63733Y62500D02*
X64240D01*
X52450Y56700D02*
Y57150D01*
X52350Y56600D02*
X52450Y56700D01*
X51800Y56600D02*
X52350D01*
X51600Y56800D02*
X51800Y56600D01*
X51600Y56800D02*
Y64710D01*
X52240Y65350D01*
Y77963D01*
X52414Y78136D01*
X54414D01*
X54550Y78000D01*
Y73000D02*
Y78000D01*
X53700Y72150D02*
X54550Y73000D01*
X51950Y61400D02*
Y64770D01*
X52550Y65370D01*
Y77700D01*
X52750Y77900D01*
X53650D01*
X54100Y77450D01*
X62741Y76163D02*
X64800D01*
X65280Y75683D01*
Y62400D02*
Y75683D01*
X64880Y62000D02*
X65280Y62400D01*
X63733Y62000D02*
X64880D01*
X60902Y77350D02*
X62089Y76163D01*
X62741D01*
X42341Y41869D02*
X42700D01*
X42210Y42000D02*
X42341Y41869D01*
X42210Y42000D02*
Y43760D01*
X45150Y46700D01*
X53600Y40850D02*
Y42723D01*
X58541Y40882D02*
Y41273D01*
X59568Y42300D01*
Y44150D01*
X58400Y55350D02*
X59540Y56490D01*
Y62400D01*
X59640Y62500D01*
X60150D01*
X45200Y42931D02*
X45780Y43512D01*
Y55920D01*
X45350Y56350D02*
X45780Y55920D01*
X47200Y76900D02*
X48207D01*
X46800Y76500D02*
X47200Y76900D01*
X46800Y64700D02*
Y76500D01*
X62958Y69482D02*
X63291D01*
X62740Y69700D02*
X62958Y69482D01*
X54100Y75350D02*
Y77450D01*
Y75350D02*
X54150Y75300D01*
Y73600D02*
Y75300D01*
X53700Y73150D02*
X54150Y73600D01*
X52073Y44250D02*
X52600D01*
X52950Y44600D01*
Y57150D01*
X53532Y66450D02*
Y67390D01*
X53250Y67672D02*
X53532Y67390D01*
X53250Y67672D02*
Y72700D01*
X53700Y73150D01*
X59681Y76260D02*
Y77350D01*
Y76260D02*
X59841Y76100D01*
Y75013D02*
Y76100D01*
X56268Y65270D02*
Y66450D01*
X56118Y65120D02*
X56268Y65270D01*
X56118Y63950D02*
Y65120D01*
X52950Y57150D02*
Y61400D01*
X44093Y72943D02*
Y75900D01*
Y72943D02*
X44266Y72770D01*
Y69819D02*
Y72770D01*
X51950Y57150D02*
Y61400D01*
X53532Y65270D02*
Y66450D01*
X53382Y65120D02*
X53532Y65270D01*
X53382Y63950D02*
Y65120D01*
X43006Y67358D02*
Y67850D01*
Y68342D01*
D16*
X66700Y71700D02*
D03*
Y76700D02*
D03*
X51541Y46000D02*
D03*
X55541D02*
D03*
X51541Y47700D02*
D03*
X55541D02*
D03*
X51300Y68550D02*
D03*
X55300D02*
D03*
X53800Y69800D02*
D03*
X57800D02*
D03*
X46800Y64700D02*
D03*
X43800D02*
D03*
D17*
X69900Y69950D02*
D03*
X68900Y73450D02*
D03*
X61850Y49050D02*
D03*
X62850Y45550D02*
D03*
X45150Y46700D02*
D03*
X45350Y53350D02*
D03*
D18*
X68900Y66450D02*
D03*
X62850Y52550D02*
D03*
X45150Y49700D02*
D03*
X45350Y56350D02*
D03*
D19*
X73300Y74748D02*
D03*
X85505D02*
D03*
Y45221D02*
D03*
X73300D02*
D03*
D20*
Y62150D02*
D03*
Y61150D02*
D03*
Y60150D02*
D03*
Y59150D02*
D03*
Y58150D02*
D03*
Y57150D02*
D03*
Y56150D02*
D03*
Y55150D02*
D03*
Y54150D02*
D03*
Y53150D02*
D03*
Y52150D02*
D03*
Y51150D02*
D03*
Y50150D02*
D03*
Y49150D02*
D03*
Y48150D02*
D03*
Y47150D02*
D03*
X53100Y77450D02*
D03*
X44660Y69819D02*
D03*
X43872D02*
D03*
X45447Y67456D02*
D03*
Y68244D02*
D03*
D21*
X59541Y40882D02*
D03*
X58541D02*
D03*
X53600Y40850D02*
D03*
X52600D02*
D03*
X52950Y57150D02*
D03*
X51950D02*
D03*
X52950Y61400D02*
D03*
X51950D02*
D03*
D22*
X59041Y40882D02*
D03*
X53100Y40850D02*
D03*
X52450Y57150D02*
D03*
Y61400D02*
D03*
D23*
X54250Y50750D02*
D03*
X58400Y54350D02*
D03*
X56700Y72150D02*
D03*
X63291Y68481D02*
D03*
D24*
X54250Y51750D02*
D03*
Y52750D02*
D03*
Y53750D02*
D03*
X51250Y50750D02*
D03*
Y51750D02*
D03*
Y52750D02*
D03*
Y53750D02*
D03*
X58400Y55350D02*
D03*
Y56350D02*
D03*
Y57350D02*
D03*
X55400Y54350D02*
D03*
Y55350D02*
D03*
Y56350D02*
D03*
Y57350D02*
D03*
X56700Y73150D02*
D03*
Y74150D02*
D03*
Y75150D02*
D03*
X53700Y72150D02*
D03*
Y73150D02*
D03*
Y74150D02*
D03*
Y75150D02*
D03*
X63291Y69482D02*
D03*
Y70482D02*
D03*
Y71481D02*
D03*
X60291Y68481D02*
D03*
Y69482D02*
D03*
Y70482D02*
D03*
Y71481D02*
D03*
X43006Y68342D02*
D03*
Y67358D02*
D03*
D25*
X54100Y77450D02*
D03*
D26*
X60902Y77350D02*
D03*
X59681D02*
D03*
D27*
X44200Y61000D02*
D03*
Y62000D02*
D03*
D28*
X44266Y69819D02*
D03*
D29*
X45447Y67850D02*
D03*
D30*
X43006D02*
D03*
D31*
X43491Y71400D02*
D03*
D32*
X47609D02*
D03*
D33*
X63240Y66480D02*
D03*
X63660Y67090D02*
D03*
X56300Y61380D02*
D03*
X55890Y62910D02*
D03*
M02*
