G04 Layer_Color=8388736*
%FSLAX24Y24*%
%MOIN*%
G70*
G01*
G75*
%ADD34R,0.1025X0.1379*%
%ADD35R,0.0749X0.0513*%
%ADD36O,0.0986X0.0316*%
%ADD37R,0.1419X0.0474*%
%ADD38R,0.3584X0.4115*%
%ADD39C,0.0631*%
%ADD40C,0.0552*%
%ADD41R,0.0552X0.0552*%
%ADD42C,0.1556*%
%ADD43C,0.0671*%
%ADD44O,0.0474X0.0867*%
%ADD45O,0.0474X0.0867*%
%ADD46R,0.0671X0.0671*%
%ADD47C,0.0671*%
%ADD48R,0.0671X0.0671*%
%ADD49C,0.0592*%
%ADD50C,0.0780*%
%ADD51O,0.1655X0.0867*%
%ADD52O,0.0867X0.1655*%
%ADD53O,0.0867X0.1852*%
%ADD54R,0.0867X0.0867*%
%ADD55C,0.0867*%
%ADD56C,0.0580*%
D34*
X53382Y63950D02*
D03*
X56118D02*
D03*
X53532Y66450D02*
D03*
X56268D02*
D03*
X56832Y44150D02*
D03*
X59568D02*
D03*
X52073Y44250D02*
D03*
X54809D02*
D03*
D35*
X59841Y73950D02*
D03*
Y75013D02*
D03*
X62741Y75100D02*
D03*
Y76163D02*
D03*
X42700Y41869D02*
D03*
Y42931D02*
D03*
D36*
X63733Y58000D02*
D03*
Y58500D02*
D03*
Y59000D02*
D03*
Y59500D02*
D03*
Y60000D02*
D03*
Y60500D02*
D03*
Y61000D02*
D03*
Y61500D02*
D03*
Y62000D02*
D03*
Y62500D02*
D03*
Y63000D02*
D03*
Y63500D02*
D03*
Y64000D02*
D03*
Y64500D02*
D03*
X60150Y58000D02*
D03*
Y58500D02*
D03*
Y59000D02*
D03*
Y59500D02*
D03*
Y60000D02*
D03*
Y60500D02*
D03*
Y61000D02*
D03*
Y61500D02*
D03*
Y62000D02*
D03*
Y62500D02*
D03*
Y63000D02*
D03*
Y63500D02*
D03*
Y64000D02*
D03*
Y64500D02*
D03*
D37*
X48207Y76900D02*
D03*
Y74900D02*
D03*
D38*
X44093Y75900D02*
D03*
D39*
X66700Y71700D02*
D03*
Y76700D02*
D03*
X51541Y46000D02*
D03*
X55541D02*
D03*
X51541Y47700D02*
D03*
X55541D02*
D03*
X51300Y68550D02*
D03*
X55300D02*
D03*
X53800Y69800D02*
D03*
X57800D02*
D03*
X46800Y64700D02*
D03*
X43800D02*
D03*
D40*
X69900Y69950D02*
D03*
X68900Y73450D02*
D03*
X61850Y49050D02*
D03*
X62850Y45550D02*
D03*
X45150Y46700D02*
D03*
X45350Y53350D02*
D03*
D41*
X68900Y66450D02*
D03*
X62850Y52550D02*
D03*
X45150Y49700D02*
D03*
X45350Y56350D02*
D03*
D42*
X73300Y74748D02*
D03*
X85505D02*
D03*
Y45221D02*
D03*
X73300D02*
D03*
D43*
Y62150D02*
D03*
Y61150D02*
D03*
Y60150D02*
D03*
Y59150D02*
D03*
Y58150D02*
D03*
Y57150D02*
D03*
Y56150D02*
D03*
Y55150D02*
D03*
Y54150D02*
D03*
Y53150D02*
D03*
Y52150D02*
D03*
Y51150D02*
D03*
Y50150D02*
D03*
Y49150D02*
D03*
Y48150D02*
D03*
Y47150D02*
D03*
X53100Y77450D02*
D03*
X44660Y69819D02*
D03*
X43872D02*
D03*
X45447Y67456D02*
D03*
Y68244D02*
D03*
D44*
X59541Y40882D02*
D03*
X58541D02*
D03*
X53600Y40850D02*
D03*
X52600D02*
D03*
X52950Y57150D02*
D03*
X51950D02*
D03*
X52950Y61400D02*
D03*
X51950D02*
D03*
D45*
X59041Y40882D02*
D03*
X53100Y40850D02*
D03*
X52450Y57150D02*
D03*
Y61400D02*
D03*
D46*
X54250Y50750D02*
D03*
X58400Y54350D02*
D03*
X56700Y72150D02*
D03*
X63291Y68481D02*
D03*
D47*
X54250Y51750D02*
D03*
Y52750D02*
D03*
Y53750D02*
D03*
X51250Y50750D02*
D03*
Y51750D02*
D03*
Y52750D02*
D03*
Y53750D02*
D03*
X58400Y55350D02*
D03*
Y56350D02*
D03*
Y57350D02*
D03*
X55400Y54350D02*
D03*
Y55350D02*
D03*
Y56350D02*
D03*
Y57350D02*
D03*
X56700Y73150D02*
D03*
Y74150D02*
D03*
Y75150D02*
D03*
X53700Y72150D02*
D03*
Y73150D02*
D03*
Y74150D02*
D03*
Y75150D02*
D03*
X63291Y69482D02*
D03*
Y70482D02*
D03*
Y71481D02*
D03*
X60291Y68481D02*
D03*
Y69482D02*
D03*
Y70482D02*
D03*
Y71481D02*
D03*
X43006Y68342D02*
D03*
Y67358D02*
D03*
D48*
X54100Y77450D02*
D03*
D49*
X60902Y77350D02*
D03*
X59681D02*
D03*
D50*
X44200Y61000D02*
D03*
Y62000D02*
D03*
D51*
X44266Y69819D02*
D03*
D52*
X45447Y67850D02*
D03*
D53*
X43006D02*
D03*
D54*
X43491Y71400D02*
D03*
D55*
X47609D02*
D03*
D56*
X63240Y66480D02*
D03*
X63660Y67090D02*
D03*
X56300Y61380D02*
D03*
X55890Y62910D02*
D03*
M02*
